{
.appVersion = "3133";
.formatVersion = 3;
classes = (
{
code = "reh-ar reh-ar.fina zain-ar zain-ar.fina rreh-ar rreh-ar.fina jeh-ar jeh-ar.fina alefHamzabelow-ar alefHamzabelow-ar.fina 
";
name = REHZEHJEH;
},
{
code = "beh-ar.init peh-ar.init yeh-ar.init yehFarsi-ar.init beh-ar.medi peh-ar.medi yeh-ar.medi yehFarsi-ar.medi beh-ar.medi.ss01 peh-ar.medi.ss01 yeh-ar.medi.ss01 yehFarsi-ar.medi.ss01 heh-ar.medi hehgoal-ar.init hehgoal-ar.medi hehDoachashmee-ar.medi
";
name = BEHPEHYEH;
},
{
code = "beh-ar.medi peh-ar.medi teh-ar.medi theh-ar.medi noon-ar.medi yeh-ar.medi yehFarsi-ar.medi 

noon-ar.fina 

seen-ar.init seen-ar.fina seen-ar.medi sheen-ar.init sheen-ar.fina sheen-ar.medi
";
name = DEFAULT;
},
{
code = "beh-ar.medi.ss01 peh-ar.medi.ss01 teh-ar.medi.ss01 theh-ar.medi.ss01 noon-ar.medi.ss01 yeh-ar.medi.ss01 yehFarsi-ar.medi.ss01 

noon-ar.fina 

seen-ar.init seen-ar.fina seen-ar.medi sheen-ar.init sheen-ar.fina sheen-ar.medi
";
name = ALT1;
},
{
code = "beh-ar.init peh-ar.init teh-ar.init theh-ar.init noon-ar.init yeh-ar.init 
yehFarsi-ar.init

peh-ar.init.ss01 yeh-ar.init.ss01 yehFarsi-ar.init.ss01

beh-ar.fina peh-ar.fina teh-ar.fina theh-ar.fina
";
name = enrabe;
},
{
code = "fatha-ar fathatan-ar damma-ar dammatan-ar sukun-ar shadda-ar 
shaddaFatha-ar shaddaDamma-ar shaddaKasra-ar shaddaKasratan-ar shaddaFathatan-ar shaddaDammatan-ar shaddaAlefabove-ar 
hamzaabove-ar hamzaaboveDamma-ar hamzaaboveDammatan-ar hamzaaboveFatha-ar hamzaaboveFathatan-ar hamzaaboveSukun-ar";
name = ABOVEALEF;
},
{
code = "teh-ar.init teh-ar.medi teh-ar.medi.ss01 theh-ar.init theh-ar.medi theh-ar.medi.ss01 
hah-ar.init hah-ar.medi khah-ar.init khah-ar.medi 
seen-ar.init seen-ar.medi sheen-ar.init sheen-ar.medi 
sad-ar.init sad-ar.medi dad-ar.init dad-ar.medi
tah-ar.init tah-ar.medi zah-ar.init zah-ar.medi
ain-ar.init ain-ar.medi ghain-ar.init ghain-ar.medi
feh-ar.init feh-ar.medi qaf-ar.init qaf-ar.medi

glyphs = (
{
color = 2;
glyphname = A;
kernLeft = A;
kernRight = A;
lastChange = "2022-06-13 15:24:57 +0000";
layers = (
{
anchors = (
{
name = bottom;
pos = (389,0);
},
{
name = ogonek;
pos = (743,0);
},
{
name = top;
pos = (389,1470);
}
);
layerId = "1AB499B8-18A8-432D-A211-B6882CCB886D";
shapes = (
{
closed = 1;
nodes = (
(245,0,l),
(285,300,l),
(493,300,l),
(533,0,l),
(743,0,l),
(521,1470,l),
(257,1470,l),
(35,0,l)
);
},
{
closed = 1;
nodes = (
(377,1022,l),
(383,1100,l),
(395,1100,l),
(401,1022,l),
(463,528,l),
(315,528,l)
);
}
);
width = 778;
}
);
unicode = 65;
},
{
color = 2;
glyphname = AE;
kernLeft = A;
kernRight = E;
lastChange = "2022-06-13 15:24:57 +0000";
layers = (
{
anchors = (
{
name = bottom;
pos = (556,0);
},
{
name = top;
pos = (557,1470);
}
);
layerId = "1AB499B8-18A8-432D-A211-B6882CCB886D";
shapes = (
{
closed = 1;
nodes = (
(249,0,l),
(337,300,l),
(559,300,l),
(559,0,l),
(1053,0,l),
(1053,222,l),
(775,222,l),
(775,626,l),
(975,626,l),
(975,862,l),
(775,862,l),
(775,1248,l),
(1053,1248,l),
(1053,1470,l),
(445,1470,l),
(35,0,l)
);
},
{
closed = 1;
nodes = (
(549,1030,l),
(559,1030,l),
(559,528,l),
(403,528,l)
);
}
);
width = 1133;
}
);
metricLeft = A;
metricRight = E;
unicode = 198;
},
{
color = 2;
glyphname = B;
kernLeft = H;
lastChange = "2022-06-13 15:24:57 +0000";
layers = (
{
anchors = (
{
name = bottom;
pos = (364,0);
},
{
name = top;
pos = (364,1470);
}
);
layerId = "1AB499B8-18A8-432D-A211-B6882CCB886D";
shapes = (
{
closed = 1;
nodes = (
(336,0,ls),
(559,0,o),
(680,169,o),
(680,416,cs),
(680,582,o),
(636,717,o),
(530,776,c),
(635,842,o),
(664,948,o),
(664,1090,cs),
(664,1356,o),
(524,1470,o),
(300,1470,cs),
(80,1470,l),
(80,0,l)
);
},
{
closed = 1;
nodes = (
(296,666,l),
(426,666,o),
(456,588,o),
(456,440,cs),
(456,295,o),
(427,214,o),
(296,214,c)
);
},
{
closed = 1;
nodes = (
(296,1256,l),
(415,1256,o),
(456,1194,o),
(456,1062,cs),
(456,931,o),
(417,864,o),
(296,864,c)
);
}
);
width = 728;
}
);
metricLeft = H;
unicode = 66;
},
{
color = 2;
glyphname = C;
kernLeft = O;
kernRight = O;
lastChange = "2022-06-13 15:24:57 +0000";
layers = (
{
anchors = (
{
name = bottom;
pos = (350,0);
},
{
name = top;
pos = (350,1470);
}
);
layerId = "1AB499B8-18A8-432D-A211-B6882CCB886D";
shapes = (
{
closed = 1;
nodes = (
(536,-16,o),
(646,122,o),
(646,302,cs),
(646,504,l),
(444,504,l),
(444,302,ls),
(444,240,o),
(422,194,o),
(362,194,cs),
(312,194,o),
(286,243,o),
(286,302,cs),
(286,1168,ls),
(286,1227,o),
(309,1276,o),
(362,1276,cs),
(421,1276,o),
(444,1229,o),
(444,1168,cs),
(444,966,l),
(646,966,l),
(646,1168,ls),
(646,1343,o),
(536,1486,o),
(358,1486,cs),
(179,1486,o),
(70,1348,o),
(70,1168,cs),
(70,302,ls),
(70,119,o),
(174,-16,o),
(358,-16,cs)
);
}
);
width = 716;
}
);
metricLeft = O;
metricRight = O;
unicode = 67;
},
{
color = 2;
glyphname = D;
kernLeft = H;
lastChange = "2022-06-13 15:24:57 +0000";
layers = (
{
anchors = (
{
name = bottom;
pos = (372,0);
},
{
name = center;
pos = (372,736);
},
{
name = top;
pos = (372,1470);
}
);
layerId = "1AB499B8-18A8-432D-A211-B6882CCB886D";
shapes = (
{
closed = 1;
nodes = (
(300,0,ls),
(578,0,o),
(675,151,o),
(675,734,cs),
(675,1315,o),
(578,1470,o),
(300,1470,cs),
(80,1470,l),
(80,0,l)
);
},
{
closed = 1;
nodes = (
(296,1254,l),
(454,1254,o),
(456,1062,o),
(456,737,cs),
(456,415,o),
(455,216,o),
(296,216,c)
);
}
);
width = 744;
}
);
metricLeft = H;
unicode = 68;
},
{
color = 3;
glyphname = Eth;
kernRight = D;
lastChange = "2022-06-13 15:24:57 +0000";
layers = (
{
layerId = "1AB499B8-18A8-432D-A211-B6882CCB886D";
shapes = (
{
closed = 1;
nodes = (
(390,634,l),
(390,824,l),
(32,824,l),
(32,634,l)
);
},
{
ref = D;
}
);
width = 744;
}
);
metricRight = D;
unicode = 208;
},
{
color = 2;
glyphname = E;
kernLeft = H;
kernRight = E;
lastChange = "2022-06-13 15:24:57 +0000";
layers = (
{
anchors = (
{
name = bottom;
pos = (308,0);
},
{
name = ogonek;
pos = (574,0);
},
{
name = top;
pos = (308,1470);
},
{
name = topleft;
pos = (20,1470);
}
);
layerId = "1AB499B8-18A8-432D-A211-B6882CCB886D";
shapes = (
{
closed = 1;
nodes = (
(574,0,l),
(574,222,l),
(296,222,l),
(296,636,l),
(496,636,l),
(496,852,l),
(296,852,l),
(296,1248,l),
(574,1248,l),
(574,1470,l),
(80,1470,l),
(80,0,l)
);
}
);
width = 654;
}
);
metricLeft = H;
metricRight = H;
unicode = 69;
},
{
color = 2;
glyphname = Eacute;
kernRight = E;
lastChange = "2022-06-13 15:24:57 +0000";
layers = (
{
layerId = "1AB499B8-18A8-432D-A211-B6882CCB886D";
shapes = (
{
closed = 1;
nodes = (
(574,0,l),
(574,222,l),
(296,222,l),
(296,626,l),
(496,626,l),
(496,862,l),
(296,862,l),
(296,1248,l),
(574,1248,l),
(574,1470,l),
(80,1470,l),
(80,0,l)
);
},
{
closed = 1;
nodes = (
(386,1600,l),
(544,1780,l),
(334,1780,l),
(230,1600,l)
);
}
);
width = 614;
}
);
unicode = 201;
},
{
color = 2;
glyphname = F;
kernLeft = H;
kernRight = F;
lastChange = "2022-06-13 15:24:57 +0000";
layers = (
{
anchors = (
{
name = bottom;
pos = (301,0);
},
{
name = top;
pos = (301,1470);
}
);
layerId = "1AB499B8-18A8-432D-A211-B6882CCB886D";
shapes = (
{
closed = 1;
nodes = (
(296,0,l),
(296,640,l),
(496,640,l),
(496,862,l),
(296,862,l),
(296,1248,l),
(594,1248,l),
(594,1470,l),
(80,1470,l),
(80,0,l)
);
}
);
width = 602;
}
);
metricLeft = H;
unicode = 70;
},
{
color = 2;
glyphname = G;
kernLeft = O;
lastChange = "2022-06-13 15:24:57 +0000";
layers = (
{
anchors = (
{
name = bottom;
pos = (364,0);
},
{
name = top;
pos = (364,1470);
}
);
layerId = "1AB499B8-18A8-432D-A211-B6882CCB886D";
shapes = (
{
closed = 1;
nodes = (
(394,-16,o),
(455,20,o),
(492,80,c),
(518,0,l),
(646,0,l),
(646,732,l),
(344,732,l),
(344,530,l),
(430,530,l),
(430,284,ls),
(430,227,o),
(411,176,o),
(358,176,cs),
(307,176,o),
(286,227,o),
(286,284,cs),
(286,1168,ls),
(286,1223,o),
(306,1276,o),
(358,1276,cs),
(411,1276,o),
(430,1227,o),
(430,1168,cs),
(430,942,l),
(646,942,l),
(646,1168,ls),
(646,1344,o),
(537,1486,o),
(358,1486,cs),
(181,1486,o),
(70,1346,o),
(70,1168,cs),
(70,302,ls),
(70,122,o),
(146,-16,o),
(324,-16,cs)
);
}
);
width = 726;
}
);
metricLeft = O;
metricRight = H;
unicode = 71;
},
{
color = 2;
glyphname = H;
kernLeft = H;
kernRight = H;
lastChange = "2022-06-13 15:24:57 +0000";
layers = (
{
anchors = (
{
name = bottom;
pos = (380,0);
},
{
name = center;
pos = (380,736);
},
{
name = top;
pos = (380,1470);
},
{
name = topleft;
pos = (80,1470);
}
);
layerId = "1AB499B8-18A8-432D-A211-B6882CCB886D";
shapes = (
{
closed = 1;
nodes = (
(296,0,l),
(296,640,l),
(464,640,l),
(464,0,l),
(680,0,l),
(680,1470,l),
(464,1470,l),
(464,862,l),
(296,862,l),
(296,1470,l),
(80,1470,l),
(80,0,l)
);
}
);
width = 760;
}
);
unicode = 72;
},
{
color = 3;
glyphname = Hbar;
lastChange = "2022-06-13 15:24:57 +0000";
layers = (
{
layerId = "1AB499B8-18A8-432D-A211-B6882CCB886D";
shapes = (
{
closed = 1;
nodes = (
(745,1136,l),
(745,1326,l),
(20,1326,l),
(20,1136,l)
);
},
{
ref = H;
}
);
width = 760;
}
);
unicode = 294;
},
{
color = 2;
glyphname = I;
kernLeft = l;
kernRight = l;
lastChange = "2022-06-13 15:24:57 +0000";
layers = (
{
anchors = (
{
name = bottom;
pos = (188,0);
},
{
name = ogonek;
pos = (296,0);
},
{
name = top;
pos = (188,1470);
},
{
name = topleft;
pos = (20,1470);
}
);
layerId = "1AB499B8-18A8-432D-A211-B6882CCB886D";
shapes = (
{
closed = 1;
nodes = (
(296,0,l),
(296,1470,l),
(80,1470,l),
(80,0,l)
);
}
);
width = 376;
}
);
metricLeft = H;
metricRight = H;
unicode = 73;
},
{
color = 2;
glyphname = IJ;
lastChange = "2022-06-13 15:24:57 +0000";
layers = (
{
layerId = "1AB499B8-18A8-432D-A211-B6882CCB886D";
shapes = (
{
closed = 1;
nodes = (
(599,-27,o),
(720,69,o),
(720,272,cs),
(720,1470,l),
(504,1470,l),
(504,306,ls),
(504,227,o),
(460,188,o),
(388,198,c),
(388,-14,l)
);
},
{
closed = 1;
nodes = (
(296,0,l),
(296,1470,l),
(80,1470,l),
(80,0,l)
);
}
);
width = 790;
}
);
unicode = 306;
},
{
color = 2;
glyphname = J;
lastChange = "2022-06-13 15:24:57 +0000";
layers = (
{
anchors = (
{
name = bottom;
pos = (207,0);
},
{
name = top;
pos = (208,1470);
}
);
layerId = "1AB499B8-18A8-432D-A211-B6882CCB886D";
shapes = (
{
closed = 1;
nodes = (
(25,-15,o),
(37,-15,o),
(49,-15,cs),
(237,-15,o),
(344,81,o),
(344,272,cs),
(344,1470,l),
(128,1470,l),
(128,306,ls),
(128,235,o),
(93,196,o),
(33,196,cs),
(27,196,o),
(19,197,o),
(12,198,c),
(12,-14,l)
);
}
);
width = 424;
}
);
metricRight = H;
unicode = 74;
},
{
color = 2;
glyphname = K;
kernLeft = H;
lastChange = "2022-06-13 15:24:57 +0000";
layers = (
{
anchors = (
{
name = bottom;
pos = (376,0);
},
{
name = top;
pos = (376,1470);
}
);
layerId = "1AB499B8-18A8-432D-A211-B6882CCB886D";
shapes = (
{
closed = 1;
nodes = (
(296,0,l),
(296,520,l),
(358,670,l),
(364,670,l),
(508,0,l),
(730,0,l),
(506,986,l),
(704,1470,l),
(482,1470,l),
(314,980,l),
(304,956,l),
(296,956,l),
(296,980,l),
(296,1470,l),
(80,1470,l),
(80,0,l)
);
}
);
width = 750;
}
);
metricLeft = H;
unicode = 75;
},
{
color = 2;
glyphname = L;
kernLeft = H;
kernRight = L;
lastChange = "2022-06-13 15:24:57 +0000";
layers = (
{
anchors = (
{
name = bottom;
pos = (296,0);
},
{
name = top;
pos = (296,1470);
}
);
layerId = "1AB499B8-18A8-432D-A211-B6882CCB886D";
shapes = (
{
closed = 1;
nodes = (
(582,0,l),
(582,200,l),
(296,200,l),
(296,1470,l),
(80,1470,l),
(80,0,l)
);
}
);
width = 590;
}
);
metricLeft = H;
unicode = 76;
},
{
color = 2;
glyphname = Lcaron;
lastChange = "2022-06-13 15:24:57 +0000";
layers = (
{
layerId = "1AB499B8-18A8-432D-A211-B6882CCB886D";
shapes = (
{
closed = 1;
nodes = (
(582,0,l),
(582,200,l),
(296,200,l),
(296,1470,l),
(80,1470,l),
(80,0,l)
);
},
{
closed = 1;
nodes = (
(468,1214,l),
(578,1474,l),
(578,1696,l),
(368,1696,l),
(368,1474,l),
(438,1474,l),
(368,1214,l)
);
}
);
width = 590;
}
);
unicode = 317;
},
{
color = 2;
glyphname = Ldot;
lastChange = "2022-06-13 15:24:57 +0000";
layers = (
{
layerId = "1AB499B8-18A8-432D-A211-B6882CCB886D";
shapes = (
{
closed = 1;
nodes = (
(582,0,l),
(582,200,l),
(296,200,l),
(296,1470,l),
(80,1470,l),
(80,0,l)
);
},
{
closed = 1;
nodes = (
(582,658,l),
(582,880,l),
(372,880,l),
(372,658,l)
);
}
);
width = 590;
}
);
unicode = 319;
},
{
color = 3;
glyphname = Lslash;
lastChange = "2022-06-13 15:24:57 +0000";
layers = (
{
layerId = "1AB499B8-18A8-432D-A211-B6882CCB886D";
shapes = (
{
closed = 1;
nodes = (
(25,509,l),
(468,813,l),
(380,946,l),
(-63,642,l)
);
},
{
ref = L;
}
);
width = 590;
}
);
unicode = 321;
},
{
color = 2;
glyphname = M;
lastChange = "2022-06-13 15:24:57 +0000";
layers = (
{
layerId = "1AB499B8-18A8-432D-A211-B6882CCB886D";
shapes = (
{
closed = 1;
nodes = (
(280,0,l),
(280,986,l),
(292,986,l),
(300,924,l),
(428,0,l),
(540,0,l),
(668,924,l),
(676,986,l),
(688,986,l),
(688,0,l),
(888,0,l),
(888,1470,l),
(614,1470,l),
(496,708,l),
(486,630,l),
(482,630,l),
(472,708,l),
(354,1470,l),
(80,1470,l),
(80,0,l)
);
}
);
width = 968;
}
);
metricLeft = H;
metricRight = H;
unicode = 77;
},
{
color = 2;
glyphname = N;
lastChange = "2022-06-13 15:24:57 +0000";
layers = (
{
anchors = (
{
name = bottom;
pos = (396,0);
},
{
name = top;
pos = (396,1470);
}
);
layerId = "1AB499B8-18A8-432D-A211-B6882CCB886D";
shapes = (
{
closed = 1;
nodes = (
(278,0,l),
(278,834,l),
(290,834,l),
(308,766,l),
(528,0,l),
(710,0,l),
(710,1470,l),
(512,1470,l),
(512,636,l),
(500,636,l),
(482,704,l),
(282,1470,l),
(80,1470,l),
(80,0,l)
);
}
);
width = 790;
}
);
metricLeft = H;
metricRight = H;
unicode = 78;
},
{
color = 3;
glyphname = Eng;
lastChange = "2022-06-13 15:24:57 +0000";
layers = (
{
layerId = "1AB499B8-18A8-432D-A211-B6882CCB886D";
shapes = (
{
closed = 1;
nodes = (
(688,-376,o),
(710,-234,o),
(710,-28,cs),
(710,113,l),
(528,113,l),
(528,-26,ls),
(528,-107,o),
(528,-186,o),
(466,-186,cs),
(444,-186,o),
(418,-181,o),
(410,-176,c),
(410,-362,l),
(429,-371,o),
(461,-376,o),
(498,-376,cs)
);
},
{
ref = N;
}
);
width = 790;
}
);
unicode = 330;
},
{
color = 2;
glyphname = O;
kernLeft = O;
kernRight = O;
lastChange = "2022-06-13 15:24:57 +0000";
layers = (
{
anchors = (
{
name = bottom;
pos = (358,0);
},
{
name = center;
pos = (358,735);
},
{
name = ogonek;
pos = (583,97);
},
{
name = top;
pos = (358,1470);
},
{
name = topleft;
pos = (24,1470);
},
{
name = topright;
pos = (453,1470);
}
);
layerId = "1AB499B8-18A8-432D-A211-B6882CCB886D";
shapes = (
{
closed = 1;
nodes = (
(538,-16,o),
(646,122,o),
(646,302,cs),
(646,1168,ls),
(646,1348,o),
(538,1486,o),
(358,1486,cs),
(178,1486,o),
(70,1349,o),
(70,1168,cs),
(70,302,ls),
(70,122,o),
(178,-16,o),
(358,-16,cs)
);
},
{
closed = 1;
nodes = (
(307,194,o),
(286,247,o),
(286,302,cs),
(286,1168,ls),
(286,1223,o),
(308,1276,o),
(358,1276,cs),
(408,1276,o),
(430,1223,o),
(430,1168,cs),
(430,302,ls),
(430,247,o),
(411,194,o),
(358,194,cs)
);
}
);
width = 716;
}
);
unicode = 79;
},
{
color = 3;
glyphname = Oslash;
kernLeft = O;
kernRight = O;
lastChange = "2022-06-13 15:24:57 +0000";
layers = (
{
anchors = (
{
name = bottom;
pos = (358,0);
},
{
name = top;
pos = (358,1470);
}
);
layerId = "1AB499B8-18A8-432D-A211-B6882CCB886D";
shapes = (
{
closed = 1;
nodes = (
(188,-36,l),
(666,1436,l),
(542,1496,l),
(59,24,l)
);
},
{
ref = O;
}
);
width = 716;
}
);
unicode = 216;
},
{
color = 3;
glyphname = OE;
kernLeft = O;
kernRight = E;
lastChange = "2022-06-13 15:24:57 +0000";
layers = (
{
anchors = (
{
name = bottom;
pos = (485,0);
},
{
name = top;
pos = (485,1470);
}
);
layerId = "1AB499B8-18A8-432D-A211-B6882CCB886D";
shapes = (
{
closed = 1;
nodes = (
(930,0,l),
(930,222,l),
(652,222,l),
(652,636,l),
(852,636,l),
(852,852,l),
(652,852,l),
(652,1248,l),
(930,1248,l),
(930,1470,l),
(436,1470,l),
(436,0,l)
);
},
{
ref = O;
}
);
width = 1010;
}
);
metricLeft = O;
metricRight = E;
unicode = 338;
},
{
color = 2;
glyphname = P;
kernLeft = H;
lastChange = "2022-06-13 15:24:57 +0000";
layers = (
{
layerId = "1AB499B8-18A8-432D-A211-B6882CCB886D";
shapes = (
{
closed = 1;
nodes = (
(296,0,l),
(296,588,l),
(534,598,o),
(666,762,o),
(666,1030,cs),
(666,1298,o),
(542,1470,o),
(296,1470,cs),
(80,1470,l),
(80,0,l)
);
},
{
closed = 1;
nodes = (
(296,1250,l),
(408,1250,o),
(448,1183,o),
(448,1028,cs),
(448,873,o),
(409,808,o),
(296,808,c)
);
}
);
width = 704;
}
);
metricLeft = H;
unicode = 80;
},
{
color = 2;
glyphname = Thorn;
kernLeft = H;
kernRight = P;
lastChange = "2022-06-13 15:24:57 +0000";
layers = (
{
anchors = (
{
name = bottom;
pos = (357,0);
},
{
name = top;
pos = (357,1470);
}
);
layerId = "1AB499B8-18A8-432D-A211-B6882CCB886D";
shapes = (
{
closed = 1;
nodes = (
(296,0,l),
(296,352,l),
(544,352,o),
(676,526,o),
(676,794,cs),
(676,1077,o),
(540,1234,o),
(294,1234,c),
(294,1470,l),
(80,1470,l),
(80,0,l)
);
},
{
closed = 1;
nodes = (
(296,1014,l),
(415,1014,o),
(458,941,o),
(458,786,cs),
(458,631,o),
(417,572,o),
(296,572,c)
);
}
);
width = 714;
}
);
metricLeft = H;
metricRight = P;
unicode = 222;
},
{
color = 2;
glyphname = Q;
kernLeft = O;
lastChange = "2022-06-13 15:24:57 +0000";
layers = (
{
anchors = (
{
name = bottom;
pos = (360,0);
},
{
name = top;
pos = (360,1470);
}
);
layerId = "1AB499B8-18A8-432D-A211-B6882CCB886D";
shapes = (
{
closed = 1;
nodes = (
(688,72,l),
(645,76,o),
(612,92,o),
(595,120,c),
(622,152,o),
(646,223,o),
(646,302,cs),
(646,1168,ls),
(646,1348,o),
(537,1486,o),
(358,1486,cs),
(179,1486,o),
(70,1348,o),
(70,1168,cs),
(70,302,ls),
(70,122,o),
(164,-16,o),
(348,-16,cs),
(390,-16,o),
(434,-3,o),
(454,12,c),
(492,-50,o),
(566,-112,o),
(688,-112,c)
);
},
{
closed = 1;
nodes = (
(307,194,o),
(286,245,o),
(286,302,cs),
(286,1168,ls),
(286,1223,o),
(306,1276,o),
(358,1276,cs),
(411,1276,o),
(430,1223,o),
(430,1168,cs),
(430,302,ls),
(430,245,o),
(411,194,o),
(358,194,cs)
);
}
);
width = 716;
}
);
metricLeft = O;
unicode = 81;
},
{
color = 2;
glyphname = R;
kernLeft = H;
lastChange = "2022-06-13 15:24:57 +0000";
layers = (
{
anchors = (
{
name = bottom;
pos = (362,0);
},
{
name = top;
pos = (362,1470);
}
);
layerId = "1AB499B8-18A8-432D-A211-B6882CCB886D";
shapes = (
{
closed = 1;
nodes = (
(296,0,l),
(296,620,l),
(334,620,l),
(456,0,l),
(672,0,l),
(525,699,l),
(607,755,o),
(674,880,o),
(674,1046,cs),
(674,1324,o),
(554,1470,o),
(296,1470,cs),
(80,1470,l),
(80,0,l)
);
},
{
closed = 1;
nodes = (
(296,1256,l),
(417,1256,o),
(456,1178,o),
(456,1038,cs),
(456,903,o),
(416,820,o),
(296,820,c)
);
}
);
width = 714;
}
);
metricLeft = H;
unicode = 82;
},
{
color = 2;
glyphname = S;
kernLeft = S;
lastChange = "2022-06-13 15:24:57 +0000";
layers = (
{
anchors = (
{
name = bottom;
pos = (334,0);
},
{
name = top;
pos = (334,1470);
}
);
layerId = "1AB499B8-18A8-432D-A211-B6882CCB886D";
shapes = (
{
closed = 1;
nodes = (
(552,-16,o),
(640,143,o),
(640,354,cs),
(640,520,o),
(555,644,o),
(434,808,cs),
(332,946,o),
(268,1040,o),
(268,1152,cs),
(268,1238,o),
(286,1288,o),
(342,1288,cs),
(414,1288,o),
(428,1175,o),
(428,1076,c),
(640,1096,l),
(640,1327,o),
(559,1486,o),
(338,1486,cs),
(160,1486,o),
(56,1338,o),
(56,1142,cs),
(56,954,o),
(161,801,o),
(316,594,cs),
(377,512,o),
(428,418,o),
(428,334,cs),
(428,250,o),
(404,182,o),
(340,182,cs),
(262,182,o),
(248,305,o),
(248,432,c),
(36,412,l),
(36,148,o),
(102,-16,o),
(340,-16,cs)
);
}
);
width = 676;
}
);
unicode = 83;
},
{
color = 2;
glyphname = T;
kernLeft = T;
kernRight = T;
lastChange = "2022-06-13 15:24:57 +0000";
layers = (
{
anchors = (
{
name = bottom;
pos = (332,0);
},
{
name = center;
pos = (332,736);
},
{
name = top;
pos = (332,1470);
}
);
layerId = "1AB499B8-18A8-432D-A211-B6882CCB886D";
shapes = (
{
closed = 1;
nodes = (
(440,0,l),
(440,1248,l),
(644,1248,l),
(644,1470,l),
(20,1470,l),
(20,1248,l),
(224,1248,l),
(224,0,l)
);
}
);
width = 664;
}
);
unicode = 84;
},
{
color = 3;
glyphname = Tbar;
lastChange = "2022-06-13 15:24:57 +0000";
layers = (
{
layerId = "1AB499B8-18A8-432D-A211-B6882CCB886D";
shapes = (
{
closed = 1;
nodes = (
(570,641,l),
(570,831,l),
(91,831,l),
(91,641,l)
);
},
{
ref = T;
}
);
width = 664;
}
);
unicode = 358;
},
{
color = 2;
glyphname = U;
lastChange = "2022-06-13 15:24:57 +0000";
layers = (
{
anchors = (
{
name = bottom;
pos = (368,0);
},
{
name = ogonek;
pos = (560,63);
},
{
name = top;
pos = (368,1470);
},
{
name = topright;
pos = (576,1470);
}
);
layerId = "1AB499B8-18A8-432D-A211-B6882CCB886D";
shapes = (
{
closed = 1;
nodes = (
(547,-16,o),
(656,122,o),
(656,302,cs),
(656,1470,l),
(440,1470,l),
(440,302,ls),
(440,245,o),
(421,194,o),
(368,194,cs),
(317,194,o),
(296,245,o),
(296,302,cs),
(296,1470,l),
(80,1470,l),
(80,302,ls),
(80,122,o),
(185,-16,o),
(368,-16,cs)
);
}
);
width = 736;
}
);
metricLeft = H;
metricRight = H;
unicode = 85;
},
{
color = 2;
glyphname = V;
kernLeft = V;
kernRight = V;
lastChange = "2022-06-13 15:24:57 +0000";
layers = (
{
anchors = (
{
name = bottom;
pos = (362,0);
},
{
name = top;
pos = (362,1470);
}
);
layerId = "1AB499B8-18A8-432D-A211-B6882CCB886D";
shapes = (
{
closed = 1;
nodes = (
(470,0,l),
(694,1470,l),
(484,1470,l),
(376,602,l),
(368,460,l),
(356,460,l),
(348,602,l),
(240,1470,l),
(30,1470,l),
(254,0,l)
);
}
);
width = 724;
}
);
unicode = 86;
},
{
color = 2;
glyphname = W;
kernLeft = V;
kernRight = V;
lastChange = "2022-06-13 15:24:57 +0000";
layers = (
{
anchors = (
{
name = bottom;
pos = (512,0);
},
{
name = top;
pos = (512,1470);
}
);
layerId = "1AB499B8-18A8-432D-A211-B6882CCB886D";
shapes = (
{
closed = 1;
nodes = (
(396,0,l),
(496,696,l),
(508,782,l),
(516,782,l),
(528,696,l),
(628,0,l),
(796,0,l),
(994,1470,l),
(794,1470,l),
(708,706,l),
(704,658,l),
(688,658,l),
(682,706,l),
(590,1470,l),
(434,1470,l),
(342,706,l),
(336,658,l),
(320,658,l),
(316,706,l),
(230,1470,l),
(30,1470,l),
(228,0,l)
);
}
);
width = 1024;
}
);
metricLeft = V;
metricRight = V;
unicode = 87;
},
{
color = 2;
glyphname = X;
kernLeft = X;
kernRight = X;
lastChange = "2022-06-13 15:24:57 +0000";
layers = (
{
anchors = (
{
name = bottom;
pos = (374,0);
},
{
name = top;
pos = (374,1470);
}
);
layerId = "1AB499B8-18A8-432D-A211-B6882CCB886D";
shapes = (
{
closed = 1;
nodes = (
(242,0,l),
(366,438,l),
(370,466,l),
(378,466,l),
(382,438,l),
(506,0,l),
(718,0,l),
(480,772,l),
(714,1470,l),
(502,1470,l),
(384,1098,l),
(378,1070,l),
(370,1070,l),
(364,1098,l),
(246,1470,l),
(34,1470,l),
(268,772,l),
(30,0,l)
);
}
);
width = 748;
}
);
metricLeft = V;
metricRight = V;
unicode = 88;
},
{
color = 2;
glyphname = Y;
kernLeft = Y;
kernRight = Y;
lastChange = "2022-06-13 15:24:57 +0000";
layers = (
{
anchors = (
{
name = bottom;
pos = (358,0);
},
{
name = top;
pos = (358,1470);
},
{
name = topleft;
pos = (45,1470);
}
);
layerId = "1AB499B8-18A8-432D-A211-B6882CCB886D";
shapes = (
{
closed = 1;
nodes = (
(466,0,l),
(466,626,l),
(686,1470,l),
(474,1470,l),
(368,1000,l),
(361,936,l),
(355,936,l),
(348,1000,l),
(242,1470,l),
(30,1470,l),
(250,626,l),
(250,0,l)
);
}
);
width = 716;
}
);
metricLeft = V;
metricRight = V;
unicode = 89;
},
{
color = 2;
glyphname = Z;
lastChange = "2022-06-13 15:24:57 +0000";
layers = (
{
anchors = (
{
name = bottom;
pos = (316,0);
},
{
name = center;
pos = (316,735);
},
{
name = top;
pos = (316,1470);
}
);
layerId = "1AB499B8-18A8-432D-A211-B6882CCB886D";
shapes = (
{
closed = 1;
nodes = (
(602,0,l),
(602,214,l),
(258,214,l),
(602,1256,l),
(602,1470,l),
(78,1470,l),
(78,1256,l),
(368,1256,l),
(30,232,l),
(30,0,l)
);
}
);
width = 632;
}
);
unicode = 90;
},
{
color = 2;
glyphname = a;
kernLeft = a;
kernRight = n;
lastChange = "2022-06-13 15:24:57 +0000";
layers = (
{
anchors = (
{
name = bottom;
pos = (310,0);
},
{
name = ogonek;
pos = (589,0);
},
{
name = top;
pos = (321,1094);
}
);
layerId = "1AB499B8-18A8-432D-A211-B6882CCB886D";
shapes = (
{
closed = 1;
nodes = (
(274,-16,o),
(325,27,o),
(359,88,c),
(373,88,l),
(373,74,o),
(374,21,o),
(391,0,c),
(589,0,l),
(581,48,o),
(575,92,o),
(575,190,cs),
(575,842,ls),
(575,998,o),
(478,1110,o),
(329,1110,cs),
(172,1110,o),
(57,998,o),
(57,818,cs),
(57,772,l),
(259,772,l),
(259,824,ls),
(259,886,o),
(271,934,o),
(317,934,cs),
(366,934,o),
(373,889,o),
(373,834,cs),
(373,714,l),
(365,695,o),
(327,674,o),
(277,648,cs),
(115,564,o),
(35,460,o),
(35,272,cs),
(35,77,o),
(114,-16,o),
(207,-16,cs)
);
},
{
closed = 1;
nodes = (
(249,182,o),
(233,238,o),
(233,284,cs),
(233,388,o),
(275,476,o),
(373,518,c),
(373,258,ls),
(373,220,o),
(335,182,o),
(289,182,cs)
);
}
);
width = 639;
}
);
metricRight = n;
unicode = 97;
},
{
color = 2;
glyphname = a.ss01;
kernLeft = o;
lastChange = "2022-06-13 15:24:57 +0000";
layers = (
{
anchors = (
{
name = bottom;
pos = (305,0);
},
{
name = center;
pos = (306,548);
},
{
name = ogonek;
pos = (558,0);
},
{
name = top;
pos = (304,1094);
}
);
layerId = "1AB499B8-18A8-432D-A211-B6882CCB886D";
shapes = (
{
closed = 1;
nodes = (
(252,-16,o),
(303,25,o),
(356,72,c),
(356,0,l),
(558,0,l),
(558,1094,l),
(356,1094,l),
(356,1022,l),
(305,1070,o),
(247,1110,o),
(196,1110,cs),
(93,1110,o),
(40,1001,o),
(40,896,cs),
(40,198,ls),
(40,91,o),
(96,-16,o),
(196,-16,cs)
);
},
{
closed = 1;
nodes = (
(262,174,o),
(242,202,o),
(242,240,cs),
(242,854,ls),
(242,892,o),
(262,920,o),
(292,920,cs),
(322,920,o),
(356,886,o),
(356,854,cs),
(356,240,ls),
(356,202,o),
(322,174,o),
(292,174,cs)
);
}
);
width = 608;
}
);
metricLeft = o;
metricRight = n;
},
{
color = 3;
glyphname = ae;
kernLeft = a;
kernRight = e;
lastChange = "2022-06-13 15:24:57 +0000";
layers = (
{
anchors = (
{
name = bottom;
pos = (478,0);
},
{
name = top;
pos = (478,1094);
}
);
layerId = "1AB499B8-18A8-432D-A211-B6882CCB886D";
shapes = (
{
closed = 1;
nodes = (
(461,-16,o),
(565,82,o),
(565,230,c),
(565,842,ls),
(565,998,o),
(478,1110,o),
(329,1110,cs),
(172,1110,o),
(57,998,o),
(57,818,cs),
(57,772,l),
(259,772,l),
(259,824,ls),
(259,886,o),
(271,934,o),
(317,934,cs),
(366,934,o),
(373,889,o),
(373,834,cs),
(373,694,l),
(365,675,o),
(327,654,o),
(277,628,cs),
(115,544,o),
(35,460,o),
(35,272,cs),
(35,77,o),
(158,-16,o),
(307,-16,cs)
);
},
{
closed = 1;
nodes = (
(249,182,o),
(233,238,o),
(233,284,cs),
(233,388,o),
(275,456,o),
(373,498,c),
(373,258,ls),
(373,220,o),
(335,182,o),
(289,182,cs)
);
},
{
pos = (343,0);
ref = e;
}
);
width = 945;
}
);
metricLeft = a;
metricRight = e;
unicode = 230;
},
{
color = 2;
glyphname = b;
kernLeft = h;
kernRight = o;
lastChange = "2022-06-13 15:24:57 +0000";
layers = (
{
anchors = (
{
name = bottom;
pos = (305,0);
},
{
name = top;
pos = (145,1470);
}
);
layerId = "1AB499B8-18A8-432D-A211-B6882CCB886D";
shapes = (
{
closed = 1;
nodes = (
(512,-16,o),
(568,91,o),
(568,198,cs),
(568,896,ls),
(568,1001,o),
(515,1110,o),
(412,1110,cs),
(361,1110,o),
(303,1070,o),
(252,1022,c),
(252,1470,l),
(50,1470,l),
(50,0,l),
(252,0,l),
(252,72,l),
(305,25,o),
(356,-16,o),
(412,-16,cs)
);
},
{
closed = 1;
nodes = (
(286,174,o),
(252,202,o),
(252,240,cs),
(252,854,ls),
(252,886,o),
(286,920,o),
(316,920,cs),
(346,920,o),
(366,892,o),
(366,854,cs),
(366,240,ls),
(366,202,o),
(346,174,o),
(316,174,cs)
);
}
);
width = 608;
}
);
metricLeft = h;
metricRight = o;
unicode = 98;
},
{
color = 2;
glyphname = c;
kernLeft = o;
kernRight = o;
lastChange = "2022-06-13 15:24:57 +0000";
layers = (
{
anchors = (
{
name = bottom;
pos = (297,0);
},
{
name = top;
pos = (297,1094);
}
);
layerId = "1AB499B8-18A8-432D-A211-B6882CCB886D";
shapes = (
{
closed = 1;
nodes = (
(475,-15,o),
(558,102,o),
(558,299,cs),
(558,385,l),
(356,385,l),
(356,273,ls),
(356,212,o),
(343,165,o),
(298,165,cs),
(253,165,o),
(242,213,o),
(242,273,cs),
(242,822,ls),
(242,882,o),
(253,930,o),
(298,930,cs),
(343,930,o),
(356,883,o),
(356,822,cs),
(356,710,l),
(558,710,l),
(558,796,ls),
(558,993,o),
(475,1110,o),
(298,1110,cs),
(121,1110,o),
(40,994,o),
(40,796,cs),
(40,299,ls),
(40,101,o),
(121,-15,o),
(298,-15,cs)
);
}
);
width = 598;
}
);
metricLeft = o;
metricRight = o;
unicode = 99;
},
{
color = 2;
glyphname = d;
kernLeft = o;
lastChange = "2022-06-13 15:24:57 +0000";
layers = (
{
anchors = (
{
name = bottom;
pos = (305,0);
},
{
name = center;
pos = (306,548);
},
{
name = top;
pos = (305,1470);
},
{
name = topright;
pos = (620,1094);
}
);
layerId = "1AB499B8-18A8-432D-A211-B6882CCB886D";
shapes = (
{
closed = 1;
nodes = (
(252,-16,o),
(303,25,o),
(356,72,c),
(356,0,l),
(558,0,l),
(558,1470,l),
(356,1470,l),
(356,1022,l),
(305,1070,o),
(247,1110,o),
(196,1110,cs),
(93,1110,o),
(40,1001,o),
(40,896,cs),
(40,198,ls),
(40,91,o),
(96,-16,o),
(196,-16,cs)
);
},
{
closed = 1;
nodes = (
(262,174,o),
(242,202,o),
(242,240,cs),
(242,854,ls),
(242,892,o),
(262,920,o),
(292,920,cs),
(322,920,o),
(356,886,o),
(356,854,cs),
(356,240,ls),
(356,202,o),
(322,174,o),
(292,174,cs)
);
}
);
width = 640;
}
);
metricLeft = o;
unicode = 100;
},
{
color = 2;
glyphname = eth;
kernLeft = o;
kernRight = o;
lastChange = "2022-06-13 15:24:57 +0000";
layers = (
{
layerId = "1AB499B8-18A8-432D-A211-B6882CCB886D";
shapes = (
{
closed = 1;
nodes = (
(462,-16,o),
(558,102,o),
(558,266,cs),
(558,906,ls),
(558,1106,o),
(498,1246,o),
(436,1342,c),
(534,1428,l),
(480,1492,l),
(388,1412,l),
(376,1428,o),
(347,1461,o),
(336,1472,c),
(230,1374,l),
(245,1353,o),
(267,1321,o),
(274,1310,c),
(176,1224,l),
(230,1162,l),
(310,1232,l),
(332,1182,o),
(350,1116,o),
(360,1034,c),
(306,1080,o),
(254,1110,o),
(208,1110,cs),
(78,1110,o),
(40,982,o),
(40,838,cs),
(40,272,ls),
(40,112,o),
(138,-16,o),
(298,-16,cs)
);
},
{
closed = 1;
nodes = (
(245,162,o),
(230,214,o),
(230,272,cs),
(230,822,ls),
(230,875,o),
(246,934,o),
(298,934,cs),
(351,934,o),
(368,888,o),
(368,822,cs),
(368,272,ls),
(368,213,o),
(354,162,o),
(298,162,cs)
);
}
);
width = 598;
}
);
metricLeft = o;
metricRight = o;
unicode = 240;
},
{
color = 3;
glyphname = dcroat;
lastChange = "2022-06-13 15:24:57 +0000";
layers = (
{
layerId = "1AB499B8-18A8-432D-A211-B6882CCB886D";
shapes = (
{
closed = 1;
nodes = (
(636,1220,l),
(636,1362,l),
(237,1362,l),
(237,1220,l)
);
},
{
ref = d;
}
);
width = 640;
}
);
unicode = 273;
},
{
color = 2;
glyphname = e;
kernLeft = c;
kernRight = c;
lastChange = "2022-06-13 15:24:57 +0000";
layers = (
{
anchors = (
{
name = bottom;
pos = (298,0);
},
{
name = ogonek;
pos = (556,20);
},
{
name = top;
pos = (298,1094);
}
);
layerId = "1AB499B8-18A8-432D-A211-B6882CCB886D";
shapes = (
{
closed = 1;
nodes = (
(466,-16,o),
(562,96,o),
(562,266,cs),
(562,392,l),
(374,392,l),
(374,272,ls),
(374,211,o),
(354,162,o),
(302,162,cs),
(252,162,o),
(228,217,o),
(228,272,cs),
(228,510,l),
(562,510,l),
(562,828,ls),
(562,989,o),
(464,1110,o),
(302,1110,cs),
(136,1110,o),
(40,992,o),
(40,822,cs),
(40,272,ls),
(40,111,o),
(138,-16,o),
(300,-16,cs)
);
},
{
closed = 1;
nodes = (
(228,822,ls),
(228,879,o),
(251,934,o),
(302,934,cs),
(357,934,o),
(374,882,o),
(374,822,cs),
(374,668,l),
(228,668,l)
);
}
);
width = 602;
}
);
metricLeft = o;
metricRight = o;
unicode = 101;
},
{
color = 2;
glyphname = f;
lastChange = "2022-06-13 15:24:57 +0000";
layers = (
{
layerId = "1AB499B8-18A8-432D-A211-B6882CCB886D";
shapes = (
{
closed = 1;
nodes = (
(314,0,l),
(314,912,l),
(436,912,l),
(436,1094,l),
(314,1094,l),
(314,1180,ls),
(314,1259,o),
(359,1299,o),
(398,1299,cs),
(428,1299,o),
(446,1293,o),
(458,1284,c),
(458,1460,l),
(439,1471,o),
(409,1478,o),
(374,1478,cs),
(218,1478,o),
(112,1361,o),
(112,1154,cs),
(112,1094,l),
(10,1094,l),
(10,912,l),
(112,912,l),
(112,0,l)
);
}
);
width = 468;
}
);
unicode = 102;
},
{
color = 2;
glyphname = g;
lastChange = "2022-06-13 15:24:57 +0000";
layers = (
{
anchors = (
{
name = bottom;
pos = (345,-530);
},
{
name = top;
pos = (345,1094);
}
);
layerId = "1AB499B8-18A8-432D-A211-B6882CCB886D";
shapes = (
{
closed = 1;
nodes = (
(509,-392,o),
(675,-305,o),
(675,-112,cs),
(675,52,o),
(557,116,o),
(385,142,cs),
(303,154,o),
(251,167,o),
(251,210,cs),
(251,228,o),
(261,244,o),
(279,260,c),
(284,259,o),
(301,258,o),
(317,258,cs),
(474,258,o),
(577,373,o),
(577,528,cs),
(577,838,ls),
(577,860,o),
(571,897,o),
(567,906,c),
(591,920,o),
(631,930,o),
(685,930,c),
(685,1110,l),
(633,1110,o),
(557,1075,o),
(519,1010,c),
(481,1064,o),
(419,1110,o),
(317,1110,cs),
(158,1110,o),
(61,996,o),
(61,832,cs),
(61,534,ls),
(61,421,o),
(103,344,o),
(177,296,c),
(116,264,o),
(51,214,o),
(51,132,cs),
(51,46,o),
(107,4,o),
(173,-14,c),
(126,-27,o),
(15,-95,o),
(15,-200,cs),
(15,-339,o),
(169,-392,o),
(339,-392,cs)
);
},
{
closed = 1;
nodes = (
(249,-222,o),
(211,-188,o),
(211,-146,cs),
(211,-104,o),
(243,-74,o),
(285,-50,c),
(369,-70,ls),
(439,-87,o),
(467,-97,o),
(467,-148,cs),
(467,-199,o),
(409,-222,o),
(343,-222,cs)
);
},
{
closed = 1;
nodes = (
(276,426,o),
(259,455,o),
(259,514,cs),
(259,834,ls),
(259,885,o),
(274,924,o),
(319,924,cs),
(364,924,o),
(379,887,o),
(379,834,cs),
(379,514,ls),
(379,455,o),
(362,426,o),
(319,426,cs)
);
}
);
width = 690;
}
);
unicode = 103;
},
{
color = 3;
glyphname = g.ss01;
lastChange = "2022-06-13 15:24:57 +0000";
layers = (
{
anchors = (
{
name = bottom;
pos = (292,-376);
},
{
name = top;
pos = (304,1094);
}
);
layerId = "1AB499B8-18A8-432D-A211-B6882CCB886D";
shapes = (
{
closed = 1;
nodes = (
(426,-376,o),
(558,-259,o),
(558,-74,cs),
(558,129,l),
(355,129,l),
(355,-72,ls),
(355,-159,o),
(314,-197,o),
(228,-197,cs),
(167,-197,o),
(124,-188,o),
(95,-173,c),
(95,-353,l),
(114,-363,o),
(162,-376,o),
(235,-376,cs)
);
},
{
ref = a.ss01;
}
);
width = 608;
}
);
},
{
color = 2;
glyphname = h;
kernRight = b;
lastChange = "2022-06-13 15:24:57 +0000";
layers = (
{
anchors = (
{
name = bottom;
pos = (312,0);
},
{
name = center;
pos = (308,548);
},
{
name = top;
pos = (308,1094);
}
);
layerId = "1AB499B8-18A8-432D-A211-B6882CCB886D";
shapes = (
{
closed = 1;
nodes = (
(252,0,l),
(252,845,ls),
(252,883,o),
(303,921,o),
(331,921,cs),
(355,921,o),
(376,894,o),
(376,854,cs),
(376,0,l),
(578,0,l),
(578,896,ls),
(578,1014,o),
(526,1110,o),
(426,1110,cs),
(364,1110,o),
(287,1055,o),
(252,1019,c),
(252,1470,l),
(50,1470,l),
(50,0,l)
);
}
);
width = 628;
}
);
unicode = 104;
},
{
color = 3;
glyphname = hbar;
lastChange = "2022-06-13 15:24:57 +0000";
layers = (
{
layerId = "1AB499B8-18A8-432D-A211-B6882CCB886D";
shapes = (
{
closed = 1;
nodes = (
(399,1220,l),
(399,1362,l),
(0,1362,l),
(0,1220,l)
);
},
{
ref = h;
}
);
width = 618;
}
);
unicode = 295;
},
{
color = 2;
glyphname = i;
kernLeft = l;
kernRight = l;
lastChange = "2022-06-13 15:24:57 +0000";
layers = (
{
anchors = (
{
name = bottom;
pos = (161,0);
}
);
layerId = "1AB499B8-18A8-432D-A211-B6882CCB886D";
shapes = (
{
closed = 1;
nodes = (
(262,0,l),
(262,1094,l),
(60,1094,l),
(60,0,l)
);
},
{
closed = 1;
nodes = (
(262,1268,l),
(262,1470,l),
(60,1470,l),
(60,1268,l)
);
}
);
width = 322;
}
);
unicode = 105;
},
{
color = 2;
glyphname = idotless;
lastChange = "2022-06-13 15:24:57 +0000";
layers = (
{
anchors = (
{
name = bottom;
pos = (181,0);
},
{
name = ogonek;
pos = (282,0);
},
{
name = top;
pos = (181,1094);
}
);
layerId = "1AB499B8-18A8-432D-A211-B6882CCB886D";
shapes = (
{
closed = 1;
nodes = (
(282,0,l),
(282,1094,l),
(80,1094,l),
(80,0,l)
);
}
);
width = 362;
}
);
unicode = 305;
},
{
color = 2;
glyphname = ij;
lastChange = "2022-06-13 15:24:57 +0000";
layers = (
{
layerId = "1AB499B8-18A8-432D-A211-B6882CCB886D";
shapes = (
{
closed = 1;
nodes = (
(596,-376,o),
(638,-234,o),
(638,-28,cs),
(638,1094,l),
(436,1094,l),
(436,-26,ls),
(436,-112,o),
(434,-186,o),
(374,-186,cs),
(363,-186,o),
(326,-181,o),
(318,-178,c),
(318,-364,l),
(347,-374,o),
(371,-376,o),
(406,-376,cs)
);
},
{
closed = 1;
nodes = (
(282,0,l),
(282,1094,l),
(80,1094,l),
(80,0,l)
);
},
{
closed = 1;
nodes = (
(282,1268,l),
(282,1470,l),
(80,1470,l),
(80,1268,l)
);
},
{
closed = 1;
nodes = (
(638,1268,l),
(638,1470,l),
(436,1470,l),
(436,1268,l)
);
}
);
width = 718;
}
);
unicode = 307;
},
{
color = 2;
glyphname = imacron;
lastChange = "2022-06-13 15:24:57 +0000";
layers = (
{
layerId = "1AB499B8-18A8-432D-A211-B6882CCB886D";
shapes = (
{
closed = 1;
nodes = (
(282,0,l),
(282,1094,l),
(80,1094,l),
(80,0,l)
);
},
{
closed = 1;
nodes = (
(378,1284,l),
(378,1442,l),
(-10,1442,l),
(-10,1284,l)
);
}
);
width = 362;
}
);
unicode = 299;
},
{
color = 2;
glyphname = j;
lastChange = "2022-06-13 15:24:57 +0000";
layers = (
{
layerId = "1AB499B8-18A8-432D-A211-B6882CCB886D";
shapes = (
{
closed = 1;
nodes = (
(234,-376,o),
(276,-234,o),
(276,-28,cs),
(276,1094,l),
(74,1094,l),
(74,-26,ls),
(74,-107,o),
(74,-186,o),
(12,-186,cs),
(-10,-186,o),
(-36,-181,o),
(-44,-176,c),
(-44,-362,l),
(-25,-371,o),
(7,-376,o),
(44,-376,cs)
);
},
{
closed = 1;
nodes = (
(276,1268,l),
(276,1470,l),
(74,1470,l),
(74,1268,l)
);
}
);
width = 336;
}
);
metricRight = i;
unicode = 106;
},
{
color = 2;
glyphname = k;
lastChange = "2022-06-13 15:24:57 +0000";
layers = (
{
anchors = (
{
name = bottom;
pos = (284,0);
}
);
layerId = "1AB499B8-18A8-432D-A211-B6882CCB886D";
shapes = (
{
closed = 1;
nodes = (
(252,0,l),
(252,378,l),
(284,458,l),
(286,458,l),
(288,442,l),
(388,0,l),
(592,0,l),
(408,738,l),
(564,1094,l),
(372,1094,l),
(274,808,l),
(262,772,l),
(252,772,l),
(252,808,l),
(252,1470,l),
(50,1470,l),
(50,0,l)
);
}
);
width = 607;
}
);
metricLeft = h;
unicode = 107;
},
{
color = 2;
glyphname = l;
kernLeft = l;
kernRight = l;
lastChange = "2022-06-13 15:24:57 +0000";
layers = (
{
anchors = (
{
name = bottom;
pos = (162,0);
},
{
name = center;
pos = (161,735);
},
{
name = top;
pos = (162,1470);
},
{
name = topright;
pos = (302,1094);
}
);
layerId = "1AB499B8-18A8-432D-A211-B6882CCB886D";
shapes = (
{
closed = 1;
nodes = (
(262,0,l),
(262,1470,l),
(60,1470,l),
(60,0,l)
);
}
);
width = 322;
}
);
unicode = 108;
},
{
color = 3;
glyphname = lslash;
lastChange = "2022-06-13 15:24:57 +0000";
layers = (
{
layerId = "1AB499B8-18A8-432D-A211-B6882CCB886D";
shapes = (
{
closed = 1;
nodes = (
(45,539,l),
(410,790,l),
(322,923,l),
(-43,672,l)
);
},
{
ref = l;
}
);
width = 362;
}
);
unicode = 322;
},
{
color = 2;
glyphname = m;
kernLeft = n;
kernRight = n;
lastChange = "2022-06-13 15:24:57 +0000";
layers = (
{
anchors = (
{
name = bottom;
pos = (469,0);
},
{
name = top;
pos = (469,1094);
}
);
layerId = "1AB499B8-18A8-432D-A211-B6882CCB886D";
shapes = (
{
closed = 1;
nodes = (
(252,0,l),
(252,862,l),
(266,885,o),
(297,914,o),
(328,914,cs),
(358,914,o),
(382,898,o),
(382,856,cs),
(382,0,l),
(572,0,l),
(572,862,l),
(586,885,o),
(617,914,o),
(648,914,cs),
(678,914,o),
(702,898,o),
(702,856,cs),
(702,0,l),
(892,0,l),
(892,896,ls),
(892,999,o),
(840,1110,o),
(740,1110,cs),
(676,1110,o),
(613,1047,o),
(556,988,c),
(534,1052,o),
(492,1110,o),
(420,1110,cs),
(369,1110,o),
(317,1062,o),
(252,1002,c),
(252,1094,l),
(50,1094,l),
(50,0,l)
);
}
);
width = 942;
}
);
metricLeft = h;
metricRight = n;
unicode = 109;
},
{
color = 2;
glyphname = n;
kernLeft = n;
kernRight = n;
lastChange = "2022-06-13 15:24:57 +0000";
layers = (
{
anchors = (
{
name = bottom;
pos = (308,0);
},
{
name = top;
pos = (308,1094);
}
);
layerId = "1AB499B8-18A8-432D-A211-B6882CCB886D";
shapes = (
{
closed = 1;
nodes = (
(252,0,l),
(252,862,l),
(269,890,o),
(289,914,o),
(318,914,cs),
(352,914,o),
(366,898,o),
(366,856,cs),
(366,0,l),
(568,0,l),
(568,896,ls),
(568,999,o),
(516,1110,o),
(416,1110,cs),
(365,1110,o),
(300,1048,o),
(252,1002,c),
(252,1094,l),
(50,1094,l),
(50,0,l)
);
}
);
width = 618;
}
);
metricLeft = h;
unicode = 110;
},
{
color = 3;
glyphname = eng;
lastChange = "2022-06-13 15:24:57 +0000";
layers = (
{
layerId = "1AB499B8-18A8-432D-A211-B6882CCB886D";
shapes = (
{
closed = 1;
nodes = (
(526,-376,o),
(568,-234,o),
(568,-28,cs),
(568,113,l),
(366,113,l),
(366,-26,ls),
(366,-107,o),
(366,-186,o),
(304,-186,cs),
(282,-186,o),
(256,-181,o),
(248,-176,c),
(248,-362,l),
(267,-371,o),
(299,-376,o),
(336,-376,cs)
);
},
{
ref = n;
}
);
width = 618;
}
);
unicode = 331;
},
{
color = 2;
glyphname = o;
kernLeft = o;
kernRight = o;
lastChange = "2022-06-13 15:24:57 +0000";
layers = (
{
anchors = (
{
name = bottom;
pos = (299,0);
},
{
name = center;
pos = (299,547);
},
{
name = ogonek;
pos = (476,59);
},
{
name = top;
pos = (300,1094);
},
{
name = topright;
pos = (398,1081);
}
);
layerId = "1AB499B8-18A8-432D-A211-B6882CCB886D";
shapes = (
{
closed = 1;
nodes = (
(459,-14,o),
(558,107,o),
(558,274,cs),
(558,822,ls),
(558,989,o),
(459,1110,o),
(299,1110,cs),
(138,1110,o),
(40,989,o),
(40,822,cs),
(40,274,ls),
(40,107,o),
(138,-14,o),
(299,-14,cs)
);
},
{
closed = 1;
nodes = (
(247,162,o),
(230,207,o),
(230,274,cs),
(230,822,ls),
(230,889,o),
(247,934,o),
(299,934,cs),
(351,934,o),
(368,888,o),
(368,822,cs),
(368,274,ls),
(368,208,o),
(351,162,o),
(299,162,cs)
);
}
);
width = 598;
}
);
unicode = 111;
},
{
color = 3;
glyphname = oslash;
kernLeft = o;
kernRight = o;
lastChange = "2022-06-13 15:24:57 +0000";
layers = (
{
anchors = (
{
name = top;
pos = (299,1094);
}
);
layerId = "1AB499B8-18A8-432D-A211-B6882CCB886D";
shapes = (
{
closed = 1;
nodes = (
(188,-36,l),
(540,1093,l),
(426,1143,l),
(69,14,l)
);
},
{
ref = o;
}
);
width = 598;
}
);
unicode = 248;
},
{
color = 3;
glyphname = oe;
kernLeft = o;
kernRight = e;
lastChange = "2022-06-13 15:24:57 +0000";
layers = (
{
anchors = (
{
name = bottom;
pos = (467,0);
},
{
name = top;
pos = (467,1094);
}
);
layerId = "1AB499B8-18A8-432D-A211-B6882CCB886D";
shapes = (
{
closed = 1;
nodes = (
(459,-14,o),
(558,107,o),
(558,274,cs),
(558,822,ls),
(558,989,o),
(459,1110,o),
(299,1110,cs),
(138,1110,o),
(40,989,o),
(40,822,cs),
(40,274,ls),
(40,107,o),
(138,-14,o),
(299,-14,cs)
);
},
{
closed = 1;
nodes = (
(247,162,o),
(230,207,o),
(230,274,cs),
(230,822,ls),
(230,889,o),
(247,934,o),
(299,934,cs),
(351,934,o),
(368,888,o),
(368,822,cs),
(368,274,ls),
(368,208,o),
(351,162,o),
(299,162,cs)
);
},
{
pos = (331,0);
ref = e;
}
);
width = 933;
}
);
metricLeft = o;
metricRight = e;
unicode = 339;
},
{
color = 2;
glyphname = p;
kernLeft = n;
kernRight = o;
lastChange = "2022-06-13 15:24:57 +0000";
layers = (
{
anchors = (
{
name = bottom;
pos = (305,0);
},
{
name = top;
pos = (305,1094);
}
);
layerId = "1AB499B8-18A8-432D-A211-B6882CCB886D";
shapes = (
{
closed = 1;
nodes = (
(252,-376,l),
(252,72,l),
(303,25,o),
(356,-16,o),
(412,-16,cs),
(512,-16,o),
(568,91,o),
(568,198,cs),
(568,896,ls),
(568,1001,o),
(515,1110,o),
(412,1110,cs),
(361,1110,o),
(303,1070,o),
(252,1022,c),
(252,1094,l),
(50,1094,l),
(50,-376,l)
);
},
{
closed = 1;
nodes = (
(292,174,o),
(252,208,o),
(252,240,cs),
(252,854,ls),
(252,892,o),
(292,920,o),
(322,920,cs),
(352,920,o),
(366,894,o),
(366,844,cs),
(366,230,ls),
(366,192,o),
(352,174,o),
(322,174,cs)
);
}
);
width = 608;
}
);
metricLeft = n;
metricRight = o;
unicode = 112;
},
{
color = 3;
glyphname = thorn;
kernLeft = p;
kernRight = o;
lastChange = "2022-06-13 15:24:57 +0000";
layers = (
{
layerId = "1AB499B8-18A8-432D-A211-B6882CCB886D";
shapes = (
{
closed = 1;
nodes = (
(50,1069,l),
(252,1069,l),
(252,1470,l),
(50,1470,l)
);
},
{
ref = p;
}
);
width = 608;
}
);
unicode = 254;
},
{
color = 2;
glyphname = q;
kernLeft = o;
lastChange = "2022-06-13 15:24:57 +0000";
layers = (
{
anchors = (
{
name = bottom;
pos = (303,0);
},
{
name = top;
pos = (303,1094);
}
);
layerId = "1AB499B8-18A8-432D-A211-B6882CCB886D";
shapes = (
{
closed = 1;
nodes = (
(558,-376,l),
(558,1094,l),
(356,1094,l),
(356,1022,l),
(305,1070,o),
(247,1110,o),
(196,1110,cs),
(93,1110,o),
(40,1001,o),
(40,896,cs),
(40,198,ls),
(40,91,o),
(96,-16,o),
(196,-16,cs),
(252,-16,o),
(305,25,o),
(356,72,c),
(356,-376,l)
);
},
{
closed = 1;
nodes = (
(256,174,o),
(242,192,o),
(242,230,cs),
(242,844,ls),
(242,894,o),
(256,920,o),
(286,920,cs),
(316,920,o),
(356,892,o),
(356,854,cs),
(356,240,ls),
(356,208,o),
(316,174,o),
(286,174,cs)
);
}
);
width = 608;
}
);
metricLeft = o;
metricRight = n;
unicode = 113;
},
{
color = 2;
glyphname = r;
kernLeft = n;
kernRight = r;
lastChange = "2022-06-13 15:24:57 +0000";
layers = (
{
anchors = (
{
name = bottom;
pos = (216,0);
},
{
name = top;
pos = (281,1094);
}
);
layerId = "1AB499B8-18A8-432D-A211-B6882CCB886D";
shapes = (
{
closed = 1;
nodes = (
(252,0,l),
(252,760,ls),
(252,842,o),
(310,894,o),
(398,894,cs),
(416,894,o),
(436,892,o),
(454,886,c),
(454,1110,l),
(364,1110,o),
(263,1051,o),
(252,972,c),
(252,1094,l),
(50,1094,l),
(50,0,l)
);
}
);
width = 474;
}
);
metricLeft = n;
unicode = 114;
},
{
color = 2;
glyphname = s;
kernLeft = s;
lastChange = "2022-06-13 15:24:57 +0000";
layers = (
{
anchors = (
{
name = bottom;
pos = (302,0);
},
{
name = top;
pos = (302,1094);
}
);
layerId = "1AB499B8-18A8-432D-A211-B6882CCB886D";
shapes = (
{
closed = 1;
nodes = (
(474,-16,o),
(570,108,o),
(570,284,cs),
(570,418,o),
(467,531,o),
(363,633,cs),
(280,714,o),
(248,760,o),
(248,834,cs),
(248,897,o),
(266,942,o),
(314,942,cs),
(373,942,o),
(380,883,o),
(380,814,c),
(568,814,l),
(568,1006,o),
(503,1110,o),
(310,1110,cs),
(150,1110,o),
(60,999,o),
(60,834,cs),
(60,694,o),
(140,600,o),
(248,493,cs),
(310,431,o),
(382,348,o),
(382,274,cs),
(382,210,o),
(370,152,o),
(312,152,cs),
(244,152,o),
(218,228,o),
(218,318,c),
(30,318,l),
(30,119,o),
(122,-16,o),
(312,-16,cs)
);
}
);
width = 600;
}
);
unicode = 115;
},
{
color = 2;
glyphname = germandbls;
kernLeft = l;
kernRight = o;
lastChange = "2022-06-13 15:24:57 +0000";
layers = (
{
anchors = (
{
name = bottom;
pos = (354,0);
},
{
name = top;
pos = (354,1094);
}
);
layerId = "1AB499B8-18A8-432D-A211-B6882CCB886D";
shapes = (
{
closed = 1;
nodes = (
(262,0,l),
(262,1206,ls),
(262,1260,o),
(288,1306,o),
(338,1306,cs),
(396,1306,o),
(418,1262,o),
(418,1208,cs),
(418,1138,o),
(380,1094,o),
(334,1094,c),
(334,956,l),
(374,956,o),
(408,942,o),
(428,886,cs),
(448,830,o),
(458,732,o),
(458,562,cs),
(458,402,o),
(448,308,o),
(428,254,cs),
(408,200,o),
(374,188,o),
(334,188,c),
(334,0,l),
(438,0,o),
(520,18,o),
(576,98,cs),
(632,178,o),
(660,320,o),
(660,562,cs),
(660,708,o),
(646,816,o),
(620,892,cs),
(594,968,o),
(558,1012,o),
(512,1038,c),
(566,1078,o),
(598,1136,o),
(598,1208,cs),
(598,1372,o),
(504,1486,o),
(334,1486,cs),
(169,1486,o),
(60,1381,o),
(60,1206,cs),
(60,0,l)
);
}
);
width = 700;
}
);
metricLeft = l;
metricRight = o;
unicode = 223;
},
{
color = 2;
glyphname = longs;
lastChange = "2022-06-13 15:24:57 +0000";
layers = (
{
layerId = "1AB499B8-18A8-432D-A211-B6882CCB886D";
shapes = (
{
closed = 1;
nodes = (
(190,0,l),
(190,1130,ls),
(190,1256,o),
(226,1290,o),
(322,1290,cs),
(352,1290,o),
(380,1288,o),
(408,1282,c),
(432,1438,l),
(380,1448,o),
(332,1454,o),
(290,1454,cs),
(140,1454,o),
(36,1388,o),
(36,1146,cs),
(36,0,l)
);
}
);
width = 464;
}
);
unicode = 383;
},
{
color = 2;
glyphname = t;
lastChange = "2022-06-13 15:24:57 +0000";
layers = (
{
anchors = (
{
name = bottom;
pos = (298,0);
},
{
name = center;
pos = (226,669);
},
{
name = top;
pos = (235,1363);
},
{
name = topright;
pos = (460,1094);
}
);
layerId = "1AB499B8-18A8-432D-A211-B6882CCB886D";
shapes = (
{
closed = 1;
nodes = (
(399,-16,o),
(425,-8,o),
(452,3,c),
(452,188,l),
(440,183,o),
(420,178,o),
(395,178,cs),
(337,178,o),
(314,217,o),
(314,303,cs),
(314,912,l),
(453,912,l),
(453,1094,l),
(314,1094,l),
(314,1364,l),
(112,1364,l),
(112,1094,l),
(10,1094,l),
(10,912,l),
(112,912,l),
(112,332,ls),
(112,115,o),
(154,-16,o),
(344,-16,cs)
);
}
);
width = 463;
}
);
metricLeft = f;
metricRight = f;
unicode = 116;
},
{
color = 3;
glyphname = tbar;
lastChange = "2022-06-13 15:24:57 +0000";
layers = (
{
layerId = "1AB499B8-18A8-432D-A211-B6882CCB886D";
shapes = (
{
closed = 1;
nodes = (
(430,589,l),
(430,743,l),
(50,743,l),
(50,589,l)
);
},
{
ref = t;
}
);
width = 493;
}
);
unicode = 359;
},
{
color = 2;
glyphname = u;
kernLeft = o;
kernRight = u;
lastChange = "2022-06-13 15:24:57 +0000";
layers = (
{
anchors = (
{
name = bottom;
pos = (309,0);
},
{
name = ogonek;
pos = (568,0);
},
{
name = top;
pos = (312,1094);
},
{
name = topright;
pos = (526,1094);
}
);
layerId = "1AB499B8-18A8-432D-A211-B6882CCB886D";
shapes = (
{
closed = 1;
nodes = (
(253,-16,o),
(318,46,o),
(366,92,c),
(366,0,l),
(568,0,l),
(568,1094,l),
(366,1094,l),
(366,232,l),
(349,204,o),
(329,180,o),
(300,180,cs),
(266,180,o),
(252,196,o),
(252,238,cs),
(252,1094,l),
(50,1094,l),
(50,198,ls),
(50,95,o),
(102,-16,o),
(202,-16,cs)
);
}
);
width = 618;
}
);
metricLeft = n;
metricRight = n;
unicode = 117;
},
{
color = 2;
glyphname = v;
kernLeft = v;
kernRight = v;
lastChange = "2022-06-13 15:24:57 +0000";
layers = (
{
anchors = (
{
name = bottom;
pos = (293,0);
},
{
name = top;
pos = (293,1094);
}
);
layerId = "1AB499B8-18A8-432D-A211-B6882CCB886D";
shapes = (
{
closed = 1;
nodes = (
(393,0,l),
(571,1094,l),
(375,1094,l),
(307,460,l),
(301,350,l),
(285,350,l),
(279,460,l),
(211,1094,l),
(15,1094,l),
(193,0,l)
);
}
);
width = 586;
}
);
unicode = 118;
},
{
color = 2;
glyphname = w;
kernLeft = v;
kernRight = v;
lastChange = "2022-06-13 15:24:57 +0000";
layers = (
{
anchors = (
{
name = bottom;
pos = (437,0);
},
{
name = top;
pos = (437,1094);
}
);
layerId = "1AB499B8-18A8-432D-A211-B6882CCB886D";
shapes = (
{
closed = 1;
nodes = (
(345,0,l),
(423,522,l),
(433,624,l),
(441,624,l),
(451,522,l),
(529,0,l),
(697,0,l),
(859,1094,l),
(665,1094,l),
(611,522,l),
(603,410,l),
(591,410,l),
(581,522,l),
(497,1094,l),
(377,1094,l),
(293,522,l),
(283,410,l),
(271,410,l),
(263,522,l),
(209,1094,l),
(15,1094,l),
(177,0,l)
);
}
);
width = 874;
}
);
metricLeft = v;
metricRight = v;
unicode = 119;
},
{
color = 2;
glyphname = x;
kernLeft = x;
kernRight = x;
lastChange = "2022-06-13 15:24:57 +0000";
layers = (
{
anchors = (
{
name = bottom;
pos = (301,0);
},
{
name = top;
pos = (301,1094);
}
);
layerId = "1AB499B8-18A8-432D-A211-B6882CCB886D";
shapes = (
{
closed = 1;
nodes = (
(211,0,l),
(293,286,l),
(299,326,l),
(303,326,l),
(309,286,l),
(391,0,l),
(587,0,l),
(399,564,l),
(571,1094,l),
(381,1094,l),
(309,828,l),
(303,788,l),
(299,788,l),
(293,828,l),
(221,1094,l),
(31,1094,l),
(203,564,l),
(15,0,l)
);
}
);
width = 602;
}
);
metricLeft = v;
metricRight = v;
unicode = 120;
},
{
color = 2;
glyphname = y;
kernLeft = v;
kernRight = v;
lastChange = "2022-06-13 15:24:57 +0000";
layers = (
{
anchors = (
{
name = bottom;
pos = (533,0);
},
{
name = top;
pos = (301,1094);
}
);
layerId = "1AB499B8-18A8-432D-A211-B6882CCB886D";
shapes = (
{
closed = 1;
nodes = (
(265,-392,o),
(370,-259,o),
(393,-82,c),
(587,1094,l),
(389,1094,l),
(309,412,l),
(305,336,l),
(297,336,l),
(293,412,l),
(213,1094,l),
(15,1094,l),
(201,-32,l),
(201,-52,o),
(201,-82,o),
(195,-102,cs),
(176,-169,o),
(131,-212,o),
(56,-212,cs),
(51,-212,o),
(27,-210,o),
(23,-208,c),
(23,-387,l),
(46,-391,o),
(71,-392,o),
(89,-392,cs)
);
}
);
width = 602;
}
);
metricLeft = v;
metricRight = v;
unicode = 121;
},
{
color = 2;
glyphname = z;
lastChange = "2022-06-13 15:24:57 +0000";
layers = (
{
anchors = (
{
name = bottom;
pos = (298,0);
},
{
name = center;
pos = (298,547);
},
{
name = top;
pos = (298,1094);
}
);
layerId = "1AB499B8-18A8-432D-A211-B6882CCB886D";
shapes = (
{
closed = 1;
nodes = (
(542,0,l),
(542,184,l),
(264,184,l),
(542,930,l),
(542,1094,l),
(94,1094,l),
(94,910,l),
(328,910,l),
(50,164,l),
(50,0,l)
);
}
);
width = 592;
}
);
metricLeft = n;
metricRight = n;
unicode = 122;
},
{
color = 3;
glyphname = fi;
kernLeft = f;
kernRight = i;
lastChange = "2022-06-13 15:24:57 +0000";
layers = (
{
anchors = (
{
name = caret_1;
pos = (377,0);
}
);
layerId = "1AB499B8-18A8-432D-A211-B6882CCB886D";
shapes = (
{
closed = 1;
nodes = (
(405,1094,l),
(405,912,l),
(472,912,l),
(472,0,l),
(674,0,l),
(674,1094,l)
);
},
{
ref = f;
}
);
width = 734;
}
);
metricLeft = f;
metricRight = i;
unicode = 64257;
},
{
color = 2;
glyphname = fl;
kernLeft = f;
kernRight = l;
lastChange = "2022-06-13 15:24:57 +0000";
layers = (
{
anchors = (
{
name = caret_1;
pos = (367,0);
}
);
layerId = "1AB499B8-18A8-432D-A211-B6882CCB886D";
shapes = (
{
closed = 1;
nodes = (
(314,0,l),
(314,912,l),
(416,912,l),
(416,1094,l),
(314,1094,l),
(314,1172,ls),
(314,1238,o),
(336,1302,o),
(396,1302,cs),
(426,1302,o),
(444,1300,o),
(462,1298,c),
(462,0,l),
(664,0,l),
(664,1470,l),
(504,1470,l),
(478,1477,o),
(418,1484,o),
(360,1484,cs),
(158,1484,o),
(112,1342,o),
(112,1124,cs),
(112,1094,l),
(10,1094,l),
(10,912,l),
(112,912,l),
(112,0,l)
);
}
);
width = 724;
}
);
metricLeft = f;
metricRight = l;
unicode = 64258;
},
{
color = 2;
glyphname = ordfeminine;
lastChange = "2022-06-13 15:24:57 +0000";
layers = (
{
layerId = "1AB499B8-18A8-432D-A211-B6882CCB886D";
shapes = (
{
closed = 1;
nodes = (
(163,539,o),
(191,558,o),
(210,591,c),
(217,591,l),
(217,571,o),
(221,554,o),
(226,547,c),
(325,547,l),
(320,585,o),
(318,609,o),
(318,642,cs),
(318,978,ls),
(318,1048,o),
(264,1102,o),
(195,1102,cs),
(120,1102,o),
(59,1037,o),
(59,956,cs),
(59,933,l),
(160,933,l),
(160,998,o),
(166,1014,o),
(189,1014,cs),
(210,1014,o),
(217,1001,o),
(217,964,cs),
(217,904,l),
(204,892,o),
(189,881,o),
(169,871,cs),
(85,828,o),
(48,768,o),
(48,674,cs),
(48,586,o),
(76,539,o),
(129,539,cs)
);
},
{
closed = 1;
nodes = (
(155,638,o),
(147,653,o),
(147,689,cs),
(147,745,o),
(175,791,o),
(217,810,c),
(217,671,ls),
(217,654,o),
(197,638,o),
(175,638,cs)
);
}
);
width = 369;
}
);
unicode = 170;
},
{
color = 2;
glyphname = ordmasculine;
lastChange = "2022-06-13 15:24:57 +0000";
layers = (
{
layerId = "1AB499B8-18A8-432D-A211-B6882CCB886D";
shapes = (
{
closed = 1;
nodes = (
(330,930,o),
(396,1011,o),
(396,1122,cs),
(396,1288,ls),
(396,1399,o),
(330,1480,o),
(223,1480,cs),
(116,1480,o),
(50,1399,o),
(50,1288,cs),
(50,1122,ls),
(50,1011,o),
(116,930,o),
(223,930,cs)
);
},
{
closed = 1;
nodes = (
(188,1048,o),
(177,1078,o),
(177,1122,cs),
(177,1288,ls),
(177,1332,o),
(188,1362,o),
(223,1362,cs),
(258,1362,o),
(269,1332,o),
(269,1288,cs),
(269,1122,ls),
(269,1078,o),
(258,1048,o),
(223,1048,cs)
);
}
);
width = 446;
}
);
unicode = 186;
},
{
color = 4;
glyphname = "hamza-ar";
lastChange = "2022-09-15 19:58:37 +0000";
layers = (
{
layerId = "1AB499B8-18A8-432D-A211-B6882CCB886D";
shapes = (
{
closed = 1;
nodes = (
(500,214,l),
(500,411,l),
(309,351,l),
(252,379,o),
(213,436,o),
(213,484,cs),
(213,539,o),
(244,564,o),
(289,564,cs),
(337,564,o),
(368,540,o),
(386,528,c),
(466,692,l),
(424,721,o),
(358,764,o),
(279,764,cs),
(149,764,o),
(73,638,o),
(73,504,cs),
(73,426,o),
(98,354,o),
(133,296,c),
(60,273,l),
(60,76,l)
);
}
);
width = 560;
}
);
unicode = 1569;
},
{
color = 4;
glyphname = "alef-ar";
kernLeft = alef;
kernRight = alef;
lastChange = "2022-09-15 19:58:56 +0000";
layers = (
{
anchors = (
{
name = bottom;
pos = (198,0);
},
{
name = top;
pos = (158,1320);
}
);
layerId = "1AB499B8-18A8-432D-A211-B6882CCB886D";
shapes = (
{
closed = 1;
nodes = (
(288,754,ls),
(288,934,o),
(288,1190.218,o),
(245.857,1379.862,c),
(70.143,1332.138,l),
(108,1161.782,o),
(108,934,o),
(108,754,cs),
(108,0,l),
(288,0,l)
);
}
);
width = 388;
}
);
unicode = 1575;
},
{
color = 4;
glyphname = "alef-ar.ss01";
kernLeft = alef;
kernRight = alef;
lastChange = "2022-09-15 19:59:10 +0000";
layers = (
{
anchors = (
{
name = bottom;
pos = (198,0);
},
{
name = top;
pos = (158,1255);
}
);
layerId = "1AB499B8-18A8-432D-A211-B6882CCB886D";
shapes = (
{
closed = 1;
nodes = (
(288,653,ls),
(288,833,o),
(288,1089.218,o),
(245.857,1278.862,c),
(70.143,1231.138,l),
(108,1060.782,o),
(108,833,o),
(108,653,cs),
(108,0,l),
(288,0,l)
);
}
);
width = 388;
}
);
},
{
color = 4;
glyphname = "alef-ar.fina";
kernLeft = alef;
lastChange = "2022-08-22 20:58:25 +0000";
layers = (
{
anchors = (
{
name = bottom;
pos = (200,0);
},
{
name = entry;
pos = (396,220);
},
{
name = top;
pos = (158,1320);
}
);
hints = (
{
name = _cap.strokebutt;
origin = (0,14);
type = Cap;
}
);
layerId = "1AB499B8-18A8-432D-A211-B6882CCB886D";
shapes = (
{
closed = 1;
nodes = (
(310,220,o),
(288,246,o),
(288,336,cs),
(288,754,ls),
(288,934,o),
(288,1190,o),
(246,1380,c),
(70,1332,l),
(108,1162,o),
(108,934,o),
(108,754,cs),
(108,336,ls),
(108,130,o),
(214,0,o),
(396,0,c),
(396,220,l)
);
}
);
width = 396;
}
);
metricLeft = "alef-ar";
metricRight = "behDotless-ar.medi";
},
{
color = 4;
glyphname = "alef-ar.fina.ss01";
kernLeft = alef;
lastChange = "2022-08-22 19:13:43 +0000";
layers = (
{
anchors = (
{
name = bottom;
pos = (190,0);
},
{
name = entry;
pos = (376,220);
},
{
name = top;
pos = (158,1254);
}
);
hints = (
{
name = _cap.strokebutt;
origin = (0,14);
type = Cap;
}
);
layerId = "1AB499B8-18A8-432D-A211-B6882CCB886D";
shapes = (
{
closed = 1;
nodes = (
(310,220,o),
(288,246,o),
(288,336,cs),
(288,653,ls),
(288,833,o),
(288,1089,o),
(246,1279,c),
(70,1231,l),
(108,1061,o),
(108,833,o),
(108,653,cs),
(108,336,ls),
(108,140,o),
(224,0,o),
(376,0,c),
(376,220,l)
);
}
);
width = 376;
}
);
metricLeft = "alef-ar";
metricRight = "behDotless-ar.medi";
},
{
color = 4;
glyphname = "alefHamzaabove-ar";
kernLeft = alef2;
kernRight = alef2;
lastChange = "2022-09-15 19:59:35 +0000";
layers = (
{
anchors = (
{
name = bottom;
pos = (176,0);
},
{
name = top;
pos = (170,1692);
}
);
layerId = "1AB499B8-18A8-432D-A211-B6882CCB886D";
shapes = (
{
closed = 1;
nodes = (
(286,698,ls),
(286,878,o),
(286,1074,o),
(244,1264,c),
(68,1216,l),
(106,1046,o),
(106,878,o),
(106,698,cs),
(106,0,l),
(286,0,l)
);
},
{
closed = 1;
nodes = (
(346,1417,l),
(346,1540,l),
(192,1492,l),
(162,1508,o),
(133,1540,o),
(133,1569,cs),
(133,1602,o),
(157,1617,o),
(180,1617,cs),
(204,1617,o),
(220,1606,o),
(234,1596,c),
(292,1694,l),
(268,1711,o),
(230,1737,o),
(180,1737,cs),
(99,1737,o),
(43,1659,o),
(43,1569,cs),
(43,1530,o),
(58,1490,o),
(76,1456,c),
(5,1434,l),
(5,1311,l)
);
}
);
width = 351;
}
);
unicode = 1571;
},
{
color = 4;
glyphname = "alefHamzaabove-ar.fina";
kernLeft = alef2;
lastChange = "2022-09-15 19:59:50 +0000";
layers = (
{
anchors = (
{
name = bottom;
pos = (185,0);
},
{
name = top;
pos = (177,1692);
}
);
layerId = "1AB499B8-18A8-432D-A211-B6882CCB886D";
shapes = (
{
closed = 1;
nodes = (
(268,1711,o),
(230,1737,o),
(180,1737,cs),
(99,1737,o),
(43,1659,o),
(43,1569,cs),
(43,1530,o),
(58,1490,o),
(76,1456,c),
(5,1434,l),
(5,1311,l),
(346,1417,l),
(346,1540,l),
(192,1492,l),
(162,1508,o),
(133,1540,o),
(133,1569,cs),
(133,1602,o),
(157,1617,o),
(180,1617,cs),
(204,1617,o),
(220,1606,o),
(234,1596,c),
(292,1694,l)
);
},
{
pos = (25,0);
ref = "alef-ar.fina.ss01";
}
);
width = 401;
}
);
metricRight = "behDotless-ar.medi";
},
{
color = 4;
glyphname = "alefMadda-ar";
kernLeft = alef2;
kernRight = alef2;
lastChange = "2022-09-15 20:00:05 +0000";
layers = (
{
anchors = (
{
name = bottom;
pos = (284,0);
}
);
guides = (
{
angle = 90;
pos = (157,1246);
}
);
layerId = "1AB499B8-18A8-432D-A211-B6882CCB886D";
shapes = (
{
pos = (-30,554);
ref = "madda-ar";
},
{
closed = 1;
nodes = (
(194,1075.782,o),
(194,848,o),
(194,668,cs),
(194,0,l),
(374,0,l),
(374,668,ls),
(374,848,o),
(374,1104.218,o),
(331.857,1293.862,c),
(156.143,1246.138,l)
);
}
);
width = 500;
}
);
metricWidth = "";
unicode = 1570;
},
{
color = 4;
glyphname = "alefWasla-ar";
kernLeft = alef2;
kernRight = alef2;
lastChange = "2022-09-15 20:00:15 +0000";
layers = (
{
anchors = (
{
name = bottom;
pos = (219,0);
}
);
layerId = "1AB499B8-18A8-432D-A211-B6882CCB886D";
shapes = (
{
closed = 1;
nodes = (
(332,698,ls),
(332,878,o),
(332,1074.218,o),
(289.857,1263.862,c),
(114.143,1216.138,l),
(152,1045.782,o),
(152,878,o),
(152,698,cs),
(152,0,l),
(332,0,l)
);
},
{
pos = (-55,1143);
ref = "wasla-ar";
}
);
width = 449;
}
);
unicode = 1649;
},
{
color = 4;
glyphname = "behDotless-ar";
kernLeft = beakhar;
kernRight = be;
lastChange = "2022-09-15 20:01:03 +0000";
layers = (
{
anchors = (
{
name = bottom;
pos = (613,-50);
},
{
name = top;
pos = (585,470);
}
);
layerId = "1AB499B8-18A8-432D-A211-B6882CCB886D";
shapes = (
{
closed = 1;
nodes = (
(811,0,ls),
(1000,0,o),
(1141,142,o),
(1141,334,cs),
(1141,437,o),
(1112,574,o),
(1034,767,c),
(864,693,l),
(943,509,o),
(981,398,o),
(981,334,cs),
(981,255,o),
(926,220,o),
(811,220,cs),
(395,220,ls),
(257,220,o),
(210,277,o),
(210,374,cs),
(210,460,o),
(236,542,o),
(282,641,c),
(137,700,l),
(98,621,o),
(60,501,o),
(60,364,cs),
(60,173,o),
(189,1,o),
(394,0,cs)
);
}
);
width = 1201;
}
);
unicode = 1646;
},
{
color = 4;
glyphname = "behDotless-ar.fina";
kernLeft = beakhar;
lastChange = "2022-09-15 20:29:46 +0000";
layers = (
{
anchors = (
{
name = bottom;
pos = (622,-50);
},
{
name = entry;
pos = (1231,220);
},
{
name = top;
pos = (644,470);
}
);
guides = (
{
pos = (1200,0);
}
);
hints = (
{
name = _cap.strokebutt;
origin = (0,29);
type = Cap;
}
);
layerId = "1AB499B8-18A8-432D-A211-B6882CCB886D";
shapes = (
{
closed = 1;
nodes = (
(1141,220,o),
(1100,244,o),
(1111,294,cs),
(1152,474,l),
(976,522,l),
(923,289,ls),
(911,237,o),
(889,220,o),
(816,220,cs),
(395,220,ls),
(257,220,o),
(210,277,o),
(210,374,cs),
(210,460,o),
(236,542,o),
(282,641,c),
(137,700,l),
(98,621,o),
(60,501,o),
(60,364,cs),
(60,173,o),
(189,0,o),
(394,0,cs),
(816,0,ls),
(924,0,o),
(1007,53,o),
(1057,135,c),
(1087,55,o),
(1142,0,o),
(1231,0,c),
(1231,220,l)
);
}
);
width = 1231;
}
);
metricLeft = "behDotless-ar";
metricRight = "behDotless-ar.medi";
},
{
color = 4;
glyphname = "behDotless-ar.medi";
lastChange = "2022-09-15 20:02:27 +0000";
layers = (
{
anchors = (
{
name = bottom;
pos = (202,-50);
},
{
name = entry;
pos = (403,220);
},
{
name = exit;
pos = (0,220);
},
{
name = top;
pos = (202,664);
}
);
hints = (
{
name = _cap.strokebutt;
origin = (0,15);
type = Cap;
},
{
name = _cap.strokebutt;
origin = (0,8);
type = Cap;
}
);
layerId = "1AB499B8-18A8-432D-A211-B6882CCB886D";
shapes = (
{
closed = 1;
nodes = (
(309,220,o),
(283,246,o),
(283,302,cs),
(283,614,l),
(113,594,l),
(113,320,ls),
(113,244,o),
(87,220,o),
(0,220,c),
(0,0,l),
(103,0,o),
(183,51,o),
(232,129,c),
(262,52,o),
(317,0,o),
(403,0,c),
(403,220,l)
);
}
);
width = 403;
}
);
},
{
color = 4;
glyphname = "behDotless-ar.medi.ss01";
lastChange = "2022-09-15 20:02:43 +0000";
layers = (
{
anchors = (
{
name = bottom;
pos = (189,-50);
},
{
name = entry;
pos = (377,220);
},
{
name = exit;
pos = (0,220);
},
{
name = top;
pos = (189,810);
}
);
guides = (
{
angle = 186.7098;
pos = (262,745);
}
);
hints = (
{
name = _cap.strokebutt;
origin = (0,15);
type = Cap;
},
{
name = _cap.strokebutt;
origin = (0,8);
type = Cap;
}
);
layerId = "1AB499B8-18A8-432D-A211-B6882CCB886D";
shapes = (
{
closed = 1;
nodes = (
(316,220,o),
(301,244,o),
(294,334,cs),
(262,745,l),
(82,724,l),
(114,316,ls),
(118,264,o),
(98,220,o),
(0,220,c),
(0,0,l),
(74,0,o),
(131,55,o),
(163,138,c),
(209,51,o),
(285,0,o),
(377,0,c),
(377,220,l)
);
}
);
width = 377;
}
);
metricLeft = "behDotless-ar.medi";
metricRight = "behDotless-ar.medi";
},
{
color = 4;
glyphname = "behDotless-ar.init";
lastChange = "2022-08-22 17:31:03 +0000";
layers = (
{
anchors = (
{
name = bottom;
pos = (183,-50);
},
{
name = exit;
pos = (0,220);
},
{
name = top;
pos = (143,826);
}
);
guides = (
{
angle = 199.5271;
pos = (152,684);
}
);
hints = (
{
name = _cap.strokebutt;
origin = (0,12);
type = Cap;
}
);
layerId = "1AB499B8-18A8-432D-A211-B6882CCB886D";
shapes = (
{
closed = 1;
nodes = (
(180,0,o),
(297,123,o),
(297,324,cs),
(297,439,o),
(277,540,o),
(238,714,c),
(66,653,l),
(113,487,o),
(137,414,o),
(137,324,cs),
(137,236,o),
(97,220,o),
(0,220,c),
(0,0,l)
);
}
);
width = 357;
}
);
metricLeft = "behDotless-ar.medi";
},
{
color = 4;
glyphname = "behDotless-ar.init.ss01";
lastChange = "2022-08-17 07:57:43 +0000";
layers = (
{
anchors = (
{
name = bottom;
pos = (200,-50);
},
{
name = exit;
pos = (0,220);
},
{
name = top;
pos = (220,776);
}
);
hints = (
{
name = _cap.strokebutt;
origin = (0,12);
type = Cap;
}
);
layerId = "1AB499B8-18A8-432D-A211-B6882CCB886D";
shapes = (
{
closed = 1;
nodes = (
(288,0,o),
(400,128,o),
(400,324,cs),
(400,442,o),
(375,542,o),
(341,711,c),
(165,669,l),
(211,486,o),
(230,410,o),
(230,324,cs),
(230,239,o),
(192,220,o),
(0,220,c),
(0,0,l)
);
}
);
width = 460;
}
);
metricLeft = "behDotless-ar.medi";
},
{
color = 4;
glyphname = "hah-ar";
kernLeft = haakhar;
kernRight = ha;
lastChange = "2022-09-15 20:03:15 +0000";
layers = (
{
anchors = (
{
name = bottom;
pos = (464,-791);
},
{
name = center;
pos = (528,-216);
},
{
name = top;
pos = (419,860);
}
);
guides = (
{
pos = (408,810);
}
);
layerId = "1AB499B8-18A8-432D-A211-B6882CCB886D";
shapes = (
{
closed = 1;
nodes = (
(593,-559,o),
(543,-570,o),
(470,-570,cs),
(294,-570,o),
(200,-462,o),
(200,-204,cs),
(200,54,o),
(285,49,o),
(772,384,c),
(805,376,o),
(838,371,o),
(871,371,c),
(901,561,l),
(683,561,o),
(449,810,o),
(268,810,cs),
(135,810,o),
(77,682,o),
(59,542,c),
(202,505,l),
(219,587,o),
(237,610,o),
(268,610,cs),
(334,610,o),
(434,541,o),
(549,478,c),
(209,259,o),
(40,185,o),
(40,-204,cs),
(40,-575,o),
(227,-790,o),
(470,-790,cs),
(556,-790,o),
(620,-776,o),
(873,-680,c),
(815,-474,l)
);
}
);
width = 911;
}
);
unicode = 1581;
},
{
color = 4;
glyphname = "hah-ar.fina";
kernLeft = haakhar;
lastChange = "2022-09-15 20:03:36 +0000";
layers = (
{
anchors = (
{
name = bottom;
pos = (464,-791);
},
{
name = center;
pos = (528,-216);
},
{
name = entry;
pos = (947,220);
},
{
name = top;
pos = (419,860);
}
);
guides = (
{
pos = (1025,371);
}
);
hints = (
{
name = _cap.strokebutt;
origin = (0,11);
type = Cap;
}
);
layerId = "1AB499B8-18A8-432D-A211-B6882CCB886D";
shapes = (
{
closed = 1;
nodes = (
(593,-559,o),
(543,-570,o),
(470,-570,cs),
(294,-570,o),
(200,-462,o),
(200,-204,cs),
(200,32,o),
(271,48,o),
(657,306,c),
(676,101,o),
(764,0,o),
(947,0,c),
(947,220,l),
(792,220,o),
(774,237,o),
(773,384,c),
(806,376,o),
(838,371,o),
(871,371,c),
(901,561,l),
(683,561,o),
(449,810,o),
(268,810,cs),
(135,810,o),
(77,682,o),
(59,542,c),
(202,505,l),
(219,587,o),
(237,610,o),
(268,610,cs),
(334,610,o),
(434,541,o),
(549,478,c),
(209,259,o),
(40,185,o),
(40,-204,cs),
(40,-575,o),
(227,-790,o),
(470,-790,cs),
(556,-790,o),
(620,-776,o),
(873,-680,c),
(815,-474,l)
);
}
);
width = 947;
}
);
metricLeft = "hah-ar";
metricRight = "behDotless-ar.medi";
},
{
color = 4;
glyphname = "hah-ar.medi";
lastChange = "2022-09-15 20:03:47 +0000";
layers = (
{
anchors = (
{
name = bottom;
pos = (352,-50);
},
{
name = entry;
pos = (811,220);
},
{
name = exit;
pos = (0,220);
},
{
name = top;
pos = (324,860);
}
);
hints = (
{
name = _cap.strokebutt;
origin = (0,15);
type = Cap;
},
{
name = _cap.strokebutt;
origin = (0,8);
type = Cap;
}
);
layerId = "1AB499B8-18A8-432D-A211-B6882CCB886D";
shapes = (
{
closed = 1;
nodes = (
(165,586,o),
(183,609,o),
(214,609,cs),
(281,609,o),
(379,520,o),
(497,451,c),
(280,234,o),
(193,220,o),
(0,220,c),
(0,0,l),
(188,0,o),
(269,10,o),
(526,270,c),
(552,89,o),
(640,0,o),
(811,0,c),
(811,220,l),
(656,220,o),
(639,237,o),
(638,386,c),
(672,376,o),
(707,370,o),
(743,370,c),
(773,560,l),
(579,560,o),
(392,809,o),
(214,809,cs),
(81,809,o),
(23,681,o),
(5,541,c),
(148,504,l)
);
}
);
width = 811;
}
);
metricLeft = "hah-ar.init";
metricRight = "behDotless-ar.medi";
},
{
color = 4;
glyphname = "hah-ar.init";
kernRight = ha2;
lastChange = "2022-09-15 20:04:03 +0000";
layers = (
{
anchors = (
{
name = bottom;
pos = (352,-50);
},
{
name = exit;
pos = (0,220);
},
{
name = top;
pos = (324,860);
}
);
hints = (
{
name = _cap.strokebutt;
origin = (0,8);
type = Cap;
}
);
layerId = "1AB499B8-18A8-432D-A211-B6882CCB886D";
shapes = (
{
closed = 1;
nodes = (
(165,586,o),
(183,609,o),
(214,609,cs),
(281,609,o),
(379,520,o),
(497,451,c),
(280,234,o),
(193,220,o),
(0,220,c),
(0,0,l),
(213,0,o),
(288,12,o),
(638,387,c),
(672,376,o),
(707,370,o),
(743,370,c),
(773,560,l),
(579,560,o),
(392,809,o),
(214,809,cs),
(81,809,o),
(23,681,o),
(5,541,c),
(148,504,l)
);
}
);
width = 803;
}
);
metricLeft = "behDotless-ar.medi";
},
{
color = 4;
glyphname = "dal-ar";
kernLeft = dal;
kernRight = de;
lastChange = "2022-09-15 18:19:50 +0000";
layers = (
{
anchors = (
{
name = bottom;
pos = (239,-50);
},
{
name = top;
pos = (271,916);
}
);
layerId = "1AB499B8-18A8-432D-A211-B6882CCB886D";
shapes = (
{
closed = 1;
nodes = (
(87,17,o),
(159,0,o),
(219,0,cs),
(402,0,o),
(552,89,o),
(552,296,cs),
(552,523,o),
(537,564,o),
(271,860,c),
(153,694,l),
(359,483,o),
(382,446,o),
(382,312,cs),
(382,248,o),
(323,220,o),
(239,220,cs),
(153,220,o),
(109,232,o),
(53,248,c),
(20,44,l)
);
}
);
width = 592;
}
);
unicode = 1583;
},
{
color = 4;
glyphname = "dal-ar.fina";
kernLeft = dal;
lastChange = "2022-09-15 20:04:14 +0000";
layers = (
{
anchors = (
{
name = bottom;
pos = (259,-50);
},
{
name = entry;
pos = (669,220);
},
{
name = top;
pos = (335,962);
}
);
guides = (
{
angle = 260.8112;
pos = (20,96);
}
);
hints = (
{
name = _cap.strokebutt;
origin = (0,21);
type = Cap;
}
);
layerId = "1AB499B8-18A8-432D-A211-B6882CCB886D";
shapes = (
{
closed = 1;
nodes = (
(610,220,o),
(590,254,o),
(576,314,cs),
(437,913,l),
(261,863,l),
(404,286,l),
(368,231,o),
(288,220,o),
(239,220,cs),
(150,220,o),
(100,252,o),
(49,276,c),
(20,96,l),
(91,38,o),
(147,0,o),
(239,0,cs),
(313,0,o),
(402,45,o),
(455,143,c),
(500,61,o),
(569,0,o),
(669,0,c),
(669,220,l)
);
}
);
width = 669;
}
);
metricLeft = "dal-ar";
metricRight = "behDotless-ar.medi";
},
{
color = 4;
glyphname = "reh-ar";
kernLeft = re;
kernRight = re;
lastChange = "2022-08-23 09:08:17 +0000";
layers = (
{
anchors = (
{
name = bottom;
pos = (206,-549);
},
{
name = top;
pos = (236,664);
}
);
guides = (
{
angle = 196.6388;
pos = (320,607);
}
);
layerId = "1AB499B8-18A8-432D-A211-B6882CCB886D";
shapes = (
{
closed = 1;
nodes = (
(298,-332,o),
(401,-106,o),
(401,98,cs),
(401,189,o),
(385,339,o),
(320,607,c),
(146,555,l),
(219,292,o),
(241,166,o),
(241,98,cs),
(241,-36,o),
(161,-183,o),
(-50,-376,c),
(72,-538,l)
);
}
);
width = 441;
}
);
unicode = 1585;
},
{
color = 4;
glyphname = "reh-ar.fina";
kernLeft = re;
lastChange = "2022-09-15 20:04:53 +0000";
layers = (
{
anchors = (
{
name = bottom;
pos = (206,-549);
},
{
name = entry;
pos = (455,220);
},
{
name = top;
pos = (236,664);
}
);
hints = (
{
name = _cap.strokebutt;
origin = (0,5);
type = Cap;
}
);
layerId = "1AB499B8-18A8-432D-A211-B6882CCB886D";
shapes = (
{
closed = 1;
nodes = (
(268,-359,o),
(371,-166,o),
(395,16,c),
(415,6,o),
(435,0,o),
(455,0,c),
(455,220,l),
(428,220,o),
(405,227,o),
(390,247,c),
(379,335,o),
(358,451,o),
(320,607,c),
(146,555,l),
(219,292,o),
(241,166,o),
(241,98,cs),
(241,-36,o),
(161,-183,o),
(-50,-376,c),
(72,-538,l)
);
}
);
width = 455;
}
);
metricLeft = "reh-ar";
metricRight = "behDotless-ar.medi";
},
{
color = 4;
glyphname = "seen-ar";
kernLeft = nun;
kernRight = be;
lastChange = "2022-09-15 20:30:50 +0000";
layers = (
{
anchors = (
{
name = bottom;
pos = (433,-549);
},
{
name = top;
pos = (1094,584);
}
);
layerId = "1AB499B8-18A8-432D-A211-B6882CCB886D";
shapes = (
{
closed = 1;
nodes = (
(1257,220,o),
(1220,234,o),
(1203,253,c),
(1253,474,l),
(1077,522,l),
(1038,307,ls),
(1027,248,o),
(985,220,o),
(932,220,cs),
(888,220,o),
(849,229,o),
(832,300,cs),
(810,388,o),
(786,469,o),
(766,528,c),
(604,456,l),
(655,301,o),
(724,52,o),
(724,-113,cs),
(724,-243,o),
(636,-329,o),
(448,-329,cs),
(273,-329,o),
(197,-226,o),
(197,-86,cs),
(197,50,o),
(252,204,o),
(301,353,c),
(153,420,l),
(109,285,o),
(40,92,o),
(40,-91,cs),
(40,-323,o),
(181,-549,o),
(448,-549,cs),
(709,-549,o),
(895,-362,o),
(895,-113,cs),
(895,-76,o),
(892,-37,o),
(888,4,c),
(897,1,o),
(906,0,o),
(917,0,cs),
(1009,0,o),
(1091,47,o),
(1145,125,c),
(1182,49,o),
(1244,0,o),
(1311,0,cs),
(1457,0,o),
(1568,130,o),
(1568,314,cs),
(1568,421,o),
(1532,545,o),
(1497,630,c),
(1333,548,l),
(1364,471,o),
(1408,359,o),
(1408,314,cs),
(1408,253,o),
(1370,220,o),
(1311,220,cs)
);
}
);
width = 1628;
}
);
unicode = 1587;
},
{
color = 4;
glyphname = "seen-ar.fina";
kernLeft = nun;
lastChange = "2022-09-15 20:06:25 +0000";
layers = (
{
anchors = (
{
name = bottom;
pos = (433,-549);
},
{
name = entry;
pos = (1710,220);
},
{
name = top;
pos = (1135,584);
}
);
hints = (
{
name = _cap.strokebutt;
origin = (0,6);
type = Cap;
}
);
layerId = "1AB499B8-18A8-432D-A211-B6882CCB886D";
shapes = (
{
closed = 1;
nodes = (
(1445,20,l),
(1492,220,l),
(1499,220,l),
(1504,190,ls),
(1526,60,o),
(1627,0,o),
(1710,0,c),
(1710,220,l),
(1674,220,o),
(1610,250,o),
(1602,372,cs),
(1590,556,l),
(1434,542,l),
(1360,240,l),
(1300,240,ls),
(1249,240,o),
(1216,248,o),
(1198,279,c),
(1242,474,l),
(1066,522,l),
(1017,307,ls),
(1003,247,o),
(975,220,o),
(926,220,cs),
(877,220,o),
(849,229,o),
(832,300,cs),
(810,388,o),
(786,469,o),
(766,528,c),
(604,456,l),
(655,301,o),
(724,52,o),
(724,-113,cs),
(724,-243,o),
(636,-329,o),
(448,-329,cs),
(273,-329,o),
(197,-226,o),
(197,-86,cs),
(197,50,o),
(252,204,o),
(301,353,c),
(153,420,l),
(109,285,o),
(40,92,o),
(40,-91,cs),
(40,-323,o),
(181,-549,o),
(448,-549,cs),
(709,-549,o),
(895,-362,o),
(895,-113,cs),
(895,-76,o),
(892,-37,o),
(888,4,c),
(897,1,o),
(906,0,o),
(917,0,cs),
(1008,0,o),
(1093,54,o),
(1146,142,c),
(1183,65,o),
(1239,20,o),
(1299,20,cs)
);
}
);
width = 1711;
}
);
},
{
color = 4;
glyphname = "seen-ar.medi";
lastChange = "2022-09-15 20:06:51 +0000";
layers = (
{
anchors = (
{
name = bottom;
pos = (563,-50);
},
{
name = entry;
pos = (1179,220);
},
{
name = exit;
pos = (0,220);
},
{
name = top;
pos = (592,584);
}
);
hints = (
{
name = _cap.strokebutt;
origin = (0,6);
type = Cap;
},
{
name = _cap.strokebutt;
origin = (0,32);
type = Cap;
}
);
layerId = "1AB499B8-18A8-432D-A211-B6882CCB886D";
shapes = (
{
closed = 1;
nodes = (
(914,20,l),
(961,220,l),
(968,220,l),
(973,190,ls),
(995,60,o),
(1096,0,o),
(1179,0,c),
(1179,220,l),
(1143,220,o),
(1079,250,o),
(1071,372,cs),
(1059,556,l),
(903,542,l),
(829,240,l),
(769,240,ls),
(718,240,o),
(685,248,o),
(667,279,c),
(711,474,l),
(535,522,l),
(486,307,ls),
(472,247,o),
(444,220,o),
(386,220,cs),
(333,220,o),
(301,228,o),
(284,246,c),
(336,474,l),
(160,522,l),
(107,289,ls),
(96,237,o),
(73,220,o),
(0,220,c),
(0,0,l),
(96,0,o),
(172,41,o),
(223,109,c),
(255,43,o),
(307,0,o),
(386,0,cs),
(477,0,o),
(562,54,o),
(615,142,c),
(652,65,o),
(708,20,o),
(768,20,cs)
);
}
);
width = 1180;
}
);
},
{
color = 4;
glyphname = "seen-ar.init";
kernRight = be;
lastChange = "2022-09-15 20:07:16 +0000";
layers = (
{
anchors = (
{
name = bottom;
pos = (550,-50);
},
{
name = exit;
pos = (0,220);
},
{
name = top;
pos = (574,584);
}
);
hints = (
{
name = _cap.strokebutt;
origin = (0,17);
type = Cap;
}
);
layerId = "1AB499B8-18A8-432D-A211-B6882CCB886D";
shapes = (
{
closed = 1;
nodes = (
(726,220,o),
(689,234,o),
(672,253,c),
(722,474,l),
(546,522,l),
(507,307,ls),
(496,248,o),
(454,220,o),
(386,220,cs),
(333,220,o),
(301,228,o),
(284,246,c),
(336,474,l),
(160,522,l),
(107,289,ls),
(96,237,o),
(73,220,o),
(0,220,c),
(0,0,l),
(96,0,o),
(172,41,o),
(223,109,c),
(255,43,o),
(307,0,o),
(386,0,cs),
(478,0,o),
(560,47,o),
(614,125,c),
(651,49,o),
(713,0,o),
(780,0,cs),
(926,0,o),
(1037,130,o),
(1037,314,cs),
(1037,421,o),
(1001,545,o),
(966,630,c),
(802,548,l),
(833,471,o),
(877,359,o),
(877,314,cs),
(877,253,o),
(839,220,o),
(780,220,cs)
);
}
);
width = 1097;
}
);
},
{
color = 4;
glyphname = "sad-ar";
kernLeft = nun;
kernRight = sad;
lastChange = "2022-09-15 20:07:45 +0000";
layers = (
{
anchors = (
{
name = bottom;
pos = (452,-553);
},
{
name = top;
pos = (1295,806);
}
);
layerId = "1AB499B8-18A8-432D-A211-B6882CCB886D";
shapes = (
{
closed = 1;
nodes = (
(112,285,o),
(40,92,o),
(40,-91,cs),
(40,-323,o),
(188,-549,o),
(468,-549,cs),
(742,-549,o),
(938,-362,o),
(938,-113,cs),
(938,-69,o),
(934,-20,o),
(927,30,c),
(969,7,o),
(1022,0,o),
(1099,0,cs),
(1141,0,ls),
(1444,0,o),
(1618,73,o),
(1618,286,cs),
(1618,565,o),
(1510,754,o),
(1326,754,cs),
(1107,754,o),
(1001,465,o),
(942,231,c),
(889,248,o),
(876,292,o),
(842,404,cs),
(828,451,o),
(814,493,o),
(802,528,c),
(632,456,l),
(686,301,o),
(758,52,o),
(758,-113,cs),
(758,-243,o),
(666,-329,o),
(468,-329,cs),
(285,-329,o),
(205,-226,o),
(205,-86,cs),
(205,50,o),
(263,204,o),
(314,353,c),
(159,420,l)
);
},
{
closed = 1;
nodes = (
(1175,398,o),
(1235,534,o),
(1326,534,cs),
(1404,534,o),
(1445,480,o),
(1448,312,cs),
(1449,243,o),
(1369,220,o),
(1141,220,cs),
(1114,220,l)
);
}
);
width = 1658;
}
);
metricLeft = "noonghunna-ar";
metricRight = "sad-ar.init";
unicode = 1589;
},
{
color = 4;
glyphname = "sad-ar.fina";
kernLeft = nun;
lastChange = "2022-09-15 20:08:10 +0000";
layers = (
{
anchors = (
{
name = bottom;
pos = (452,-553);
},
{
name = entry;
pos = (1689,220);
},
{
name = top;
pos = (1295,806);
}
);
hints = (
{
name = _cap.strokebutt;
origin = (0,53);
type = Cap;
}
);
layerId = "1AB499B8-18A8-432D-A211-B6882CCB886D";
shapes = (
{
closed = 1;
nodes = (
(1660,220,o),
(1636,223,o),
(1614,231,c),
(1617,248,o),
(1618,266,o),
(1618,286,cs),
(1618,565,o),
(1510,754,o),
(1326,754,cs),
(1107,754,o),
(1001,465,o),
(942,231,c),
(889,248,o),
(876,292,o),
(842,404,cs),
(828,451,o),
(814,493,o),
(802,528,c),
(632,456,l),
(686,301,o),
(758,52,o),
(758,-113,cs),
(758,-243,o),
(666,-329,o),
(468,-329,cs),
(285,-329,o),
(205,-226,o),
(205,-86,cs),
(205,50,o),
(263,204,o),
(314,353,c),
(159,420,l),
(112,285,o),
(40,92,o),
(40,-91,cs),
(40,-323,o),
(188,-549,o),
(468,-549,cs),
(742,-549,o),
(938,-362,o),
(938,-113,cs),
(938,-69,o),
(934,-20,o),
(927,30,c),
(969,7,o),
(1022,0,o),
(1099,0,cs),
(1141,0,ls),
(1308,0,o),
(1436,22,o),
(1518,78,c),
(1565,27,o),
(1625,0,o),
(1689,0,c),
(1689,220,l)
);
},
{
closed = 1;
nodes = (
(1175,398,o),
(1235,534,o),
(1326,534,cs),
(1404,534,o),
(1445,480,o),
(1448,312,cs),
(1449,243,o),
(1369,220,o),
(1141,220,cs),
(1114,220,l)
);
}
);
width = 1689;
}
);
metricRight = "behDotless-ar.medi";
},
{
color = 4;
glyphname = "sad-ar.medi";
lastChange = "2022-09-15 20:08:43 +0000";
layers = (
{
anchors = (
{
name = bottom;
pos = (509,-50);
},
{
name = entry;
pos = (1100,220);
},
{
name = exit;
pos = (0,220);
},
{
name = top;
pos = (696,904);
}
);
hints = (
{
name = _cap.strokebutt;
origin = (0,34);
type = Cap;
},
{
name = _cap.strokebutt;
origin = (0,20);
type = Cap;
}
);
layerId = "1AB499B8-18A8-432D-A211-B6882CCB886D";
shapes = (
{
closed = 1;
nodes = (
(1071,220,o),
(1047,223,o),
(1025,231,c),
(1028,248,o),
(1029,266,o),
(1029,286,cs),
(1029,565,o),
(921,754,o),
(737,754,cs),
(518,754,o),
(412,465,o),
(353,231,c),
(273,249,o),
(264,290,o),
(264,372,cs),
(264,534,l),
(94,514,l),
(94,320,ls),
(94,240,o),
(75,220,o),
(0,220,c),
(0,0,l),
(98,0,o),
(180,54,o),
(226,145,c),
(269,58,o),
(354,0,o),
(510,0,cs),
(552,0,ls),
(719,0,o),
(847,22,o),
(929,78,c),
(976,27,o),
(1036,0,o),
(1100,0,c),
(1100,220,l)
);
},
{
closed = 1;
nodes = (
(586,398,o),
(646,534,o),
(737,534,cs),
(815,534,o),
(856,480,o),
(859,312,cs),
(860,243,o),
(780,220,o),
(552,220,cs),
(525,220,l)
);
}
);
width = 1100;
}
);
metricRight = "behDotless-ar.medi";
},
{
color = 4;
glyphname = "sad-ar.init";
kernRight = sad;
lastChange = "2022-09-15 20:08:57 +0000";
layers = (
{
anchors = (
{
name = bottom;
pos = (509,-50);
},
{
name = exit;
pos = (0,220);
},
{
name = top;
pos = (696,904);
}
);
hints = (
{
name = _cap.strokebutt;
origin = (0,18);
type = Cap;
}
);
layerId = "1AB499B8-18A8-432D-A211-B6882CCB886D";
shapes = (
{
closed = 1;
nodes = (
(552,0,ls),
(855,0,o),
(1029,73,o),
(1029,286,cs),
(1029,565,o),
(921,754,o),
(737,754,cs),
(518,754,o),
(412,465,o),
(353,231,c),
(273,249,o),
(264,290,o),
(264,372,cs),
(264,534,l),
(94,514,l),
(94,320,ls),
(94,240,o),
(75,220,o),
(0,220,c),
(0,0,l),
(98,0,o),
(180,54,o),
(226,145,c),
(269,58,o),
(354,0,o),
(510,0,cs)
);
},
{
closed = 1;
nodes = (
(586,398,o),
(646,534,o),
(737,534,cs),
(815,534,o),
(856,480,o),
(859,312,cs),
(860,243,o),
(780,220,o),
(552,220,cs),
(525,220,l)
);
}
);
width = 1069;
}
);
},
{
color = 4;
glyphname = "tah-ar";
kernLeft = taakhar;
kernRight = sad;
lastChange = "2022-09-15 20:09:37 +0000";
layers = (
{
anchors = (
{
name = bottom;
pos = (492,-50);
},
{
name = top;
pos = (737,904);
}
);
guides = (
{
angle = 260.8112;
pos = (62,267);
}
);
layerId = "1AB499B8-18A8-432D-A211-B6882CCB886D";
shapes = (
{
closed = 1;
nodes = (
(471,0,ls),
(774,0,o),
(948,73,o),
(948,286,cs),
(948,565,o),
(840,754,o),
(656,754,cs),
(586,754,o),
(528,725,o),
(479,677,c),
(479,814,ls),
(479,994,o),
(479,1190,o),
(437,1380,c),
(261,1332,l),
(299,1162,o),
(299,994,o),
(299,814,cs),
(299,329,l),
(289,295,o),
(279,261,o),
(271,227,c),
(194,235,o),
(127,249,o),
(62,267,c),
(28,59,l),
(181,15,o),
(281,0,o),
(429,0,cs)
);
},
{
closed = 1;
nodes = (
(505,398,o),
(565,534,o),
(656,534,cs),
(734,534,o),
(775,480,o),
(778,312,cs),
(779,243,o),
(699,220,o),
(471,220,cs),
(444,220,l)
);
}
);
width = 988;
}
);
metricRight = "sad-ar.init";
unicode = 1591;
},
{
color = 4;
glyphname = "tah-ar.fina";
kernLeft = taakhar;
lastChange = "2022-09-15 20:09:53 +0000";
layers = (
{
anchors = (
{
name = bottom;
pos = (492,-50);
},
{
name = entry;
pos = (1019,220);
},
{
name = top;
pos = (737,904);
}
);
hints = (
{
name = _cap.strokebutt;
origin = (0,37);
type = Cap;
}
);
layerId = "1AB499B8-18A8-432D-A211-B6882CCB886D";
shapes = (
{
closed = 1;
nodes = (
(990,220,o),
(966,223,o),
(944,231,c),
(947,248,o),
(948,266,o),
(948,286,cs),
(948,565,o),
(840,754,o),
(656,754,cs),
(586,754,o),
(528,725,o),
(479,677,c),
(479,814,ls),
(479,994,o),
(479,1190,o),
(437,1380,c),
(261,1332,l),
(299,1162,o),
(299,994,o),
(299,814,cs),
(299,329,l),
(289,295,o),
(279,261,o),
(271,227,c),
(194,235,o),
(127,249,o),
(62,267,c),
(28,59,l),
(181,15,o),
(281,0,o),
(429,0,cs),
(471,0,ls),
(638,0,o),
(766,22,o),
(848,78,c),
(895,27,o),
(955,0,o),
(1019,0,c),
(1019,220,l)
);
},
{
closed = 1;
nodes = (
(505,398,o),
(565,534,o),
(656,534,cs),
(734,534,o),
(775,480,o),
(778,312,cs),
(779,243,o),
(699,220,o),
(471,220,cs),
(444,220,l)
);
}
);
width = 1019;
}
);
},
{
color = 4;
glyphname = "tah-ar.medi";
lastChange = "2022-09-15 20:10:09 +0000";
layers = (
{
anchors = (
{
name = bottom;
pos = (404,-50);
},
{
name = entry;
pos = (827,220);
},
{
name = exit;
pos = (0,220);
},
{
name = top;
pos = (545,904);
}
);
hints = (
{
name = _cap.strokebutt;
origin = (0,32);
type = Cap;
},
{
name = _cap.strokebutt;
origin = (0,24);
type = Cap;
}
);
layerId = "1AB499B8-18A8-432D-A211-B6882CCB886D";
shapes = (
{
closed = 1;
nodes = (
(798,220,o),
(774,223,o),
(752,231,c),
(755,248,o),
(756,266,o),
(756,286,cs),
(756,565,o),
(648,754,o),
(464,754,cs),
(394,754,o),
(336,725,o),
(287,677,c),
(287,814,ls),
(287,994,o),
(287,1190,o),
(245,1380,c),
(69,1332,l),
(107,1162,o),
(107,994,o),
(107,814,cs),
(107,329,l),
(96,292,o),
(86,255,o),
(77,220,c),
(0,220,l),
(0,0,l),
(279,0,ls),
(446,0,o),
(574,22,o),
(656,78,c),
(703,27,o),
(763,0,o),
(827,0,c),
(827,220,l)
);
},
{
closed = 1;
nodes = (
(313,398,o),
(373,534,o),
(464,534,cs),
(542,534,o),
(583,480,o),
(586,312,cs),
(587,243,o),
(507,220,o),
(279,220,cs),
(252,220,l)
);
}
);
width = 827;
}
);
},
{
color = 4;
glyphname = "tah-ar.init";
kernRight = sad;
lastChange = "2022-09-15 20:10:21 +0000";
layers = (
{
anchors = (
{
name = bottom;
pos = (404,-50);
},
{
name = exit;
pos = (0,220);
},
{
name = top;
pos = (545,904);
}
);
hints = (
{
name = _cap.strokebutt;
origin = (0,22);
type = Cap;
}
);
layerId = "1AB499B8-18A8-432D-A211-B6882CCB886D";
shapes = (
{
closed = 1;
nodes = (
(279,0,ls),
(582,0,o),
(756,73,o),
(756,286,cs),
(756,565,o),
(648,754,o),
(464,754,cs),
(394,754,o),
(336,725,o),
(287,677,c),
(287,814,ls),
(287,994,o),
(287,1190,o),
(245,1380,c),
(69,1332,l),
(107,1162,o),
(107,994,o),
(107,814,cs),
(107,329,l),
(96,292,o),
(86,255,o),
(77,220,c),
(0,220,l),
(0,0,l)
);
},
{
closed = 1;
nodes = (
(313,398,o),
(373,534,o),
(464,534,cs),
(542,534,o),
(583,480,o),
(586,312,cs),
(587,243,o),
(507,220,o),
(279,220,cs),
(252,220,l)
);
}
);
width = 796;
}
);
metricLeft = "behDotless-ar.medi";
metricRight = "sad-ar.init";
},
{
color = 4;
glyphname = "ain-ar";
kernLeft = einakhar;
lastChange = "2022-09-15 20:10:31 +0000";
layers = (
{
anchors = (
{
name = bottom;
pos = (479,-791);
},
{
name = top;
pos = (411,977);
}
);
layerId = "1AB499B8-18A8-432D-A211-B6882CCB886D";
shapes = (
{
closed = 1;
nodes = (
(592,-560,o),
(542,-571,o),
(470,-571,cs),
(293,-571,o),
(200,-463,o),
(200,-205,cs),
(200,103,o),
(480,160,o),
(758,282,c),
(694,484,l),
(614,449,o),
(517,415,o),
(422,370,c),
(358,440,o),
(313,517,o),
(313,587,cs),
(313,674,o),
(357,727,o),
(425,727,cs),
(474,727,o),
(557,691,o),
(582,674,c),
(660,840,l),
(593,886,o),
(492,927,o),
(425,927,cs),
(267,927,o),
(173,784,o),
(173,587,cs),
(173,474,o),
(224,365,o),
(275,283,c),
(142,186,o),
(40,41,o),
(40,-205,cs),
(40,-575,o),
(226,-791,o),
(470,-791,cs),
(555,-791,o),
(619,-777,o),
(823,-700,c),
(767,-494,l)
);
}
);
width = 833;
}
);
unicode = 1593;
},
{
color = 4;
glyphname = "ain-ar.fina";
kernLeft = einakhar;
lastChange = "2022-09-15 20:11:06 +0000";
layers = (
{
anchors = (
{
name = bottom;
pos = (461,-791);
},
{
name = entry;
pos = (746,220);
},
{
name = top;
pos = (409,860);
}
);
guides = (
{
angle = 120.1087;
pos = (355,231);
}
);
hints = (
{
name = _cap.strokebutt;
origin = (0,12);
type = Cap;
}
);
layerId = "1AB499B8-18A8-432D-A211-B6882CCB886D";
shapes = (
{
closed = 1;
nodes = (
(589,-559,o),
(535,-571,o),
(461,-571,cs),
(277,-571,o),
(180,-460,o),
(180,-205,cs),
(180,-53,o),
(254,55,o),
(362,127,c),
(424,30,o),
(489,0,o),
(613,0,cs),
(746,0,l),
(746,220,l),
(613,220,ls),
(580,220,o),
(556,221,o),
(536,224,c),
(632,290,o),
(691,386,o),
(691,582,cs),
(691,758,o),
(622,810,o),
(459,810,cs),
(336,810,o),
(251,772,o),
(149,721,c),
(149,567,l),
(273,300,l),
(153,200,o),
(40,28,o),
(40,-205,cs),
(40,-572,o),
(221,-791,o),
(461,-791,cs),
(544,-791,o),
(605,-778,o),
(811,-700,c),
(761,-494,l)
);
},
{
closed = 1;
nodes = (
(339,584,o),
(391,600,o),
(459,600,cs),
(531,600,o),
(551,590,o),
(551,553,cs),
(551,465,o),
(533,445,o),
(404,381,c),
(308,572,l)
);
}
);
width = 746;
}
);
metricLeft = "ain-ar";
},
{
color = 4;
glyphname = "ain-ar.medi";
lastChange = "2022-09-15 20:11:15 +0000";
layers = (
{
anchors = (
{
name = bottom;
pos = (298,-50);
},
{
name = entry;
pos = (596,220);
},
{
name = exit;
pos = (0,220);
},
{
name = top;
pos = (273,860);
}
);
guides = (
{
angle = 120.1087;
pos = (247,146);
}
);
hints = (
{
name = _cap.strokebutt;
origin = (1,6);
type = Cap;
},
{
name = _cap.strokebutt;
origin = (1,25);
type = Cap;
}
);
layerId = "1AB499B8-18A8-432D-A211-B6882CCB886D";
shapes = (
{
closed = 1;
nodes = (
(411,480,o),
(408,472,o),
(271,366,c),
(168,572,l),
(199,584,o),
(251,600,o),
(319,600,cs),
(391,600,o),
(411,590,o),
(411,553,cs)
);
},
{
closed = 1;
nodes = (
(81,0,o),
(158,46,o),
(238,104,c),
(296,25,o),
(360,0,o),
(473,0,cs),
(596,0,l),
(596,220,l),
(473,220,ls),
(442,220,o),
(418,221,o),
(399,223,c),
(509,315,o),
(551,401,o),
(551,582,cs),
(551,758,o),
(482,810,o),
(319,810,cs),
(196,810,o),
(101,772,o),
(9,721,c),
(9,567,l),
(146,274,l),
(97,242,o),
(49,220,o),
(0,220,c),
(0,0,l)
);
}
);
width = 596;
}
);
metricLeft = "behDotless-ar.medi";
metricRight = "behDotless-ar.medi";
},
{
color = 4;
glyphname = "ain-ar.init";
kernRight = ein;
lastChange = "2022-09-15 20:11:02 +0000";
layers = (
{
anchors = (
{
name = bottom;
pos = (288,-50);
},
{
name = exit;
pos = (0,220);
},
{
name = top;
pos = (287,910);
}
);
hints = (
{
name = _cap.strokebutt;
origin = (0,28);
type = Cap;
}
);
layerId = "1AB499B8-18A8-432D-A211-B6882CCB886D";
shapes = (
{
closed = 1;
nodes = (
(220,0,o),
(270,54,o),
(565,193,c),
(565,425,l),
(442,367,o),
(357,325,o),
(293,294,c),
(229,365,o),
(183,441,o),
(183,509,cs),
(183,592,o),
(222,639,o),
(286,639,cs),
(333,639,o),
(411,604,o),
(437,587,c),
(525,771,l),
(460,814,o),
(378,859,o),
(286,859,cs),
(133,859,o),
(23,702,o),
(23,509,cs),
(23,406,o),
(65,306,o),
(109,227,c),
(77,222,o),
(44,220,o),
(0,220,c),
(0,0,l)
);
}
);
width = 605;
}
);
metricLeft = "behDotless-ar.medi";
},
{
color = 4;
glyphname = "fehDotless-ar";
kernLeft = beakhar;
kernRight = fe;
lastChange = "2022-09-15 20:11:45 +0000";
layers = (
{
anchors = (
{
name = bottom;
pos = (520,-50);
},
{
name = top;
pos = (1023,1112);
}
);
layerId = "1AB499B8-18A8-432D-A211-B6882CCB886D";
shapes = (
{
closed = 1;
nodes = (
(913,0,ls),
(1160,0,o),
(1278,155,o),
(1278,439,cs),
(1278,828,o),
(1209,1063,o),
(1011,1063,cs),
(850,1063,o),
(770,828,o),
(770,664,cs),
(770,462,o),
(870,335,o),
(1021,335,cs),
(1045,335,o),
(1069,339,o),
(1094,346,c),
(1082,243,o),
(1039,220,o),
(913,220,cs),
(395,220,ls),
(257,220,o),
(210,277,o),
(210,374,cs),
(210,460,o),
(236,542,o),
(282,641,c),
(137,700,l),
(98,621,o),
(60,501,o),
(60,364,cs),
(60,173,o),
(189,1,o),
(394,0,cs)
);
},
{
closed = 1;
nodes = (
(930,752,o),
(970,843,o),
(1011,843,cs),
(1066,843,o),
(1096,774,o),
(1100,581,c),
(1076,565,o),
(1046,555,o),
(1021,555,cs),
(954,555,o),
(930,570,o),
(930,664,cs)
);
}
);
width = 1318;
}
);
metricLeft = "behDotless-ar";
metricRight = "fehDotless-ar.init";
unicode = 1697;
},
{
color = 4;
glyphname = "fehDotless-ar.fina";
kernLeft = beakhar;
lastChange = "2022-09-15 20:12:11 +0000";
layers = (
{
anchors = (
{
name = bottom;
pos = (548,-50);
},
{
name = entry;
pos = (1320,220);
},
{
name = top;
pos = (1045,888);
}
);
hints = (
{
name = _cap.strokebutt;
origin = (0,6);
type = Cap;
}
);
layerId = "1AB499B8-18A8-432D-A211-B6882CCB886D";
shapes = (
{
closed = 1;
nodes = (
(725,0,ls),
(823,0,o),
(930,29,o),
(1023,84,c),
(1137,29,o),
(1258,0,o),
(1320,0,c),
(1320,220,l),
(1287,220,o),
(1241,228,o),
(1193,242,c),
(1240,313,o),
(1269,398,o),
(1269,497,cs),
(1269,678,o),
(1163,839,o),
(1039,839,cs),
(893,839,o),
(764,596,o),
(764,387,cs),
(764,328,o),
(788,276,o),
(826,229,c),
(793,223,o),
(759,220,o),
(725,220,cs),
(395,220,ls),
(257,220,o),
(210,277,o),
(210,374,cs),
(210,460,o),
(236,542,o),
(282,641,c),
(137,700,l),
(98,621,o),
(60,501,o),
(60,364,cs),
(60,173,o),
(189,0,o),
(395,0,cs)
);
},
{
closed = 1;
nodes = (
(914,504,o),
(980,619,o),
(1039,619,cs),
(1085,619,o),
(1119,578,o),
(1119,497,cs),
(1119,420,o),
(1078,355,o),
(1014,308,c),
(956,336,o),
(914,366,o),
(914,387,cs)
);
}
);
width = 1320;
}
);
metricLeft = "behDotless-ar.fina";
metricRight = "behDotless-ar.medi";
},
{
color = 4;
glyphname = "fehDotless-ar.medi";
lastChange = "2022-09-15 20:12:24 +0000";
layers = (
{
anchors = (
{
name = bottom;
pos = (285,-50);
},
{
name = entry;
pos = (595,220);
},
{
name = exit;
pos = (0,220);
},
{
name = top;
pos = (314,889);
}
);
hints = (
{
name = _cap.strokebutt;
origin = (0,5);
type = Cap;
},
{
name = _cap.strokebutt;
origin = (0,24);
type = Cap;
}
);
layerId = "1AB499B8-18A8-432D-A211-B6882CCB886D";
shapes = (
{
closed = 1;
nodes = (
(98,0,o),
(205,29,o),
(298,84,c),
(412,29,o),
(533,0,o),
(595,0,c),
(595,220,l),
(562,220,o),
(516,228,o),
(468,242,c),
(515,313,o),
(544,398,o),
(544,497,cs),
(544,678,o),
(438,839,o),
(314,839,cs),
(168,839,o),
(39,596,o),
(39,387,cs),
(39,328,o),
(63,276,o),
(101,229,c),
(68,223,o),
(34,220,o),
(0,220,c),
(0,0,l)
);
},
{
closed = 1;
nodes = (
(189,504,o),
(255,619,o),
(314,619,cs),
(360,619,o),
(394,578,o),
(394,497,cs),
(394,420,o),
(353,355,o),
(289,308,c),
(231,336,o),
(189,366,o),
(189,387,cs)
);
}
);
width = 595;
}
);
metricLeft = "behDotless-ar.medi";
metricRight = "behDotless-ar.medi";
},
{
color = 4;
glyphname = "fehDotless-ar.init";
kernRight = fe;
lastChange = "2022-09-15 20:12:32 +0000";
layers = (
{
anchors = (
{
name = bottom;
pos = (287,-50);
},
{
name = exit;
pos = (0,220);
},
{
name = top;
pos = (259,1113);
}
);
hints = (
{
name = _cap.strokebutt;
origin = (0,19);
type = Cap;
}
);
layerId = "1AB499B8-18A8-432D-A211-B6882CCB886D";
shapes = (
{
closed = 1;
nodes = (
(173,0,ls),
(420,0,o),
(538,155,o),
(538,439,cs),
(538,828,o),
(469,1063,o),
(271,1063,cs),
(110,1063,o),
(30,828,o),
(30,664,cs),
(30,462,o),
(130,335,o),
(281,335,cs),
(305,335,o),
(329,339,o),
(354,346,c),
(342,243,o),
(299,220,o),
(173,220,cs),
(0,220,l),
(0,0,l)
);
},
{
closed = 1;
nodes = (
(190,752,o),
(230,843,o),
(271,843,cs),
(326,843,o),
(356,774,o),
(360,581,c),
(336,565,o),
(306,555,o),
(281,555,cs),
(214,555,o),
(190,570,o),
(190,664,cs)
);
}
);
width = 578;
}
);
metricLeft = "behDotless-ar.medi";
},
{
color = 4;
glyphname = "qafDotless-ar";
kernLeft = nun;
lastChange = "2022-09-15 20:12:50 +0000";
layers = (
{
anchors = (
{
name = bottom;
pos = (485,-549);
},
{
name = top;
pos = (698,778);
}
);
layerId = "1AB499B8-18A8-432D-A211-B6882CCB886D";
shapes = (
{
closed = 1;
nodes = (
(109,283,o),
(40,90,o),
(40,-91,cs),
(40,-320,o),
(180,-549,o),
(485,-549,cs),
(794,-549,o),
(970,-351,o),
(970,-113,cs),
(970,104,ls),
(970,493,o),
(901,728,o),
(703,728,cs),
(542,728,o),
(462,493,o),
(462,329,cs),
(462,127,o),
(562,0,o),
(713,0,cs),
(738,0,o),
(764,5,o),
(790,13,c),
(790,-113,ls),
(790,-245,o),
(704,-329,o),
(485,-329,cs),
(281,-329,o),
(220,-232,o),
(220,-91,cs),
(220,46,o),
(275,201,o),
(324,350,c),
(152,418,l)
);
},
{
closed = 1;
nodes = (
(622,417,o),
(662,508,o),
(703,508,cs),
(758,508,o),
(788,439,o),
(792,246,c),
(768,230,o),
(738,220,o),
(713,220,cs),
(646,220,o),
(622,235,o),
(622,329,cs)
);
}
);
width = 1030;
}
);
metricLeft = "noonghunna-ar";
metricRight = "waw-ar";
unicode = 1647;
},
{
color = 4;
glyphname = "qafDotless-ar.fina";
kernLeft = nun;
lastChange = "2022-09-15 20:14:08 +0000";
layers = (
{
anchors = (
{
name = bottom;
pos = (482,-549);
},
{
name = entry;
pos = (1016,220);
},
{
name = top;
pos = (706,778);
}
);
hints = (
{
name = _cap.strokebutt;
origin = (0,10);
type = Cap;
}
);
layerId = "1AB499B8-18A8-432D-A211-B6882CCB886D";
shapes = (
{
closed = 1;
nodes = (
(109,283,o),
(40,90,o),
(40,-91,cs),
(40,-320,o),
(180,-549,o),
(486,-549,cs),
(795,-549,o),
(971,-351,o),
(971,-113,cs),
(971,0,l),
(1016,0,l),
(1016,220,l),
(970,220,l),
(956,539,o),
(882,728,o),
(704,728,cs),
(545,728,o),
(464,495,o),
(464,329,cs),
(464,132,o),
(550,0,o),
(750,0,cs),
(791,0,l),
(791,-113,ls),
(791,-245,o),
(705,-329,o),
(486,-329,cs),
(281,-329,o),
(220,-232,o),
(220,-91,cs),
(220,46,o),
(275,201,o),
(324,350,c),
(152,418,l)
);
},
{
closed = 1;
nodes = (
(624,417,o),
(654,508,o),
(704,508,cs),
(762,508,o),
(793,433,o),
(794,220,c),
(730,220,ls),
(642,220,o),
(624,240,o),
(624,329,cs)
);
}
);
width = 1016;
}
);
metricLeft = "noonghunna-ar";
metricRight = "behDotless-ar.medi";
},
{
color = 4;
glyphname = "kaf-ar";
kernLeft = beakhar;
kernRight = alef;
lastChange = "2022-09-15 20:14:41 +0000";
layers = (
{
anchors = (
{
name = bottom;
pos = (544,-50);
},
{
name = center;
pos = (929,710);
},
{
name = top;
pos = (464,1052);
}
);
layerId = "1AB499B8-18A8-432D-A211-B6882CCB886D";
shapes = (
{
closed = 1;
nodes = (
(903,0,o),
(1019,140,o),
(1019,336,cs),
(1019,754,ls),
(1019,934,o),
(1019,1190,o),
(977,1380,c),
(801,1332,l),
(839,1162,o),
(839,934,o),
(839,754,cs),
(839,336,ls),
(839,246,o),
(817,220,o),
(750,220,cs),
(395,220,ls),
(257,220,o),
(210,277,o),
(210,374,cs),
(210,460,o),
(236,542,o),
(282,641,c),
(137,700,l),
(98,621,o),
(60,501,o),
(60,364,cs),
(60,173,o),
(189,0,o),
(395,0,cs),
(750,0,ls)
);
},
{
closed = 1;
nodes = (
(549,541,ls),
(639,541,o),
(671,601,o),
(671,661,cs),
(671,721,o),
(636,766,o),
(573,788,cs),
(568,790,o),
(564,791,o),
(561,792,c),
(578,801,o),
(616,822,o),
(682,865,c),
(626,965,l),
(525,898,o),
(449,868,o),
(449,787,cs),
(449,740,o),
(478,695,o),
(541,674,cs),
(571,664,o),
(571,664,o),
(571,661,c),
(549,661,l),
(436,661,l),
(436,541,l)
);
}
);
width = 1119;
}
);
metricLeft = "behDotless-ar.fina";
metricRight = "lam-ar.init";
unicode = 1603;
},
{
color = 4;
glyphname = "kaf-ar.fina";
kernLeft = beakhar;
lastChange = "2022-09-15 20:15:41 +0000";
layers = (
{
anchors = (
{
name = bottom;
pos = (564,-50);
},
{
name = center;
pos = (969,710);
},
{
name = entry;
pos = (1179,220);
},
{
name = top;
pos = (484,1052);
}
);
hints = (
{
name = _cap.strokebutt;
origin = (0,35);
type = Cap;
}
);
layerId = "1AB499B8-18A8-432D-A211-B6882CCB886D";
shapes = (
{
closed = 1;
nodes = (
(1085,220,o),
(1059,246,o),
(1059,302,cs),
(1059,754,ls),
(1057,934,o),
(1059,1190,o),
(1017,1380,c),
(841,1332,l),
(879,1162,o),
(879,934,o),
(879,754,cs),
(879,336,ls),
(879,246,o),
(857,220,o),
(770,220,cs),
(395,220,ls),
(257,220,o),
(210,277,o),
(210,374,cs),
(210,460,o),
(236,542,o),
(282,641,c),
(137,700,l),
(98,621,o),
(60,501,o),
(60,364,cs),
(60,173,o),
(189,0,o),
(394,0,cs),
(770,0,ls),
(872,0,o),
(956,50,o),
(1006,132,c),
(1036,54,o),
(1091,0,o),
(1179,0,c),
(1179,220,l)
);
},
{
closed = 1;
nodes = (
(569,541,ls),
(659,541,o),
(691,601,o),
(691,661,cs),
(691,721,o),
(656,766,o),
(593,788,cs),
(588,790,o),
(584,791,o),
(581,792,c),
(598,801,o),
(636,822,o),
(702,865,c),
(646,965,l),
(545,898,o),
(469,868,o),
(469,787,cs),
(469,740,o),
(498,695,o),
(561,674,cs),
(591,664,o),
(591,664,o),
(591,661,c),
(456,661,l),
(456,541,l)
);
}
);
width = 1179;
}
);
metricLeft = "behDotless-ar.fina";
metricRight = "behDotless-ar.medi";
},
{
color = 4;
glyphname = "kaf-ar.medi";
lastChange = "2022-09-15 20:15:52 +0000";
layers = (
{
anchors = (
{
name = bottom;
pos = (286,-50);
},
{
name = entry;
pos = (623,220);
},
{
name = exit;
pos = (0,220);
},
{
name = top;
pos = (170,1215);
}
);
hints = (
{
name = _cap.strokebutt;
origin = (0,29);
type = Cap;
},
{
name = _cap.strokebutt;
origin = (0,6);
type = Cap;
}
);
layerId = "1AB499B8-18A8-432D-A211-B6882CCB886D";
shapes = (
{
closed = 1;
nodes = (
(181,0,ls),
(283,0,o),
(351,64,o),
(385,160,c),
(431,62,o),
(501,0,o),
(623,0,c),
(623,220,l),
(527,220,o),
(517,304,o),
(479,499,cs),
(447,661,o),
(448,718,o),
(190,858,c),
(190,875,l),
(596,1160,l),
(596,1369,l),
(579,1378,l),
(30,986,l),
(30,752,l),
(271,608,o),
(268,631,o),
(303,457,cs),
(312,412,o),
(321,368,o),
(330,326,c),
(330,247,o),
(301,220,o),
(181,220,cs),
(0,220,l),
(0,0,l)
);
}
);
width = 623;
}
);
metricLeft = "behDotless-ar.medi";
},
{
color = 4;
glyphname = "kaf-ar.medi.ss01";
lastChange = "2022-09-15 20:16:02 +0000";
layers = (
{
anchors = (
{
name = bottom;
pos = (574,-50);
},
{
name = entry;
pos = (1184,220);
},
{
name = exit;
pos = (0,220);
},
{
name = top;
pos = (327,1094);
}
);
hints = (
{
name = _cap.strokebutt;
origin = (0,31);
type = Cap;
},
{
name = _cap.strokebutt;
origin = (0,23);
type = Cap;
}
);
layerId = "1AB499B8-18A8-432D-A211-B6882CCB886D";
shapes = (
{
closed = 1;
nodes = (
(1151,220,o),
(1123,224,o),
(1099,235,c),
(1102,256,o),
(1103,279,o),
(1103,303,cs),
(1103,502,o),
(1018,613,o),
(857,613,cs),
(197,612,l),
(197,623,l),
(633,963,l),
(633,1182,l),
(618,1193,l),
(77,761,l),
(77,402,l),
(857,403,ls),
(921,403,o),
(933,376,o),
(933,313,cs),
(933,235,o),
(925,220,o),
(857,220,cs),
(0,220,l),
(0,0,l),
(857,0,ls),
(928,0,o),
(985,23,o),
(1026,65,c),
(1071,22,o),
(1125,0,o),
(1184,0,c),
(1184,220,l)
);
}
);
width = 1184;
}
);
metricLeft = "behDotless-ar.medi";
metricRight = "behDotless-ar.medi";
},
{
color = 4;
glyphname = "kaf-ar.init";
kernRight = kaf;
lastChange = "2022-08-22 19:22:16 +0000";
layers = (
{
anchors = (
{
name = bottom;
pos = (289,-50);
},
{
name = exit;
pos = (0,220);
},
{
name = top;
pos = (173,1215);
}
);
guides = (
{
angle = 215.5278;
pos = (305,1282);
}
);
hints = (
{
name = _cap.strokebutt;
origin = (0,21);
type = Cap;
}
);
layerId = "1AB499B8-18A8-432D-A211-B6882CCB886D";
shapes = (
{
closed = 1;
nodes = (
(182,0,ls),
(346,0,o),
(483,142,o),
(481,331,cs),
(480,435,ls),
(478,645,o),
(413,717,o),
(190,858,c),
(190,875,l),
(596,1160,l),
(596,1369,l),
(579,1378,l),
(30,986,l),
(30,752,l),
(276,582,o),
(298,592,o),
(300,433,cs),
(301,329,ls),
(302,255,o),
(267,220,o),
(182,220,cs),
(0,220,l),
(0,0,l)
);
}
);
width = 576;
}
);
metricLeft = "behDotless-ar.medi";
},
{
color = 4;
glyphname = "kaf-ar.init.ss01";
kernRight = kaf;
lastChange = "2022-08-16 13:19:25 +0000";
layers = (
{
anchors = (
{
name = bottom;
pos = (603,-50);
},
{
name = exit;
pos = (0,220);
},
{
name = top;
pos = (209,1094);
}
);
guides = (
{
angle = 218.6315;
pos = (167,742);
}
);
hints = (
{
name = _cap.strokebutt;
origin = (0,21);
type = Cap;
}
);
layerId = "1AB499B8-18A8-432D-A211-B6882CCB886D";
shapes = (
{
closed = 1;
nodes = (
(857,0,ls),
(1016,0,o),
(1103,114,o),
(1103,303,cs),
(1103,502,o),
(1018,613,o),
(857,613,cs),
(197,612,l),
(197,623,l),
(633,963,l),
(633,1182,l),
(618,1193,l),
(77,761,l),
(77,402,l),
(857,403,ls),
(921,403,o),
(933,376,o),
(933,313,cs),
(933,235,o),
(925,220,o),
(857,220,cs),
(0,220,l),
(0,0,l)
);
}
);
width = 1153;
}
);
},
{
color = 4;
glyphname = "keheh-ar";
kernLeft = beakhar;
kernRight = kaf;
lastChange = "2022-09-15 20:16:29 +0000";
layers = (
{
anchors = (
{
name = bottom;
pos = (498,-50);
},
{
name = top;
pos = (801,1215);
}
);
layerId = "1AB499B8-18A8-432D-A211-B6882CCB886D";
shapes = (
{
closed = 1;
nodes = (
(815,0,ls),
(979,0,o),
(1116,142,o),
(1114,331,cs),
(1113,435,ls),
(1111,645,o),
(1046,717,o),
(823,858,c),
(823,875,l),
(1229,1160,l),
(1229,1369,l),
(1212,1378,l),
(663,986,l),
(663,752,l),
(909,582,o),
(931,592,o),
(933,433,cs),
(934,329,ls),
(935,255,o),
(900,220,o),
(815,220,cs),
(395,220,ls),
(257,220,o),
(210,277,o),
(210,374,cs),
(210,460,o),
(236,542,o),
(282,641,c),
(137,700,l),
(98,621,o),
(60,501,o),
(60,364,cs),
(60,173,o),
(189,0,o),
(395,0,cs)
);
}
);
width = 1209;
}
);
metricLeft = "behDotless-ar.fina";
metricRight = "kaf-ar.init";
unicode = 1705;
},
{
color = 4;
glyphname = "keheh-ar.fina";
kernLeft = beakhar;
lastChange = "2022-09-15 20:16:48 +0000";
layers = (
{
anchors = (
{
name = bottom;
pos = (498,0);
},
{
name = entry;
pos = (1256,220);
},
{
name = top;
pos = (801,1215);
}
);
hints = (
{
name = _cap.strokebutt;
origin = (0,6);
type = Cap;
}
);
layerId = "1AB499B8-18A8-432D-A211-B6882CCB886D";
shapes = (
{
closed = 1;
nodes = (
(814,0,ls),
(916,0,o),
(984,64,o),
(1018,160,c),
(1064,62,o),
(1134,0,o),
(1256,0,c),
(1256,220,l),
(1160,220,o),
(1150,304,o),
(1112,499,cs),
(1080,661,o),
(1081,718,o),
(823,858,c),
(823,875,l),
(1229,1160,l),
(1229,1369,l),
(1212,1378,l),
(663,986,l),
(663,752,l),
(904,608,o),
(901,631,o),
(936,457,cs),
(945,412,o),
(954,368,o),
(963,326,c),
(963,247,o),
(934,220,o),
(814,220,cs),
(395,220,ls),
(257,220,o),
(210,277,o),
(210,374,cs),
(210,460,o),
(236,542,o),
(282,641,c),
(137,700,l),
(98,621,o),
(60,501,o),
(60,364,cs),
(60,173,o),
(189,0,o),
(395,0,cs)
);
}
);
width = 1256;
}
);
metricLeft = "behDotless-ar.fina";
metricRight = "behDotless-ar.medi";
},
{
color = 4;
glyphname = "lam-ar";
kernLeft = nun;
lastChange = "2022-09-15 18:21:40 +0000";
layers = (
{
anchors = (
{
name = bottom;
pos = (451,-549);
},
{
name = center;
pos = (813,710);
},
{
name = top;
pos = (341,534);
}
);
layerId = "1AB499B8-18A8-432D-A211-B6882CCB886D";
shapes = (
{
closed = 1;
nodes = (
(108,282,o),
(40,89,o),
(40,-91,cs),
(40,-320,o),
(180,-549,o),
(451,-549,cs),
(720,-549,o),
(903,-357,o),
(903,-113,cs),
(903,754,ls),
(903,934,o),
(903,1190,o),
(861,1380,c),
(685,1332,l),
(723,1162,o),
(719,934,o),
(723,754,cs),
(743,-113,ls),
(746,-245,o),
(637,-329,o),
(451,-329,cs),
(280,-329,o),
(203,-226,o),
(203,-84,cs),
(203,52,o),
(257,207,o),
(307,357,c),
(152,418,l)
);
}
);
width = 1003;
}
);
metricLeft = "noonghunna-ar";
metricRight = "alef-ar";
unicode = 1604;
},
{
color = 4;
glyphname = "lam-ar.fina";
kernLeft = nun;
lastChange = "2022-09-15 20:17:10 +0000";
layers = (
{
anchors = (
{
name = bottom;
pos = (451,-549);
},
{
name = center;
pos = (813,710);
},
{
name = entry;
pos = (1023,220);
},
{
name = top;
pos = (341,534);
}
);
hints = (
{
name = _cap.strokebutt;
origin = (0,34);
type = Cap;
}
);
layerId = "1AB499B8-18A8-432D-A211-B6882CCB886D";
shapes = (
{
closed = 1;
nodes = (
(929,220,o),
(903,246,o),
(903,302,cs),
(903,754,ls),
(903,934,o),
(903,1190,o),
(861,1380,c),
(685,1332,l),
(723,1162,o),
(719,934,o),
(723,754,cs),
(743,-113,ls),
(746,-245,o),
(637,-329,o),
(451,-329,cs),
(280,-329,o),
(203,-226,o),
(203,-84,cs),
(203,52,o),
(257,207,o),
(307,357,c),
(152,418,l),
(108,282,o),
(40,89,o),
(40,-91,cs),
(40,-320,o),
(180,-549,o),
(451,-549,cs),
(720,-549,o),
(903,-357,o),
(903,-113,cs),
(903,47,l),
(933,18,o),
(973,0,o),
(1023,0,c),
(1023,220,l)
);
}
);
width = 1023;
}
);
metricLeft = "noonghunna-ar";
metricRight = "behDotless-ar.medi";
},
{
color = 4;
glyphname = "lam-ar.medi";
lastChange = "2022-09-15 20:17:34 +0000";
layers = (
{
anchors = (
{
name = bottom;
pos = (211,-50);
},
{
name = center;
pos = (199,710);
},
{
name = entry;
pos = (409,220);
},
{
name = exit;
pos = (0,220);
},
{
name = top;
pos = (159,1320);
}
);
hints = (
{
name = _cap.strokebutt;
origin = (0,14);
type = Cap;
},
{
name = _cap.strokebutt;
origin = (0,21);
type = Cap;
}
);
layerId = "1AB499B8-18A8-432D-A211-B6882CCB886D";
shapes = (
{
closed = 1;
nodes = (
(315,220,o),
(289,246,o),
(289,302,cs),
(289,754,l),
(289,934,o),
(289,1190,o),
(247,1380,c),
(71,1332,l),
(109,1162,o),
(109,934,o),
(109,754,cs),
(109,336,ls),
(109,246,o),
(87,220,o),
(0,220,c),
(0,0,l),
(102,0,o),
(186,50,o),
(236,132,c),
(266,54,o),
(321,0,o),
(409,0,c),
(409,220,l)
);
}
);
width = 409;
}
);
metricLeft = "behDotless-ar.medi";
metricRight = "behDotless-ar.medi";
},
{
color = 4;
glyphname = "lam-ar.medi.ss01";
lastChange = "2022-09-15 20:17:58 +0000";
layers = (
{
anchors = (
{
name = bottom;
pos = (211,-50);
},
{
name = center;
pos = (199,710);
},
{
name = entry;
pos = (409,220);
},
{
name = exit;
pos = (0,220);
},
{
name = top;
pos = (159,1255);
}
);
hints = (
{
name = _cap.strokebutt;
origin = (0,14);
type = Cap;
},
{
name = _cap.strokebutt;
origin = (0,21);
type = Cap;
}
);
layerId = "1AB499B8-18A8-432D-A211-B6882CCB886D";
shapes = (
{
closed = 1;
nodes = (
(315,220,o),
(289,246,o),
(289,302,cs),
(289,653,ls),
(289,833,o),
(289,1089,o),
(247,1279,c),
(71,1231,l),
(109,1061,o),
(109,833,o),
(109,653,cs),
(109,336,ls),
(109,246,o),
(87,220,o),
(0,220,c),
(0,0,l),
(102,0,o),
(186,50,o),
(236,132,c),
(266,54,o),
(321,0,o),
(409,0,c),
(409,220,l)
);
}
);
width = 409;
}
);
metricLeft = "behDotless-ar.medi";
metricRight = "behDotless-ar.medi";
},
{
color = 4;
glyphname = "lam-ar.init";
kernRight = alef;
lastChange = "2022-08-18 20:38:58 +0000";
layers = (
{
anchors = (
{
name = bottom;
pos = (153,-50);
},
{
name = center;
pos = (179,710);
},
{
name = exit;
pos = (0,220);
},
{
name = top;
pos = (139,1320);
}
);
hints = (
{
name = _cap.strokebutt;
origin = (0,14);
type = Cap;
}
);
layerId = "1AB499B8-18A8-432D-A211-B6882CCB886D";
shapes = (
{
closed = 1;
nodes = (
(153,0,o),
(269,140,o),
(269,336,cs),
(269,754,ls),
(269,934,o),
(269,1190,o),
(227,1380,c),
(51,1332,l),
(89,1162,o),
(89,934,o),
(89,754,cs),
(89,336,ls),
(89,246,o),
(67,220,o),
(0,220,c),
(0,0,l)
);
}
);
width = 369;
}
);
metricLeft = "behDotless-ar.medi";
metricRight = "alef-ar";
},
{
color = 4;
glyphname = "lam-ar.init.ss01";
kernRight = alef;
lastChange = "2022-08-18 20:54:53 +0000";
layers = (
{
anchors = (
{
name = bottom;
pos = (173,-50);
},
{
name = center;
pos = (199,710);
},
{
name = exit;
pos = (0,220);
},
{
name = top;
pos = (159,1255);
}
);
hints = (
{
name = _cap.strokebutt;
origin = (0,14);
type = Cap;
}
);
layerId = "1AB499B8-18A8-432D-A211-B6882CCB886D";
shapes = (
{
closed = 1;
nodes = (
(173,0,o),
(289,140,o),
(289,336,cs),
(289,653,ls),
(289,833,o),
(289,1089,o),
(247,1279,c),
(71,1231,l),
(109,1061,o),
(109,833,o),
(109,653,cs),
(109,336,ls),
(109,246,o),
(87,220,o),
(0,220,c),
(0,0,l)
);
}
);
width = 389;
}
);
metricLeft = "behDotless-ar.medi";
metricRight = "alef-ar";
},
{
color = 4;
glyphname = "meem-ar";
kernLeft = mimakhar;
kernRight = mim;
lastChange = "2022-09-15 18:22:59 +0000";
layers = (
{
anchors = (
{
name = bottom;
pos = (130,-549);
},
{
name = top;
pos = (386,756);
}
);
layerId = "1AB499B8-18A8-432D-A211-B6882CCB886D";
shapes = (
{
attr = {
strokeHeight = 220;
strokeWidth = 180;
};
closed = 0;
nodes = (
(130,-549,l),
(130,-158,ls),
(130,38,o),
(202,160,o),
(346,160,cs),
(406,160,o),
(464,148,o),
(528,126,c),
(572,209,l),
(592,568,o),
(485,644,o),
(396,644,cs),
(280,644,o),
(230,474,o),
(230,292,c)
);
}
);
width = 704;
}
);
unicode = 1605;
},
{
color = 4;
glyphname = "meem-ar.fina";
kernLeft = mimakhar;
lastChange = "2022-09-15 20:18:17 +0000";
layers = (
{
anchors = (
{
name = bottom;
pos = (130,-549);
},
{
name = entry;
pos = (878,220);
},
{
name = top;
pos = (425,756);
}
);
hints = (
{
name = _cap.strokebutt;
origin = (0,13);
type = Cap;
}
);
layerId = "1AB499B8-18A8-432D-A211-B6882CCB886D";
shapes = (
{
closed = 1;
nodes = (
(220,-549,l),
(220,140,ls),
(220,242,o),
(220,261,o),
(282,290,c),
(304,127,o),
(374,0,o),
(523,0,cs),
(581,0,o),
(650,32,o),
(715,82,c),
(764,29,o),
(822,0,o),
(878,0,c),
(878,220,l),
(839,220,o),
(810,252,o),
(792,336,cs),
(741,569,o),
(732,754,o),
(516,754,cs),
(402,754,o),
(312,653,o),
(283,519,c),
(40,394,o),
(40,384,o),
(40,140,cs),
(40,-549,l)
);
},
{
closed = 1;
nodes = (
(457,508,o),
(475,534,o),
(516,534,cs),
(593,534,o),
(571,496,o),
(616,288,cs),
(618,281,o),
(619,274,o),
(621,267,c),
(585,238,o),
(548,220,o),
(523,220,cs),
(470,220,o),
(456,263,o),
(454,446,c)
);
}
);
width = 879;
}
);
metricLeft = "meem-ar";
metricRight = "behDotless-ar.medi";
},
{
color = 4;
glyphname = "meem-ar.medi";
lastChange = "2022-09-15 20:18:43 +0000";
layers = (
{
anchors = (
{
name = bottom;
pos = (343,-50);
},
{
name = entry;
pos = (693,220);
},
{
name = exit;
pos = (0,220);
},
{
name = top;
pos = (363,803);
}
);
hints = (
{
name = _cap.strokebutt;
origin = (0,11);
type = Cap;
},
{
name = _cap.strokebutt;
origin = (0,24);
type = Cap;
}
);
layerId = "1AB499B8-18A8-432D-A211-B6882CCB886D";
shapes = (
{
closed = 1;
nodes = (
(68,0,o),
(128,52,o),
(178,144,c),
(274,55,o),
(329,0,o),
(401,0,cs),
(453,0,o),
(505,30,o),
(544,86,c),
(584,32,o),
(633,0,o),
(693,0,c),
(693,220,l),
(644,220,o),
(621,273,o),
(604,394,cs),
(578,584,o),
(532,751,o),
(358,751,cs),
(238,751,o),
(154,639,o),
(102,421,cs),
(66,272,o),
(36,220,o),
(0,220,c),
(0,0,l)
);
},
{
closed = 1;
nodes = (
(258,369,ls),
(295,507,o),
(308,531,o),
(358,531,cs),
(423,531,o),
(426,503,o),
(446,364,cs),
(446,362,o),
(447,360,o),
(447,357,cs),
(459,242,o),
(441,220,o),
(401,220,cs),
(369,220,o),
(344,254,o),
(250,339,c)
);
}
);
width = 694;
}
);
metricLeft = "behDotless-ar.medi";
metricRight = "behDotless-ar.medi";
},
{
color = 4;
glyphname = "meem-ar.init";
kernRight = mim;
lastChange = "2022-09-15 20:19:07 +0000";
layers = (
{
anchors = (
{
name = bottom;
pos = (317,-50);
},
{
name = exit;
pos = (0,220);
},
{
name = top;
pos = (363,803);
}
);
hints = (
{
name = _cap.strokebutt;
origin = (0,17);
type = Cap;
}
);
layerId = "1AB499B8-18A8-432D-A211-B6882CCB886D";
shapes = (
{
closed = 1;
nodes = (
(70,0,o),
(131,51,o),
(180,142,c),
(275,54,o),
(330,0,o),
(401,0,cs),
(513,0,o),
(605,140,o),
(605,305,cs),
(605,563,o),
(543,751,o),
(360,751,cs),
(239,751,o),
(155,641,o),
(106,426,cs),
(71,272,o),
(42,220,o),
(0,220,c),
(0,0,l)
);
},
{
closed = 1;
nodes = (
(260,365,ls),
(296,508,o),
(308,531,o),
(360,531,cs),
(435,531,o),
(445,503,o),
(445,305,cs),
(445,240,o),
(434,220,o),
(401,220,cs),
(370,220,o),
(345,254,o),
(253,337,c)
);
}
);
width = 645;
}
);
metricLeft = "behDotless-ar.medi";
},
{
color = 4;
glyphname = "noonghunna-ar";
kernLeft = nun;
kernRight = NOON_ISO;
lastChange = "2022-09-15 18:21:40 +0000";
layers = (
{
anchors = (
{
name = bottom;
pos = (474,-549);
},
{
name = top;
pos = (484,373);
}
);
guides = (
{
angle = 206.9178;
pos = (661,439);
}
);
layerId = "1AB499B8-18A8-432D-A211-B6882CCB886D";
shapes = (
{
closed = 1;
nodes = (
(112,285,o),
(40,92,o),
(40,-91,cs),
(40,-323,o),
(188,-549,o),
(468,-549,cs),
(742,-549,o),
(938,-362,o),
(938,-113,cs),
(938,90,o),
(855,377,o),
(802,528,c),
(632,456,l),
(686,301,o),
(758,52,o),
(758,-113,cs),
(758,-243,o),
(666,-329,o),
(468,-329,cs),
(285,-329,o),
(205,-226,o),
(205,-86,cs),
(205,50,o),
(263,204,o),
(314,353,c),
(159,420,l)
);
}
);
width = 978;
}
);
unicode = 1722;
},
{
color = 4;
glyphname = "noonghunna-ar.fina";
kernLeft = nun;
lastChange = "2022-09-15 20:19:34 +0000";
layers = (
{
anchors = (
{
name = bottom;
pos = (453.438,-549);
},
{
name = entry;
pos = (917,220);
},
{
name = top;
pos = (462.962,373);
}
);
hints = (
{
name = _cap.strokebutt;
origin = (0,14);
type = Cap;
}
);
layerId = "1AB499B8-18A8-432D-A211-B6882CCB886D";
shapes = (
{
closed = 1;
nodes = (
(109,285,o),
(40,92,o),
(40,-91,cs),
(40,-323,o),
(181,-549,o),
(448,-549,cs),
(709,-549,o),
(895,-362,o),
(895,-113,cs),
(895,-76,o),
(892,-37,o),
(888,4,c),
(897,1,o),
(906,0,o),
(917,0,c),
(917,220,l),
(877,220,o),
(849,229,o),
(832,300,cs),
(810,388,o),
(786,469,o),
(766,528,c),
(604,456,l),
(655,301,o),
(724,52,o),
(724,-113,cs),
(724,-243,o),
(636,-329,o),
(448,-329,cs),
(273,-329,o),
(197,-226,o),
(197,-86,cs),
(197,50,o),
(252,204,o),
(301,353,c),
(153,420,l)
);
}
);
width = 917;
}
);
metricLeft = "noonghunna-ar";
metricRight = "behDotless-ar.medi";
},
{
color = 4;
glyphname = "noonghunna-ar.fina.ss01";
kernLeft = nun;
lastChange = "2022-09-15 20:19:48 +0000";
layers = (
{
anchors = (
{
name = bottom;
pos = (453.438,-549);
},
{
name = entry;
pos = (937,220);
},
{
name = top;
pos = (462.962,373);
}
);
hints = (
{
name = _cap.strokebutt;
origin = (0,14);
type = Cap;
}
);
layerId = "1AB499B8-18A8-432D-A211-B6882CCB886D";
shapes = (
{
closed = 1;
nodes = (
(109,285,o),
(40,92,o),
(40,-91,cs),
(40,-323,o),
(181,-549,o),
(448,-549,cs),
(709,-549,o),
(895,-362,o),
(895,-113,cs),
(895,-76,o),
(892,-35,o),
(888,7,c),
(901,2,o),
(917,0,o),
(937,0,c),
(937,220,l),
(877,220,o),
(849,229,o),
(832,300,cs),
(810,388,o),
(786,469,o),
(766,528,c),
(604,456,l),
(655,301,o),
(724,52,o),
(724,-113,cs),
(724,-243,o),
(636,-329,o),
(448,-329,cs),
(273,-329,o),
(197,-226,o),
(197,-86,cs),
(197,50,o),
(252,204,o),
(301,353,c),
(153,420,l)
);
}
);
width = 937;
}
);
metricLeft = "noonghunna-ar";
metricRight = "behDotless-ar.medi";
},
{
color = 4;
glyphname = "heh-ar";
kernLeft = heakhar;
kernRight = he;
lastChange = "2022-09-15 20:19:53 +0000";
layers = (
{
anchors = (
{
name = bottom;
pos = (308,-50);
},
{
name = top;
pos = (265,922);
}
);
layerId = "1AB499B8-18A8-432D-A211-B6882CCB886D";
shapes = (
{
closed = 1;
nodes = (
(40,75,o),
(136,0,o),
(295,0,cs),
(455,0,o),
(575,75,o),
(575,288,cs),
(575,534,o),
(496,634,o),
(263,916,c),
(139,776,l),
(203,699,l),
(63,530,o),
(40,451,o),
(40,288,cs)
);
},
{
closed = 1;
nodes = (
(200,399,o),
(204,423,o),
(303,574,c),
(401,446,o),
(415,396,o),
(415,288,cs),
(415,239,o),
(380,220,o),
(295,220,cs),
(222,220,o),
(200,246,o),
(200,288,cs)
);
}
);
width = 615;
}
);
unicode = 1607;
},
{
color = 4;
glyphname = "heh-ar.fina";
kernLeft = heakhar;
lastChange = "2022-09-15 20:19:58 +0000";
layers = (
{
anchors = (
{
name = bottom;
pos = (358,-50);
},
{
name = entry;
pos = (690,220);
},
{
name = top;
pos = (470,979);
}
);
hints = (
{
name = _cap.strokebutt;
origin = (0,17);
type = Cap;
}
);
layerId = "1AB499B8-18A8-432D-A211-B6882CCB886D";
shapes = (
{
closed = 1;
nodes = (
(617,220,o),
(589,244,o),
(580,405,cs),
(550,935,l),
(380,923,l),
(387,795,l),
(98,712,o),
(40,588,o),
(40,387,cs),
(40,231,o),
(140,110,o),
(315,110,cs),
(359,110,o),
(411,131,o),
(454,175,c),
(500,61,o),
(581,0,o),
(690,0,c),
(690,220,l)
);
},
{
closed = 1;
nodes = (
(180,499,o),
(187,520,o),
(400,576,c),
(406,460,ls),
(412,350,o),
(359,330,o),
(315,330,cs),
(214,330,o),
(180,350,o),
(180,387,cs)
);
}
);
width = 690;
}
);
metricRight = "behDotless-ar.medi";
},
{
color = 4;
glyphname = "heh-ar.medi";
lastChange = "2022-09-15 20:20:29 +0000";
layers = (
{
anchors = (
{
name = bottom;
pos = (273,-464);
},
{
name = entry;
pos = (550,220);
},
{
name = top;
pos = (251,584);
}
);
guides = (
{
angle = 250.3316;
pos = (288,498);
}
);
hints = (
{
name = _cap.strokebutt;
origin = (0,15);
type = Cap;
},
{
name = _cap.strokebutt;
origin = (0,3);
type = Cap;
}
);
layerId = "1AB499B8-18A8-432D-A211-B6882CCB886D";
shapes = (
{
closed = 1;
nodes = (
(120,302,ls),
(96,234,o),
(83,220,o),
(0,220,c),
(0,0,l),
(24,0,o),
(46,2,o),
(66,6,c),
(55,-107,o),
(83,-179,o),
(137,-260,cs),
(273,-464,l),
(373,-440,l),
(474,-60,o),
(455,0,o),
(550,0,c),
(550,220,l),
(386,220,o),
(344,80,o),
(282,-170,c),
(261,-138,ls),
(193,-37,o),
(193,-37,o),
(273,184,cs),
(373,461,l),
(203,535,l)
);
}
);
width = 550;
}
);
metricLeft = "behDotless-ar.medi";
metricRight = "behDotless-ar.medi";
},
{
color = 4;
glyphname = "heh-ar.init";
kernRight = he;
lastChange = "2022-09-15 20:23:46 +0000";
layers = (
{
anchors = (
{
name = bottom;
pos = (367,-50);
},
{
name = exit;
pos = (0,220);
},
{
name = top;
pos = (231,1029);
}
);
hints = (
{
name = _cap.strokebutt;
origin = (0,9);
type = Cap;
}
);
layerId = "1AB499B8-18A8-432D-A211-B6882CCB886D";
shapes = (
{
closed = 1;
nodes = (
(187,765,l),
(101,680,o),
(43,505,o),
(43,365,cs),
(43,313,o),
(60,267,o),
(88,226,c),
(59,222,o),
(30,219,o),
(0,219,c),
(0,-1,l),
(91,-1,o),
(186,26,o),
(268,79,c),
(371,25,o),
(480,-1,o),
(522,-1,cs),
(668,-1,o),
(741,156,o),
(741,310,cs),
(741,498,o),
(689,562,o),
(566,665,cs),
(253,929,l),
(153,794,l)
);
},
{
closed = 1;
nodes = (
(163,484,o),
(233,598,o),
(296,598,cs),
(329,598,o),
(360,558,o),
(360,476,cs),
(360,401,o),
(321,339,o),
(260,295,c),
(204,320,o),
(163,347,o),
(163,365,cs)
);
},
{
closed = 1;
nodes = (
(457,304,o),
(480,384,o),
(480,476,cs),
(480,490,o),
(479,505,o),
(478,519,c),
(601,415,o),
(621,415,o),
(621,310,cs),
(621,237,o),
(592,219,o),
(522,219,cs),
(497,219,o),
(460,226,o),
(419,237,c)
);
}
);
width = 781;
}
);
metricLeft = "behDotless-ar.medi";
},
{
color = 4;
glyphname = "hehgoal-ar.fina";
lastChange = "2022-09-15 20:21:13 +0000";
layers = (
{
anchors = (
{
name = bottom;
pos = (325,-50);
},
{
name = entry;
pos = (610,220);
},
{
name = top;
pos = (325,664);
}
);
hints = (
{
name = _cap.strokebutt;
origin = (0,3);
type = Cap;
}
);
layerId = "1AB499B8-18A8-432D-A211-B6882CCB886D";
shapes = (
{
closed = 1;
nodes = (
(335,285,l),
(383,148,o),
(450,0,o),
(610,0,c),
(610,220,l),
(536,220,o),
(511,347,o),
(415,609,c),
(273,609,l),
(40,75,l),
(204,-13,l)
);
}
);
width = 611;
}
);
metricRight = "behDotless-ar.medi";
},
{
color = 4;
glyphname = "hehgoal-ar.medi";
lastChange = "2022-06-13 22:29:18 +0000";
layers = (
{
layerId = "1AB499B8-18A8-432D-A211-B6882CCB886D";
shapes = (
{
ref = "heh-ar.medi";
},
{
closed = 1;
nodes = (
(186,-517,l),
(105,-702,o),
(91,-741,o),
(91,-812,cs),
(91,-909,o),
(109,-927,o),
(205,-927,cs),
(297,-927,o),
(314,-907,o),
(314,-818,cs),
(314,-725,o),
(296,-705,o),
(222,-705,c),
(283,-549,l)
);
}
);
width = 490;
}
);
},
{
color = 4;
glyphname = "hehgoal-ar.init";
kernRight = be;
lastChange = "2022-08-22 18:12:39 +0000";
layers = (
{
layerId = "1AB499B8-18A8-432D-A211-B6882CCB886D";
shapes = (
{
ref = "behDotless-ar.init";
},
{
closed = 1;
nodes = (
(155,-59,l),
(74,-244,o),
(60,-283,o),
(60,-354,cs),
(60,-451,o),
(78,-469,o),
(174,-469,cs),
(266,-469,o),
(283,-449,o),
(283,-360,cs),
(283,-267,o),
(265,-247,o),
(191,-247,c),
(252,-91,l)
);
}
);
width = 337;
}
);
},
{
color = 4;
glyphname = "hehgoal-ar.init.ss01";
kernRight = be;
lastChange = "2022-08-23 09:12:01 +0000";
layers = (
{
layerId = "1AB499B8-18A8-432D-A211-B6882CCB886D";
shapes = (
{
ref = "behDotless-ar.init.ss01";
},
{
closed = 1;
nodes = (
(155,-59,l),
(74,-244,o),
(60,-283,o),
(60,-354,cs),
(60,-451,o),
(78,-469,o),
(174,-469,cs),
(266,-469,o),
(283,-449,o),
(283,-360,cs),
(283,-267,o),
(265,-247,o),
(191,-247,c),
(252,-91,l)
);
}
);
width = 460;
}
);
},
{
color = 4;
glyphname = "hehDoachashmee-ar";
kernRight = he;
lastChange = "2022-09-15 20:23:56 +0000";
layers = (
{
anchors = (
{
name = bottom;
pos = (621,0);
},
{
name = top;
pos = (473,1030);
}
);
layerId = "1AB499B8-18A8-432D-A211-B6882CCB886D";
shapes = (
{
closed = 1;
nodes = (
(361,0,o),
(456,27,o),
(538,80,c),
(641,26,o),
(750,0,o),
(792,0,cs),
(938,0,o),
(1011,157,o),
(1011,311,cs),
(1011,499,o),
(959,563,o),
(836,666,cs),
(523,930,l),
(423,795,l),
(457,766,l),
(371,681,o),
(313,506,o),
(313,366,cs),
(313,314,o),
(330,268,o),
(358,227,c),
(329,223,o),
(300,220,o),
(270,220,cs),
(205.506,220,o),
(156.872,236.486,o),
(100.46,259.715,c),
(39.54,56.285,l),
(121.532,22.524,o),
(185.894,0,o),
(270,0,cs)
);
},
{
closed = 1;
nodes = (
(433,485,o),
(503,599,o),
(566,599,cs),
(599,599,o),
(630,559,o),
(630,477,cs),
(630,402,o),
(591,340,o),
(530,296,c),
(474,321,o),
(433,348,o),
(433,366,cs)
);
},
{
closed = 1;
nodes = (
(727,305,o),
(750,385,o),
(750,477,cs),
(750,491,o),
(749,506,o),
(748,520,c),
(871,416,o),
(891,416,o),
(891,311,cs),
(891,238,o),
(862,220,o),
(792,220,cs),
(767,220,o),
(730,227,o),
(689,238,c)
);
}
);
width = 1051;
}
);
metricRight = "heh-ar.init";
unicode = 1726;
},
{
color = 4;
glyphname = "hehDoachashmee-ar.fina";
lastChange = "2022-09-15 20:24:14 +0000";
layers = (
{
anchors = (
{
name = bottom;
pos = (542,-487);
},
{
name = entry;
pos = (804,220);
},
{
name = top;
pos = (542,774);
}
);
guides = (
{
angle = 260.7164;
pos = (100,267);
}
);
hints = (
{
name = _cap.strokebutt;
origin = (0,15);
type = Cap;
}
);
layerId = "1AB499B8-18A8-432D-A211-B6882CCB886D";
shapes = (
{
closed = 1;
nodes = (
(280,0,o),
(280,0,o),
(281,0,cs),
(293,0,o),
(305,0,o),
(317,1,c),
(319,-385,o),
(436,-486,o),
(550,-486,cs),
(684,-486,o),
(769,-328,o),
(769,-190,cs),
(769,-129,o),
(759,-75,o),
(728,0,c),
(804,0,l),
(804,220,l),
(684,220,l),
(740,317,o),
(755,423,o),
(755,479,cs),
(755,608,o),
(675,775,o),
(555,775,cs),
(442,775,o),
(320,636,o),
(318,235,cs),
(318,221,l),
(306,220,o),
(294,220,o),
(281,220,cs),
(214,220,o),
(160,238,o),
(100,267,c),
(64,48,l),
(141,16,o),
(207,0,o),
(280,0,c)
);
},
{
closed = 1;
nodes = (
(457,28,l),
(481,36,o),
(503,46,o),
(523,57,c),
(621,-119,o),
(629,-143,o),
(629,-190,cs),
(629,-242,o),
(611,-266,o),
(550,-266,cs),
(477,-266,o),
(456,-246,o),
(457,17,cs)
);
},
{
closed = 1;
nodes = (
(460,517,o),
(496,555,o),
(555,555,cs),
(601,555,o),
(615,526,o),
(615,479,cs),
(615,418,o),
(593,303,o),
(458,249,c)
);
}
);
width = 804;
}
);
metricRight = "behDotless-ar.medi";
},
{
color = 4;
glyphname = "hehDoachashmee-ar.medi";
lastChange = "2022-09-15 20:26:25 +0000";
layers = (
{
anchors = (
{
name = bottom;
pos = (262,-487);
},
{
name = entry;
pos = (524,220);
},
{
name = exit;
pos = (0,220);
},
{
name = top;
pos = (262,774);
}
);
hints = (
{
name = _cap.strokebutt;
origin = (0,12);
type = Cap;
},
{
name = _cap.strokebutt;
origin = (0,27);
type = Cap;
}
);
layerId = "1AB499B8-18A8-432D-A211-B6882CCB886D";
shapes = (
{
closed = 1;
nodes = (
(13,0,o),
(25,0,o),
(37,1,c),
(39,-385,o),
(156,-486,o),
(270,-486,cs),
(404,-486,o),
(489,-328,o),
(489,-190,cs),
(489,-129,o),
(479,-75,o),
(448,0,c),
(524,0,l),
(524,220,l),
(404,220,l),
(460,317,o),
(475,423,o),
(475,479,cs),
(475,608,o),
(395,775,o),
(275,775,cs),
(162,775,o),
(40,636,o),
(38,235,cs),
(38,221,l),
(26,220,o),
(13,220,o),
(0,220,c),
(0,0,l)
);
},
{
closed = 1;
nodes = (
(177,28,l),
(201,36,o),
(223,46,o),
(243,57,c),
(341,-119,o),
(349,-143,o),
(349,-190,cs),
(349,-242,o),
(331,-266,o),
(270,-266,cs),
(197,-266,o),
(176,-246,o),
(177,17,cs)
);
},
{
closed = 1;
nodes = (
(180,517,o),
(216,555,o),
(275,555,cs),
(321,555,o),
(335,526,o),
(335,479,cs),
(335,418,o),
(313,303,o),
(178,249,c)
);
}
);
width = 524;
}
);
metricLeft = "behDotless-ar.medi";
metricRight = "behDotless-ar.medi";
},
{
color = 4;
glyphname = "waw-ar";
kernLeft = wawakhar;
kernRight = re;
lastChange = "2022-09-15 20:26:56 +0000";
layers = (
{
anchors = (
{
name = bottom;
pos = (348,-549);
},
{
name = top;
pos = (338,777);
}
);
layerId = "1AB499B8-18A8-432D-A211-B6882CCB886D";
shapes = (
{
closed = 1;
nodes = (
(471,-336,o),
(588,-111,o),
(588,104,cs),
(588,493,o),
(519,728,o),
(321,728,cs),
(160,728,o),
(80,493,o),
(80,329,cs),
(80,127,o),
(180,0,o),
(331,0,cs),
(352,0,o),
(374,3,o),
(397,9,c),
(369,-102,o),
(285,-222,o),
(95,-370,c),
(207,-544,l)
);
},
{
closed = 1;
nodes = (
(240,417,o),
(280,508,o),
(321,508,cs),
(376,508,o),
(406,439,o),
(410,246,c),
(386,230,o),
(356,220,o),
(331,220,cs),
(264,220,o),
(240,235,o),
(240,329,cs)
);
}
);
width = 648;
}
);
unicode = 1608;
},
{
color = 4;
glyphname = "waw-ar.fina";
kernLeft = wawakhar;
lastChange = "2022-09-15 20:27:08 +0000";
layers = (
{
anchors = (
{
name = bottom;
pos = (335,-549);
},
{
name = entry;
pos = (632,220);
},
{
name = top;
pos = (335,780);
}
);
hints = (
{
name = _cap.strokebutt;
origin = (0,3);
type = Cap;
}
);
layerId = "1AB499B8-18A8-432D-A211-B6882CCB886D";
shapes = (
{
closed = 1;
nodes = (
(419,-369,o),
(537,-182,o),
(569,0,c),
(632,0,l),
(632,220,l),
(586,220,l),
(572,539,o),
(498,728,o),
(320,728,cs),
(161,728,o),
(80,495,o),
(80,329,cs),
(80,132,o),
(166,0,o),
(366,0,cs),
(384,0,l),
(354,-109,o),
(270,-226,o),
(85,-370,c),
(197,-544,l)
);
},
{
closed = 1;
nodes = (
(240,417,o),
(270,508,o),
(320,508,cs),
(378,508,o),
(409,433,o),
(410,220,c),
(346,220,ls),
(258,220,o),
(240,240,o),
(240,329,cs)
);
}
);
width = 632;
}
);
metricLeft = "waw-ar";
metricRight = "behDotless-ar.medi";
},
{
color = 4;
glyphname = "alefMaksura-ar";
kernLeft = nun;
kernRight = ye;
lastChange = "2022-09-15 18:21:40 +0000";
layers = (
{
anchors = (
{
name = bottom;
pos = (465,-449);
},
{
name = top;
pos = (405,634);
}
);
layerId = "1AB499B8-18A8-432D-A211-B6882CCB886D";
shapes = (
{
closed = 1;
nodes = (
(995,705,o),
(910,796,o),
(795,796,cs),
(614,796,o),
(382,554,o),
(382,340,cs),
(382,156,o),
(493,76,o),
(647,57,cs),
(744,45,o),
(796,27,o),
(796,-33,cs),
(796,-95,o),
(650,-229,o),
(449,-229,cs),
(276,-229,o),
(205,-127,o),
(205,16,cs),
(205,154,o),
(258,309,o),
(304,458,c),
(147,517,l),
(105,381,o),
(40,189,o),
(40,9,cs),
(40,-218,o),
(173,-449,o),
(449,-449,cs),
(719,-449,o),
(966,-224,o),
(966,-33,cs),
(966,155,o),
(836,254,o),
(669,275,cs),
(578,287,o),
(552,292,o),
(552,340,cs),
(552,438,o),
(692,576,o),
(785,576,cs),
(820,576,o),
(845,557,o),
(859,494,c),
(1031,578,l)
);
}
);
width = 1061;
}
);
metricLeft = "noonghunna-ar";
unicode = 1609;
},
{
color = 4;
glyphname = "alefMaksura-ar.fina";
kernLeft = nun;
lastChange = "2022-09-15 20:27:47 +0000";
layers = (
{
anchors = (
{
name = bottom;
pos = (485,-549);
},
{
name = entry;
pos = (908,220);
},
{
name = top;
pos = (492,426);
}
);
layerId = "1AB499B8-18A8-432D-A211-B6882CCB886D";
shapes = (
{
closed = 1;
nodes = (
(205,54,o),
(258,209,o),
(304,358,c),
(147,417,l),
(105,281,o),
(40,89,o),
(40,-91,cs),
(40,-317,o),
(167,-549,o),
(456,-549,cs),
(746,-549,o),
(998,-330,o),
(998,-115,cs),
(998,-72,o),
(988,-19,o),
(960,35,c),
(972,55,o),
(978,82,o),
(978,110,cs),
(978,168,o),
(952,220,o),
(907,220,cs),
(744,220,o),
(686,274,o),
(497,286,c),
(480,67,l),
(783,30,o),
(828,-53,o),
(828,-115,cs),
(828,-200,o),
(677,-329,o),
(456,-329,cs),
(273,-329,o),
(205,-232,o),
(205,-84,cs)
);
}
);
width = 908;
}
);
metricLeft = "noonghunna-ar";
},
{
color = 4;
glyphname = "alefMaksura-ar.fina.ss01";
kernLeft = nun;
lastChange = "2022-09-15 20:28:02 +0000";
layers = (
{
anchors = (
{
name = bottom;
pos = (478,-549);
},
{
name = entry;
pos = (1033,220);
},
{
name = top;
pos = (487,426);
}
);
hints = (
{
name = _cap.strokebutt;
origin = (0,18);
type = Cap;
}
);
layerId = "1AB499B8-18A8-432D-A211-B6882CCB886D";
shapes = (
{
closed = 1;
nodes = (
(205,54,o),
(258,209,o),
(304,358,c),
(147,417,l),
(105,281,o),
(40,89,o),
(40,-91,cs),
(40,-317,o),
(167,-549,o),
(456,-549,cs),
(746,-549,o),
(998,-330,o),
(998,-115,cs),
(998,-81,o),
(992,-41,o),
(976,1,c),
(994,0,o),
(1013,0,o),
(1033,0,c),
(1033,220,l),
(810,220,o),
(751,271,o),
(496,286,c),
(480,67,l),
(783,30,o),
(828,-53,o),
(828,-115,cs),
(828,-200,o),
(677,-329,o),
(456,-329,cs),
(273,-329,o),
(205,-233,o),
(205,-84,cs)
);
}
);
width = 1033;
}
);
metricLeft = "noonghunna-ar";
metricRight = "behDotless-ar.medi";
},
{
color = 4;
glyphname = "yehbarree-ar";
kernLeft = yebari;
kernRight = yebaree;
lastChange = "2022-09-15 18:25:28 +0000";
layers = (
{
anchors = (
{
name = bottom;
pos = (571,-60);
},
{
name = top;
pos = (637,793);
}
);
layerId = "1AB499B8-18A8-432D-A211-B6882CCB886D";
shapes = (
{
closed = 1;
nodes = (
(355,577,o),
(291,606,o),
(157,438,cs),
(-103,113,o),
(85,-10,o),
(571,-10,cs),
(701,-10,o),
(896,-3,o),
(1013,16,c),
(1033,234,l),
(880,217,o),
(695,200,o),
(551,200,cs),
(300,200,o),
(230,242,o),
(284,316,cs),
(363,425,o),
(390,400,o),
(521,426,cs),
(727,467,o),
(817,515,o),
(817,743,c),
(637,743,l),
(637,680,o),
(624,648,o),
(541,626,cs)
);
}
);
width = 1073;
}
);
unicode = 1746;
},
{
color = 4;
glyphname = "yehbarree-ar.fina";
kernLeft = yebari;
lastChange = "2022-09-15 18:25:28 +0000";
layers = (
{
anchors = (
{
name = bottom;
pos = (587,-436);
},
{
name = entry;
pos = (933,220);
},
{
name = top;
pos = (670,270);
}
);
hints = (
{
name = _cap.strokebutt;
origin = (0,9);
type = Cap;
}
);
layerId = "1AB499B8-18A8-432D-A211-B6882CCB886D";
shapes = (
{
closed = 1;
nodes = (
(742,-220,o),
(617,-226,o),
(537,-226,cs),
(295,-226,o),
(257,-186,o),
(311,-110,cs),
(371,-25,o),
(424,0,o),
(522,0,cs),
(933,0,l),
(933,220,l),
(542,220,ls),
(387,220,o),
(331,212,o),
(142,-25,cs),
(-41,-254,o),
(-18,-436,o),
(557,-436,cs),
(643,-436,o),
(758,-430,o),
(845,-420,c),
(875,-202,l)
);
}
);
width = 933;
}
);
},
{
color = 5;
glyphname = "yehbarree-ar.fina.ss01";
kernLeft = yebari;
lastChange = "2022-09-15 18:25:28 +0000";
layers = (
{
anchors = (
{
name = bottom;
pos = (644,-436);
},
{
name = entry;
pos = (731,220);
},
{
name = top;
pos = (464,270);
}
);
hints = (
{
name = _cap.strokebutt;
origin = (0,19);
type = Cap;
}
);
layerId = "1AB499B8-18A8-432D-A211-B6882CCB886D";
shapes = (
{
closed = 1;
nodes = (
(366,220,o),
(314,180,o),
(180,12,cs),
(-80,-313,o),
(108,-436,o),
(644,-436,cs),
(794,-436,o),
(919,-429,o),
(1056,-410,c),
(1076,-192,l),
(903,-209,o),
(788,-216,o),
(644,-216,cs),
(343,-216,o),
(273,-184,o),
(327,-110,cs),
(406,-1,o),
(426,0,o),
(564,0,cs),
(731,0,l),
(731,220,l),
(564,220,ls)
);
}
);
width = 731;
}
);
},
{
color = 5;
glyphname = "yehbarree-ar.fina.ss02";
kernLeft = yebari;
lastChange = "2022-09-15 18:25:28 +0000";
layers = (
{
anchors = (
{
name = bottom;
pos = (644,-436);
},
{
name = entry;
pos = (831,220);
},
{
name = top;
pos = (564,270);
}
);
hints = (
{
name = _cap.strokebutt;
origin = (0,19);
type = Cap;
}
);
layerId = "1AB499B8-18A8-432D-A211-B6882CCB886D";
shapes = (
{
closed = 1;
nodes = (
(366,220,o),
(314,180,o),
(180,12,cs),
(-80,-313,o),
(108,-436,o),
(644,-436,cs),
(774,-436,o),
(899,-429,o),
(1006,-410,c),
(1026,-192,l),
(883,-209,o),
(768,-216,o),
(644,-216,cs),
(343,-216,o),
(273,-184,o),
(327,-110,cs),
(406,-1,o),
(426,0,o),
(564,0,cs),
(831,0,l),
(831,220,l),
(564,220,ls)
);
}
);
width = 831;
}
);
},
{
color = 4;
glyphname = "kashida-ar";
lastChange = "2022-08-16 11:58:45 +0000";
layers = (
{
anchors = (
{
name = entry;
pos = (267,220);
}
);
hints = (
{
name = _cap.strokebutt;
origin = (0,2);
type = Cap;
},
{
name = _cap.strokebutt;
origin = (0,0);
type = Cap;
}
);
layerId = "1AB499B8-18A8-432D-A211-B6882CCB886D";
shapes = (
{
closed = 1;
nodes = (
(0,220,l),
(0,0,l),
(267,0,l),
(267,220,l)
);
}
);
width = 267;
}
);
metricLeft = "behDotless-ar.medi";
metricRight = "behDotless-ar.medi";
unicode = 1600;
},
{
color = 4;
glyphname = "lam_alef-ar";
kernRight = la;
lastChange = "2022-09-15 20:28:47 +0000";
layers = (
{
anchors = (
{
name = bottom_1;
pos = (557,0);
},
{
name = bottom_2;
pos = (191,0);
},
{
name = caret_1;
pos = (374,0);
},
{
name = top_1;
pos = (576,1370);
},
{
name = top_2;
pos = (144,1201);
}
);
guides = (
{
angle = 217.8228;
pos = (116,1204);
}
);
layerId = "1AB499B8-18A8-432D-A211-B6882CCB886D";
shapes = (
{
closed = 1;
nodes = (
(354,652,l),
(145,259,l),
(82,268,l),
(82,48,l),
(177,28,o),
(258,0,o),
(409,0,cs),
(602,0,o),
(706,92,o),
(706,266,cs),
(706,396,o),
(693,475,o),
(618,593,cs),
(569,669,l),
(624,778,o),
(666,893,o),
(666,1002,cs),
(666,1370,l),
(486,1370,l),
(486,1002,ls),
(486,956,o),
(473,907,o),
(452,854,c),
(192,1263,l),
(40,1145,l)
);
},
{
closed = 1;
nodes = (
(462,481,l),
(524,384,o),
(546,369,o),
(546,276,cs),
(546,223,o),
(520,220,o),
(429,220,cs),
(387,220,o),
(350,224,o),
(311,230,c)
);
}
);
width = 746;
}
);
},
{
color = 4;
glyphname = "lam_alef-ar.fina";
lastChange = "2022-09-15 20:29:02 +0000";
layers = (
{
anchors = (
{
name = bottom;
pos = (601,0);
},
{
name = bottom_1;
pos = (549,0);
},
{
name = bottom_2;
pos = (168,0);
},
{
name = caret_1;
pos = (358,0);
},
{
name = entry;
pos = (797,220);
},
{
name = top;
pos = (559,1320);
},
{
name = top_1;
pos = (559,1470);
},
{
name = top_2;
pos = (125,1252);
}
);
guides = (
{
angle = 212.5175;
pos = (90,1222);
},
{
angle = -75.6997;
pos = (136,7);
}
);
hints = (
{
name = _cap.strokebutt;
origin = (0,25);
type = Cap;
}
);
layerId = "1AB499B8-18A8-432D-A211-B6882CCB886D";
shapes = (
{
closed = 1;
nodes = (
(711,220,o),
(689,246,o),
(689,336,cs),
(689,754,ls),
(689,934,o),
(689,1190,o),
(647,1380,c),
(471,1332,l),
(509,1162,o),
(509,934,o),
(509,754,cs),
(509,719,l),
(376,413,ls),
(323,292,o),
(294,278,o),
(88,208,c),
(132,4,l),
(325,68,o),
(409,112,o),
(468,303,cs),
(499,403,l),
(509,403,l),
(509,336,ls),
(509,130,o),
(615,0,o),
(797,0,c),
(797,220,l)
);
},
{
closed = 1;
nodes = (
(211,789,o),
(211,789,o),
(213,528,c),
(373,528,l),
(373,834,o),
(373,834,o),
(210,1313,c),
(50,1251,l)
);
}
);
width = 797;
}
);
metricRight = "lam-ar.medi";
},
{
color = 4;
glyphname = "lam_alef-ar.fina.ss01";
lastChange = "2022-09-15 20:29:15 +0000";
layers = (
{
anchors = (
{
name = bottom;
pos = (591,0);
},
{
name = bottom_1;
pos = (549,0);
},
{
name = bottom_2;
pos = (168,0);
},
{
name = caret_1;
pos = (358,0);
},
{
name = entry;
pos = (777,220);
},
{
name = top;
pos = (559,1254);
},
{
name = top_1;
pos = (559,1254);
},
{
name = top_2;
pos = (145,1127);
}
);
guides = (
{
angle = 212.5175;
pos = (90,1222);
},
{
angle = -75.6997;
pos = (136,7);
},
{
pos = (613,1227);
}
);
hints = (
{
name = _cap.strokebutt;
origin = (0,24);
type = Cap;
}
);
layerId = "1AB499B8-18A8-432D-A211-B6882CCB886D";
shapes = (
{
closed = 1;
nodes = (
(711,220,o),
(689,246,o),
(689,336,cs),
(689,653,ls),
(689,833,o),
(689,1089,o),
(647,1279,c),
(471,1231,l),
(504,1081,o),
(508,886,o),
(509,719,c),
(376,413,ls),
(323,292,o),
(294,278,o),
(88,208,c),
(132,4,l),
(325,68,o),
(409,112,o),
(468,303,cs),
(499,403,l),
(509,403,l),
(509,336,ls),
(509,140,o),
(625,0,o),
(777,0,c),
(777,220,l)
);
},
{
closed = 1;
nodes = (
(211,789,o),
(211,789,o),
(213,528,c),
(373,528,l),
(373,834,o),
(373,834,o),
(210,1213,c),
(50,1141,l)
);
}
);
width = 777;
}
);
metricRight = "lam-ar.medi";
},
{
color = 4;
glyphname = "lam_alef-ar.ss01";
kernRight = la;
lastChange = "2022-09-15 20:29:27 +0000";
layers = (
{
anchors = (
{
name = bottom_1;
pos = (557,0);
},
{
name = bottom_2;
pos = (191,0);
},
{
name = caret_1;
pos = (374,0);
},
{
name = top_1;
pos = (576,1274);
},
{
name = top_2;
pos = (144,1094);
}
);
guides = (
{
angle = 217.8228;
pos = (116,1204);
},
{
pos = (748,1244);
}
);
layerId = "1AB499B8-18A8-432D-A211-B6882CCB886D";
shapes = (
{
closed = 1;
nodes = (
(346,637,l),
(338,622,l),
(145,259,l),
(82,268,l),
(82,48,l),
(177,28,o),
(258,0,o),
(409,0,cs),
(602,0,o),
(706,92,o),
(706,266,cs),
(706,396,o),
(702,481,o),
(618,593,cs),
(566,663,l),
(622,773,o),
(666,890,o),
(666,1002,cs),
(666,1274,l),
(486,1274,l),
(486,1002,ls),
(486,949,o),
(469,891,o),
(442,829,c),
(207,1143,l),
(57,1026,l)
);
},
{
closed = 1;
nodes = (
(462,481,l),
(466,475,ls),
(530,389,o),
(546,369,o),
(546,276,cs),
(546,223,o),
(520,220,o),
(429,220,cs),
(387,220,o),
(350,224,o),
(311,230,c)
);
}
);
width = 746;
}
);
},
{
color = 4;
glyphname = "thousandseparator-ar";
lastChange = "2022-08-22 20:49:41 +0000";
layers = (
{
layerId = "1AB499B8-18A8-432D-A211-B6882CCB886D";
shapes = (
{
closed = 1;
nodes = (
(341,178,l),
(162,233,l),
(60,-229,l),
(169,-261,l)
);
}
);
width = 401;
}
);
metricWidth = "";
unicode = 1644;
},
{
color = 4;
glyphname = "zero-ar";
kernLeft = "0";
kernRight = "0";
lastChange = "2022-08-16 09:51:58 +0000";
layers = (
{
layerId = "1AB499B8-18A8-432D-A211-B6882CCB886D";
shapes = (
{
closed = 1;
nodes = (
(228,313,o),
(210,335,o),
(210,388,cs),
(210,440,o),
(228,462,o),
(285,462,cs),
(341,462,o),
(359,440,o),
(359,388,cs),
(359,334,o),
(342,313,o),
(285,313,cs)
);
},
{
closed = 1;
nodes = (
(454,103,o),
(509,222,o),
(509,388,cs),
(509,564,o),
(444,672,o),
(285,672,cs),
(116,672,o),
(60,552,o),
(60,388,cs),
(60,224,o),
(114,103,o),
(285,103,cs)
);
}
);
width = 569;
}
);
unicode = 1632;
},
{
color = 4;
glyphname = "one-ar";
kernLeft = "1";
kernRight = "1";
lastChange = "2022-09-15 20:33:21 +0000";
layers = (
{
layerId = "1AB499B8-18A8-432D-A211-B6882CCB886D";
shapes = (
{
closed = 1;
nodes = (
(278,334,ls),
(278,651.969,o),
(275.694,728.077,o),
(187.91,1287.065,c),
(10.09,1252.935,l),
(96.306,703.923,o),
(98,648.031,o),
(98,334,cs),
(98,0,l),
(278,0,l)
);
}
);
width = 358;
}
);
unicode = 1633;
},
{
color = 4;
glyphname = "two-ar";
kernLeft = "1";
kernRight = "2";
lastChange = "2022-09-15 20:32:01 +0000";
layers = (
{
layerId = "1AB499B8-18A8-432D-A211-B6882CCB886D";
shapes = (
{
closed = 1;
nodes = (
(278,334,ls),
(278,510,o),
(277,612,o),
(262,763,c),
(305,744,o),
(346,735,o),
(385,735,cs),
(563,735,o),
(652,905,o),
(600,1286,c),
(432,1256,l),
(460,975,o),
(447,955,o),
(385,955,cs),
(341,955,o),
(289,960,o),
(234,980,c),
(223,1064,o),
(207,1164,o),
(188,1287,c),
(10,1253,l),
(96,704,o),
(98,648,o),
(98,334,cs),
(98,0,l),
(278,0,l)
);
}
);
width = 675;
}
);
metricLeft = "one-ar";
unicode = 1634;
},
{
color = 4;
glyphname = "three-ar";
kernLeft = "1";
kernRight = "3";
lastChange = "2022-09-15 20:32:14 +0000";
layers = (
{
layerId = "1AB499B8-18A8-432D-A211-B6882CCB886D";
shapes = (
{
closed = 1;
nodes = (
(278,334,ls),
(278,500,o),
(277,600,o),
(264,737,c),
(275,735,o),
(286,734,o),
(297,734,cs),
(362,734,o),
(425,764,o),
(468,838,c),
(508,770,o),
(559,747,o),
(608,747,cs),
(734,747,o),
(826,851,o),
(826,1073,cs),
(826,1193,o),
(822,1238,o),
(814,1286,c),
(646,1250,l),
(677,990,o),
(649,967,o),
(608,967,cs),
(580,967,o),
(544,969,o),
(511,973,c),
(522,1045,o),
(522,1134,o),
(507,1245,c),
(349,1215,l),
(373,970,o),
(352,954,o),
(297,954,cs),
(280,954,o),
(261,958,o),
(237,963,c),
(225,1051,o),
(209,1155,o),
(188,1287,c),
(10,1253,l),
(96,704,o),
(98,648,o),
(98,334,cs),
(98,0,l),
(278,0,l)
);
}
);
width = 886;
}
);
metricLeft = "one-ar";
metricRight = "two-ar";
unicode = 1635;
},
{
color = 4;
glyphname = "four-ar";
lastChange = "2022-09-15 20:32:31 +0000";
layers = (
{
layerId = "1AB499B8-18A8-432D-A211-B6882CCB886D";
shapes = (
{
closed = 1;
nodes = (
(349,220,ls),
(230,220,o),
(200,246,o),
(200,318,cs),
(200,393,o),
(255,470,o),
(514,571,c),
(514,739,l),
(240,739,o),
(217,755,o),
(217,846,cs),
(217,919,o),
(279,987,o),
(478,1072,c),
(478,1289,l),
(181,1181,o),
(57,1020,o),
(57,846,cs),
(57,704,o),
(101,623,o),
(190,586,c),
(91,499,o),
(40,420,o),
(40,308,cs),
(40,95,o),
(122,0,o),
(349,0,cs),
(565,0,l),
(565,220,l)
);
}
);
width = 605;
}
);
unicode = 1636;
},
{
color = 4;
glyphname = "five-ar";
lastChange = "2022-09-15 20:32:41 +0000";
layers = (
{
layerId = "1AB499B8-18A8-432D-A211-B6882CCB886D";
shapes = (
{
closed = 1;
nodes = (
(269.079,321,o),
(210,378.06,o),
(210,473,cs),
(210,672.813,o),
(290.286,933,o),
(390,933,cs),
(488.714,933,o),
(569,672.813,o),
(569,473,cs),
(569,377.77,o),
(510.723,321,o),
(390,321,cs)
);
},
{
closed = 1;
nodes = (
(583.877,101,o),
(739,262.23,o),
(739,473,cs),
(739,725.587,o),
(613.486,1153,o),
(390,1153,cs),
(165.714,1153,o),
(40,725.787,o),
(40,473,cs),
(40,262.14,o),
(196.121,101,o),
(390,101,cs)
);
}
);
width = 779;
}
);
unicode = 1637;
},
{
color = 4;
glyphname = "six-ar";
kernRight = "9";
lastChange = "2022-08-16 10:17:02 +0000";
layers = (
{
layerId = "1AB499B8-18A8-432D-A211-B6882CCB886D";
shapes = (
{
closed = 1;
nodes = (
(474,633,o),
(473,618,o),
(503,1286,c),
(417,1249,o),
(334,1234,o),
(248,1234,cs),
(170,1234,o),
(94,1250,o),
(10,1287,c),
(10,1071,l),
(70,1032,o),
(150,1014,o),
(218,1014,cs),
(252,1014,o),
(277,1017,o),
(311,1021,c),
(295,585,o),
(308,497,o),
(370,-13,c),
(548,13,l)
);
}
);
width = 588;
}
);
unicode = 1638;
},
{
color = 4;
glyphname = "seven-ar";
kernLeft = "7";
kernRight = "7";
lastChange = "2022-09-15 20:32:53 +0000";
layers = (
{
layerId = "1AB499B8-18A8-432D-A211-B6882CCB886D";
shapes = (
{
closed = 1;
nodes = (
(132,829,o),
(233,362,o),
(303,0,c),
(471,0,l),
(508,247,o),
(625,780,o),
(751,1251,c),
(577,1311,l),
(487,967,o),
(410,582,o),
(384,349,c),
(357,582,o),
(284,966,o),
(194,1311,c),
(20,1251,l)
);
}
);
width = 771;
}
);
unicode = 1639;
},
{
color = 4;
glyphname = "nine-ar";
kernLeft = "9";
kernRight = "9";
lastChange = "2022-09-15 20:33:04 +0000";
layers = (
{
layerId = "1AB499B8-18A8-432D-A211-B6882CCB886D";
shapes = (
{
closed = 1;
nodes = (
(520,586,o),
(514,616,o),
(525,860,cs),
(539,1163,o),
(417,1299,o),
(283,1299,cs),
(131,1299,o),
(10,1104,o),
(10,918,cs),
(10,729,o),
(142,599,o),
(257,599,cs),
(284,599,o),
(314,603,o),
(343,610,c),
(349,481,o),
(368,329,o),
(409,-13,c),
(587,13,l)
);
},
{
closed = 1;
nodes = (
(190,1005,o),
(228,1079,o),
(283,1079,cs),
(333,1079,o),
(354,1057,o),
(345,870,cs),
(345,858,o),
(344,847,o),
(344,836,c),
(324,826,o),
(287,819,o),
(257,819,cs),
(221,819,o),
(190,843,o),
(190,918,cs)
);
}
);
width = 627;
}
);
unicode = 1641;
},
{
color = 4;
glyphname = "fourFarsi-ar";
kernLeft = "1";
lastChange = "2022-09-15 20:33:42 +0000";
layers = (
{
layerId = "1AB499B8-18A8-432D-A211-B6882CCB886D";
shapes = (
{
closed = 1;
nodes = (
(308,334,ls),
(308,482,o),
(308,578,o),
(298,694,c),
(472,601,o),
(657,635,o),
(819,721,c),
(745,915,l),
(665,873,o),
(574,849,o),
(485,850,c),
(479,1005,o),
(482,1098,o),
(549,1098,cs),
(601,1098,o),
(651,1070,o),
(672,1057,c),
(744,1229,l),
(686,1263,o),
(600,1298,o),
(539,1298,cs),
(324,1298,o),
(313,1098,o),
(322,887,c),
(306,895,o),
(289,904,o),
(274,915,c),
(261,1012,o),
(243,1130,o),
(218,1287,c),
(40,1253,l),
(126,704,o),
(128,648,o),
(128,334,cs),
(128,0,l),
(308,0,l)
);
}
);
width = 829;
}
);
unicode = 1780;
},
{
color = 4;
glyphname = "fourFarsi-ar.urdu";
kernLeft = "1";
lastChange = "2022-09-15 20:33:34 +0000";
layers = (
{
guides = (
{
angle = -17.6345;
pos = (543,726);
}
);
layerId = "1AB499B8-18A8-432D-A211-B6882CCB886D";
shapes = (
{
closed = 1;
nodes = (
(591,1189,o),
(547,1098,o),
(521,1026,c),
(491,1138,o),
(427,1259,o),
(311,1259,cs),
(157,1259,o),
(40,1094,o),
(40,891,cs),
(40,657,o),
(121,478,o),
(121,190,cs),
(121,0,l),
(301,0,l),
(301,190,ls),
(301,478,o),
(200,709,o),
(200,891,cs),
(200,991,o),
(241,1039,o),
(295,1039,cs),
(392,1039,o),
(413,860,o),
(388,705,c),
(543,656,l),
(632,853,o),
(657,926,o),
(796,1167,c),
(655,1307,l)
);
}
);
width = 816;
}
);
},
{
color = 4;
glyphname = "fiveFarsi-ar";
lastChange = "2022-09-15 20:33:53 +0000";
layers = (
{
layerId = "1AB499B8-18A8-432D-A211-B6882CCB886D";
shapes = (
{
closed = 1;
nodes = (
(50,125,o),
(150,-13,o),
(270,-13,cs),
(347,-13,o),
(400,9,o),
(436,44,c),
(473,5,o),
(523,-13,o),
(593,-13,cs),
(713,-13,o),
(813,125,o),
(813,334,cs),
(813,549,o),
(813,625,o),
(411,1282,c),
(275,1168,l),
(334,1070,l),
(43,615,o),
(50,531,o),
(50,334,cs)
);
},
{
closed = 1;
nodes = (
(210,517,o),
(210,548,o),
(436,901,c),
(652,538,o),
(653,496,o),
(653,334,cs),
(653,227,o),
(638,207,o),
(593,207,cs),
(525,207,o),
(525,207,o),
(499,398,c),
(366,398,l),
(334,207,o),
(357,207,o),
(270,207,cs),
(225,207,o),
(210,227,o),
(210,334,cs)
);
}
);
width = 863;
}
);
metricWidth = "";
unicode = 1781;
},
{
color = 4;
glyphname = "sixFarsi-ar";
lastChange = "2022-09-15 20:33:58 +0000";
layers = (
{
layerId = "1AB499B8-18A8-432D-A211-B6882CCB886D";
shapes = (
{
closed = 1;
nodes = (
(317,331,o),
(417,485,o),
(692,718,c),
(619,936,l),
(550,875,o),
(491,818,o),
(438,763,c),
(265,866,o),
(257,882,o),
(257,923,cs),
(257,980,o),
(338,1069,o),
(397,1069,cs),
(444,1069,o),
(476,1042,o),
(504,1021,c),
(600,1197,l),
(552,1233,o),
(488,1289,o),
(397,1289,cs),
(274,1289,o),
(97,1097,o),
(97,923,cs),
(97,827,o),
(127,727,o),
(304,607,c),
(187,451,o),
(110,284,o),
(30,40,c),
(178,-30,l)
);
}
);
width = 702;
}
);
unicode = 1782;
},
{
color = 4;
glyphname = "sevenFarsi-ar.urdu";
lastChange = "2022-08-22 21:54:57 +0000";
layers = (
{
layerId = "1AB499B8-18A8-432D-A211-B6882CCB886D";
shapes = (
{
closed = 1;
nodes = (
(491,220,ls),
(246,220,o),
(220,290,o),
(220,353,cs),
(220,414,o),
(246,454,o),
(615,1214,c),
(459,1304,l),
(54,469,o),
(30,416,o),
(30,305,cs),
(30,159,o),
(117,0,o),
(496,0,cs),
(563,0,l),
(663,220,l)
);
}
);
width = 683;
}
);
},
{
color = 2;
glyphname = zero;
lastChange = "2022-06-13 15:24:57 +0000";
layers = (
{
layerId = "1AB499B8-18A8-432D-A211-B6882CCB886D";
shapes = (
{
closed = 1;
nodes = (
(532,-16,o),
(642,123,o),
(642,302,cs),
(642,1168,ls),
(642,1345,o),
(534,1486,o),
(354,1486,cs),
(175,1486,o),
(66,1348,o),
(66,1168,cs),
(66,302,ls),
(66,123,o),
(170,-16,o),
(354,-16,cs)
);
},
{
closed = 1;
nodes = (
(303,194,o),
(282,245,o),
(282,302,cs),
(282,1168,ls),
(282,1223,o),
(303,1276,o),
(354,1276,cs),
(405,1276,o),
(426,1227,o),
(426,1168,cs),
(426,302,ls),
(426,245,o),
(405,194,o),
(354,194,cs)
);
}
);
width = 708;
}
);
unicode = 48;
},
{
color = 2;
glyphname = one;
lastChange = "2022-06-13 15:24:57 +0000";
layers = (
{
layerId = "1AB499B8-18A8-432D-A211-B6882CCB886D";
shapes = (
{
closed = 1;
nodes = (
(400,0,l),
(400,1470,l),
(270,1470,l),
(225,1373,o),
(141,1310,o),
(40,1290,c),
(40,1152,l),
(184,1152,l),
(184,0,l)
);
}
);
width = 480;
}
);
unicode = 49;
},
{
color = 2;
glyphname = two;
lastChange = "2022-06-13 15:24:57 +0000";
layers = (
{
layerId = "1AB499B8-18A8-432D-A211-B6882CCB886D";
shapes = (
{
closed = 1;
nodes = (
(656,0,l),
(656,214,l),
(314,214,l),
(478,490,o),
(652,856,o),
(652,1120,cs),
(652,1342,o),
(575,1486,o),
(364,1486,cs),
(154,1486,o),
(76,1341,o),
(76,1106,cs),
(76,1004,l),
(292,1004,l),
(292,1106,ls),
(292,1195,o),
(303,1286,o),
(364,1286,cs),
(425,1286,o),
(436,1194,o),
(436,1106,cs),
(436,857,o),
(253,497,o),
(70,214,c),
(70,0,l)
);
}
);
width = 726;
}
);
unicode = 50;
},
{
color = 2;
glyphname = three;
lastChange = "2022-06-13 15:24:57 +0000";
layers = (
{
layerId = "1AB499B8-18A8-432D-A211-B6882CCB886D";
shapes = (
{
closed = 1;
nodes = (
(547,-16,o),
(644,174,o),
(644,376,cs),
(644,546,o),
(594,688,o),
(500,760,c),
(585,815,o),
(626,959,o),
(626,1160,cs),
(626,1339,o),
(528,1486,o),
(346,1486,cs),
(120,1486,o),
(60,1303,o),
(60,1046,c),
(272,1046,l),
(272,1175,o),
(283,1296,o),
(346,1296,cs),
(411,1296,o),
(414,1204,o),
(414,1106,cs),
(414,909,o),
(392,852,o),
(240,844,c),
(240,664,l),
(391,653,o),
(432,600,o),
(432,360,cs),
(432,268,o),
(421,174,o),
(354,174,cs),
(285,174,o),
(280,295,o),
(280,424,c),
(68,424,l),
(68,173,o),
(126,-16,o),
(354,-16,cs)
);
}
);
width = 704;
}
);
unicode = 51;
},
{
color = 2;
glyphname = four;
lastChange = "2022-06-13 15:24:57 +0000";
layers = (
{
layerId = "1AB499B8-18A8-432D-A211-B6882CCB886D";
shapes = (
{
closed = 1;
nodes = (
(567,0,l),
(567,320,l),
(667,320,l),
(667,510,l),
(567,510,l),
(567,1470,l),
(341,1470,l),
(35,490,l),
(35,320,l),
(369,320,l),
(369,0,l)
);
},
{
closed = 1;
nodes = (
(345,970,l),
(357,1014,l),
(369,1014,l),
(369,970,l),
(369,510,l),
(219,510,l)
);
}
);
width = 702;
}
);
unicode = 52;
},
{
color = 2;
glyphname = five;
lastChange = "2022-06-13 15:24:57 +0000";
layers = (
{
layerId = "1AB499B8-18A8-432D-A211-B6882CCB886D";
shapes = (
{
closed = 1;
nodes = (
(568,-16,o),
(624,160,o),
(624,368,cs),
(624,696,ls),
(624,886,o),
(543,1000,o),
(393,1000,cs),
(322,1000,o),
(285,970,o),
(260,940,c),
(260,1256,l),
(596,1256,l),
(596,1470,l),
(74,1470,l),
(74,696,l),
(271,696,l),
(278,755,o),
(305,804,o),
(350,804,cs),
(396,804,o),
(408,758,o),
(408,696,cs),
(408,368,ls),
(408,270,o),
(402,172,o),
(342,172,cs),
(280,172,o),
(276,261,o),
(276,370,cs),
(276,428,l),
(60,428,l),
(60,158,o),
(112,-16,o),
(342,-16,cs)
);
}
);
width = 684;
}
);
unicode = 53;
},
{
color = 2;
glyphname = six;
lastChange = "2022-06-13 15:24:57 +0000";
layers = (
{
layerId = "1AB499B8-18A8-432D-A211-B6882CCB886D";
shapes = (
{
closed = 1;
nodes = (
(526,-16,o),
(624,116,o),
(624,302,cs),
(624,662,ls),
(624,850,o),
(536,952,o),
(394,952,cs),
(336,952,o),
(295,927,o),
(276,902,c),
(276,1128,ls),
(276,1216,o),
(282,1298,o),
(342,1298,cs),
(402,1298,o),
(408,1207,o),
(408,1066,c),
(624,1066,l),
(624,1138,ls),
(624,1349,o),
(546,1486,o),
(342,1486,cs),
(139,1486,o),
(60,1341,o),
(60,1128,cs),
(60,302,ls),
(60,117,o),
(155,-16,o),
(342,-16,cs)
);
},
{
closed = 1;
nodes = (
(292,172,o),
(276,228,o),
(276,278,cs),
(276,674,ls),
(276,726,o),
(297,774,o),
(343,774,cs),
(389,774,o),
(408,724,o),
(408,676,cs),
(408,278,ls),
(408,228,o),
(388,172,o),
(342,172,cs)
);
}
);
width = 684;
}
);
unicode = 54;
},
{
color = 2;
glyphname = seven;
lastChange = "2022-06-13 15:24:57 +0000";
layers = (
{
layerId = "1AB499B8-18A8-432D-A211-B6882CCB886D";
shapes = (
{
closed = 1;
nodes = (
(363,0,l),
(579,1254,l),
(579,1470,l),
(35,1470,l),
(35,1256,l),
(359,1256,l),
(139,0,l)
);
}
);
width = 614;
}
);
unicode = 55;
},
{
color = 2;
glyphname = eight;
lastChange = "2022-06-13 15:24:57 +0000";
layers = (
{
layerId = "1AB499B8-18A8-432D-A211-B6882CCB886D";
shapes = (
{
closed = 1;
nodes = (
(527,-16,o),
(628,105,o),
(628,294,cs),
(628,556,ls),
(628,666,o),
(590,726,o),
(516,776,c),
(582,822,o),
(616,874,o),
(616,976,cs),
(616,1210,ls),
(616,1390,o),
(523,1486,o),
(340,1486,cs),
(162,1486,o),
(64,1390,o),
(64,1210,cs),
(64,976,ls),
(64,874,o),
(98,822,o),
(164,776,c),
(90,726,o),
(52,666,o),
(52,556,cs),
(52,294,ls),
(52,107,o),
(152,-16,o),
(340,-16,cs)
);
},
{
closed = 1;
nodes = (
(310,182,o),
(277,202,o),
(272,240,cs),
(267,278,o),
(263,353,o),
(263,419,cs),
(263,483,o),
(267,558,o),
(274,596,cs),
(280,638,o),
(302,660,o),
(340,660,cs),
(378,660,o),
(400,638,o),
(408,596,cs),
(414,554,o),
(418,482,o),
(418,420,cs),
(418,352,o),
(414,278,o),
(408,240,cs),
(402,202,o),
(378,182,o),
(340,182,cs)
);
},
{
closed = 1;
nodes = (
(312,872,o),
(294,890,o),
(288,926,cs),
(281,958,o),
(277,1016,o),
(277,1076,cs),
(277,1147,o),
(282,1220,o),
(292,1252,cs),
(300,1282,o),
(316,1296,o),
(340,1296,cs),
(368,1296,o),
(386,1280,o),
(394,1246,cs),
(400,1212,o),
(404,1162,o),
(404,1094,cs),
(404,1016,o),
(400,960,o),
(394,926,cs),
(386,890,o),
(368,872,o),
(340,872,cs)
);
}
);
width = 680;
}
);
unicode = 56;
},
{
color = 2;
glyphname = nine;
lastChange = "2022-06-13 15:24:57 +0000";
layers = (
{
layerId = "1AB499B8-18A8-432D-A211-B6882CCB886D";
shapes = (
{
closed = 1;
nodes = (
(158,1486,o),
(60,1354,o),
(60,1168,cs),
(60,808,ls),
(60,620,o),
(148,518,o),
(290,518,cs),
(348,518,o),
(389,543,o),
(408,568,c),
(408,342,ls),
(408,254,o),
(402,172,o),
(342,172,cs),
(282,172,o),
(276,263,o),
(276,404,c),
(60,404,l),
(60,332,ls),
(60,121,o),
(138,-16,o),
(342,-16,cs),
(545,-16,o),
(624,129,o),
(624,342,cs),
(624,1168,ls),
(624,1353,o),
(529,1486,o),
(342,1486,cs)
);
},
{
closed = 1;
nodes = (
(392,1298,o),
(408,1242,o),
(408,1192,cs),
(408,796,ls),
(408,744,o),
(387,696,o),
(341,696,cs),
(295,696,o),
(276,746,o),
(276,794,cs),
(276,1192,ls),
(276,1242,o),
(296,1298,o),
(342,1298,cs)
);
}
);
width = 684;
}
);
unicode = 57;
},
{
color = 2;
glyphname = zero.dnom;
lastChange = "2022-06-13 15:24:57 +0000";
layers = (
{
layerId = "1AB499B8-18A8-432D-A211-B6882CCB886D";
shapes = (
{
closed = 1;
nodes = (
(439,-9,o),
(526,60,o),
(526,184,cs),
(526,622,ls),
(526,745,o),
(439,815,o),
(313,815,cs),
(187,815,o),
(100,745,o),
(100,622,cs),
(100,184,ls),
(100,66,o),
(183,-9,o),
(313,-9,cs)
);
},
{
closed = 1;
nodes = (
(280,136,o),
(259,158,o),
(259,206,cs),
(259,600,ls),
(259,646,o),
(279,671,o),
(313,671,cs),
(346,671,o),
(367,647,o),
(367,600,cs),
(367,206,ls),
(367,161,o),
(346,136,o),
(313,136,cs)
);
}
);
width = 626;
}
);
},
{
color = 2;
glyphname = one.dnom;
lastChange = "2022-06-13 15:24:57 +0000";
layers = (
{
layerId = "1AB499B8-18A8-432D-A211-B6882CCB886D";
shapes = (
{
closed = 1;
nodes = (
(370,0,l),
(370,803,l),
(273,803,l),
(268,794,o),
(252,777,o),
(236,763,cs),
(199,731,o),
(168,718,o),
(100,708,c),
(100,629,l),
(208,629,l),
(208,0,l)
);
}
);
width = 470;
}
);
},
{
color = 2;
glyphname = two.dnom;
lastChange = "2022-06-13 15:24:57 +0000";
layers = (
{
layerId = "1AB499B8-18A8-432D-A211-B6882CCB886D";
shapes = (
{
closed = 1;
nodes = (
(539,0,l),
(539,132,l),
(293,132,l),
(489,407,o),
(536,499,o),
(536,607,cs),
(536,746,o),
(464,815,o),
(320,815,cs),
(181,815,o),
(104,740,o),
(104,606,cs),
(104,551,l),
(266,551,l),
(266,606,ls),
(266,663,o),
(280,683,o),
(320,683,cs),
(353,683,o),
(376,653,o),
(375,605,cs),
(370,482,o),
(295,347,o),
(100,117,c),
(100,0,l)
);
}
);
width = 641;
}
);
},
{
color = 2;
glyphname = three.dnom;
lastChange = "2022-06-13 15:24:57 +0000";
layers = (
{
layerId = "1AB499B8-18A8-432D-A211-B6882CCB886D";
shapes = (
{
closed = 1;
nodes = (
(455,-9,o),
(531,74,o),
(531,231,cs),
(531,321,o),
(506,374,o),
(438,433,c),
(496,486,o),
(517,531,o),
(517,604,cs),
(517,740,o),
(442,815,o),
(307,815,cs),
(168,815,o),
(100,735,o),
(100,573,c),
(259,573,l),
(259,657,o),
(271,683,o),
(310,683,cs),
(346,683,o),
(358,663,o),
(358,589,cs),
(358,500,o),
(341,479,o),
(235,464,c),
(235,364,l),
(356,362,o),
(372,347,o),
(372,233,cs),
(372,156,o),
(364,123,o),
(319,123,cs),
(285,123,o),
(265,156,o),
(265,233,c),
(106,233,l),
(106,68,o),
(172,-9,o),
(311,-9,cs)
);
}
);
width = 631;
}
);
},
{
color = 2;
glyphname = four.dnom;
lastChange = "2022-06-13 15:24:57 +0000";
layers = (
{
layerId = "1AB499B8-18A8-432D-A211-B6882CCB886D";
shapes = (
{
closed = 1;
nodes = (
(424,0,l),
(424,175,l),
(499,175,l),
(499,293,l),
(424,293,l),
(424,803,l),
(262,803,l),
(25,278,l),
(25,175,l),
(276,175,l),
(276,0,l)
);
},
{
closed = 1;
nodes = (
(255,495,l),
(267,541,l),
(276,541,l),
(276,293,l),
(170,293,l)
);
}
);
width = 579;
}
);
},
{
color = 2;
glyphname = five.dnom;
lastChange = "2022-06-13 15:24:57 +0000";
layers = (
{
layerId = "1AB499B8-18A8-432D-A211-B6882CCB886D";
shapes = (
{
closed = 1;
nodes = (
(441,-9,o),
(523,74,o),
(523,209,cs),
(523,377,ls),
(523,473,o),
(450,546,o),
(354,546,cs),
(321,546,o),
(281,539,o),
(250,526,c),
(250,671,l),
(502,671,l),
(502,803,l),
(111,803,l),
(111,365,l),
(247,365,l),
(247,399,o),
(272,424,o),
(304,424,cs),
(341,424,o),
(361,392,o),
(361,335,cs),
(361,254,ls),
(361,167,o),
(345,124,o),
(312,124,cs),
(279,124,o),
(262,164,o),
(262,239,cs),
(262,249,l),
(100,249,l),
(100,79,o),
(171,-9,o),
(309,-9,cs)
);
}
);
width = 623;
}
);
},
{
color = 2;
glyphname = six.dnom;
lastChange = "2022-06-13 15:24:57 +0000";
layers = (
{
layerId = "1AB499B8-18A8-432D-A211-B6882CCB886D";
shapes = (
{
closed = 1;
nodes = (
(450,-9,o),
(523,59,o),
(523,184,cs),
(523,338,ls),
(523,436,o),
(456,500,o),
(355,500,cs),
(321,500,o),
(294,494,o),
(262,479,c),
(262,573,ls),
(262,667,o),
(280,682,o),
(311,682,cs),
(343,682,o),
(361,667,o),
(361,573,c),
(523,573,l),
(523,613,ls),
(523,740,o),
(444,815,o),
(309,815,cs),
(175,815,o),
(100,742,o),
(100,613,cs),
(100,184,ls),
(100,62,o),
(180,-9,o),
(315,-9,cs)
);
},
{
closed = 1;
nodes = (
(280,124,o),
(263,144,o),
(263,181,cs),
(264,325,ls),
(264,356,o),
(285,378,o),
(312,378,cs),
(340,378,o),
(361,356,o),
(361,325,cs),
(361,181,ls),
(361,143,o),
(344,124,o),
(312,124,cs)
);
}
);
width = 623;
}
);
},
{
color = 2;
glyphname = seven.dnom;
lastChange = "2022-06-13 15:24:57 +0000";
layers = (
{
layerId = "1AB499B8-18A8-432D-A211-B6882CCB886D";
shapes = (
{
closed = 1;
nodes = (
(346,0,l),
(508,685,l),
(508,803,l),
(100,803,l),
(100,663,l),
(338,663,l),
(178,0,l)
);
}
);
width = 608;
}
);
},
{
color = 2;
glyphname = eight.dnom;
lastChange = "2022-06-13 15:24:57 +0000";
layers = (
{
layerId = "1AB499B8-18A8-432D-A211-B6882CCB886D";
shapes = (
{
closed = 1;
nodes = (
(448,-9,o),
(530,59,o),
(530,167,cs),
(530,272,ls),
(530,345,o),
(506,389,o),
(447,425,c),
(496,467,o),
(520,515,o),
(520,572,cs),
(520,647,ls),
(520,741,o),
(430,815,o),
(315,815,cs),
(200,815,o),
(110,741,o),
(110,647,cs),
(110,572,ls),
(110,515,o),
(134,467,o),
(183,425,c),
(124,389,o),
(100,345,o),
(100,272,cs),
(100,167,ls),
(100,59,o),
(182,-9,o),
(315,-9,cs)
);
},
{
closed = 1;
nodes = (
(281,104,o),
(264,126,o),
(264,175,cs),
(264,272,ls),
(264,326,o),
(283,358,o),
(315,358,cs),
(347,358,o),
(366,326,o),
(366,272,cs),
(366,175,ls),
(366,126,o),
(350,104,o),
(315,104,cs)
);
},
{
closed = 1;
nodes = (
(280,494,o),
(264,518,o),
(264,572,cs),
(264,632,ls),
(264,678,o),
(282,703,o),
(315,703,cs),
(348,703,o),
(366,678,o),
(366,632,cs),
(366,572,ls),
(366,518,o),
(350,494,o),
(315,494,cs)
);
}
);
width = 630;
}
);
},
{
color = 2;
glyphname = nine.dnom;
lastChange = "2022-06-13 15:24:57 +0000";
layers = (
{
layerId = "1AB499B8-18A8-432D-A211-B6882CCB886D";
shapes = (
{
closed = 1;
nodes = (
(448,-9,o),
(523,64,o),
(523,193,cs),
(523,622,ls),
(523,743,o),
(444,815,o),
(308,815,cs),
(174,815,o),
(100,746,o),
(100,622,cs),
(100,467,ls),
(100,370,o),
(167,305,o),
(268,305,cs),
(302,305,o),
(329,311,o),
(361,327,c),
(361,193,ls),
(361,143,o),
(346,124,o),
(306,124,cs),
(268,124,o),
(262,139,o),
(262,233,c),
(100,233,l),
(100,193,ls),
(100,65,o),
(179,-9,o),
(314,-9,cs)
);
},
{
closed = 1;
nodes = (
(283,428,o),
(262,450,o),
(262,481,cs),
(262,625,ls),
(262,662,o),
(279,682,o),
(311,682,cs),
(343,682,o),
(361,662,o),
(360,625,cs),
(359,481,ls),
(359,450,o),
(339,428,o),
(312,428,cs)
);
}
);
width = 623;
}
);
},
{
color = 2;
glyphname = fraction;
lastChange = "2022-06-13 15:24:57 +0000";
layers = (
{
layerId = "1AB499B8-18A8-432D-A211-B6882CCB886D";
shapes = (
{
closed = 1;
nodes = (
(-146,0,l),
(893,1470,l),
(742,1470,l),
(-300,0,l)
);
}
);
width = 593;
}
);
unicode = 8260;
},
{
color = 2;
glyphname = .notdef;
lastChange = "2022-06-13 15:24:57 +0000";
layers = (
{
layerId = "1AB499B8-18A8-432D-A211-B6882CCB886D";
shapes = (
{
closed = 1;
nodes = (
(677,0,l),
(677,1470,l),
(70,1470,l),
(70,0,l)
);
},
{
closed = 1;
nodes = (
(170,1207,l),
(533,100,l),
(170,100,l)
);
},
{
closed = 1;
nodes = (
(223,1370,l),
(577,1370,l),
(577,288,l)
);
}
);
width = 747;
}
);
},
{
color = 4;
glyphname = "fullstop-ar";
lastChange = "2022-06-13 15:24:57 +0000";
layers = (
{
layerId = "1AB499B8-18A8-432D-A211-B6882CCB886D";
shapes = (
{
closed = 1;
nodes = (
(160,220,l),
(60,0,l),
(400,0,l),
(500,220,l)
);
}
);
width = 560;
}
);
unicode = 1748;
},
{
color = 4;
glyphname = "comma-ar.ss01";
lastChange = "2022-06-22 15:30:20 +0000";
layers = (
{
layerId = "1AB499B8-18A8-432D-A211-B6882CCB886D";
shapes = (
{
closed = 1;
nodes = (
(239,170,o),
(225,209,o),
(180,225,c),
(257,455,l),
(185,488,l),
(95,306,ls),
(53,223,o),
(40,192,o),
(40,111,cs),
(40,28,o),
(70,-10,o),
(140,-10,cs),
(209,-10,o),
(239,29,o),
(239,111,c)
);
}
);
width = 297;
}
);
},
{
color = 4;
glyphname = "parenleft-ar";
lastChange = "2022-06-13 15:24:57 +0000";
layers = (
{
layerId = "1AB499B8-18A8-432D-A211-B6882CCB886D";
shapes = (
{
closed = 1;
nodes = (
(279,1043,l),
(330,1224,o),
(411,1404,o),
(506,1552,c),
(664,1470,l),
(560,1320,o),
(497,1144,o),
(459,999,c)
);
},
{
pos = (-66,-915);
ref = asterisk;
scale = (1.2645,1.2645);
},
{
closed = 1;
nodes = (
(452,285,l),
(494,112,o),
(570,-73,o),
(664,-208,c),
(506,-290,l),
(387,-104,o),
(314,88,o),
(271,249,c)
);
}
);
width = 705;
}
);
unicode = 64830;
},
{
color = 2;
glyphname = period;
lastChange = "2022-06-13 15:24:57 +0000";
layers = (
{
layerId = "1AB499B8-18A8-432D-A211-B6882CCB886D";
shapes = (
{
closed = 1;
nodes = (
(262,0,l),
(262,222,l),
(52,222,l),
(52,0,l)
);
}
);
width = 314;
}
);
unicode = 46;
},
{
color = 4;
glyphname = period.ar;
lastChange = "2022-06-22 15:40:39 +0000";
layers = (
{
layerId = "1AB499B8-18A8-432D-A211-B6882CCB886D";
shapes = (
{
closed = 1;
nodes = (
(219,-10,o),
(249,29,o),
(249,111,cs),
(249,192,o),
(219,231,o),
(150,231,cs),
(80,231,o),
(50,192,o),
(50,111,cs),
(50,29,o),
(80,-10,o),
(150,-10,cs)
);
}
);
width = 299;
}
);
},
{
color = 2;
glyphname = comma;
lastChange = "2022-08-22 19:31:51 +0000";
layers = (
{
layerId = "1AB499B8-18A8-432D-A211-B6882CCB886D";
shapes = (
{
closed = 1;
nodes = (
(144,-260,l),
(254,0,l),
(254,222,l),
(44,222,l),
(44,0,l),
(114,0,l),
(44,-260,l)
);
}
);
width = 302;
}
);
unicode = 44;
},
{
color = 2;
glyphname = colon;
lastChange = "2022-06-13 15:24:57 +0000";
layers = (
{
layerId = "1AB499B8-18A8-432D-A211-B6882CCB886D";
shapes = (
{
closed = 1;
nodes = (
(282,872,l),
(282,1094,l),
(72,1094,l),
(72,872,l)
);
},
{
closed = 1;
nodes = (
(282,0,l),
(282,222,l),
(72,222,l),
(72,0,l)
);
}
);
width = 354;
}
);
unicode = 58;
},
{
color = 2;
glyphname = semicolon;
lastChange = "2022-06-13 15:24:57 +0000";
layers = (
{
layerId = "1AB499B8-18A8-432D-A211-B6882CCB886D";
shapes = (
{
closed = 1;
nodes = (
(172,-260,l),
(282,0,l),
(282,222,l),
(72,222,l),
(72,0,l),
(142,0,l),
(72,-260,l)
);
},
{
closed = 1;
nodes = (
(282,872,l),
(282,1094,l),
(72,1094,l),
(72,872,l)
);
}
);
width = 354;
}
);
unicode = 59;
},
{
color = 2;
glyphname = ellipsis;
lastChange = "2022-06-13 15:24:57 +0000";
layers = (
{
layerId = "1AB499B8-18A8-432D-A211-B6882CCB886D";
shapes = (
{
closed = 1;
nodes = (
(890,0,l),
(890,222,l),
(680,222,l),
(680,0,l)
);
},
{
closed = 1;
nodes = (
(262,0,l),
(262,222,l),
(52,222,l),
(52,0,l)
);
},
{
closed = 1;
nodes = (
(576,0,l),
(576,222,l),
(366,222,l),
(366,0,l)
);
}
);
width = 942;
}
);
unicode = 8230;
},
{
color = 2;
glyphname = exclam;
lastChange = "2022-06-13 15:24:57 +0000";
layers = (
{
layerId = "1AB499B8-18A8-432D-A211-B6882CCB886D";
shapes = (
{
closed = 1;
nodes = (
(240,396,l),
(294,1470,l),
(60,1470,l),
(114,396,l)
);
},
{
closed = 1;
nodes = (
(282,0,l),
(282,222,l),
(72,222,l),
(72,0,l)
);
}
);
width = 354;
}
);
unicode = 33;
},
{
color = 2;
glyphname = exclamdown;
lastChange = "2022-06-13 15:24:57 +0000";
layers = (
{
layerId = "1AB499B8-18A8-432D-A211-B6882CCB886D";
shapes = (
{
closed = 1;
nodes = (
(294,-376,l),
(240,698,l),
(114,698,l),
(60,-376,l)
);
},
{
closed = 1;
nodes = (
(282,872,l),
(282,1094,l),
(72,1094,l),
(72,872,l)
);
}
);
width = 354;
}
);
unicode = 161;
},
{
color = 2;
glyphname = exclamdown.case;
lastChange = "2022-06-13 15:24:57 +0000";
layers = (
{
layerId = "1AB499B8-18A8-432D-A211-B6882CCB886D";
shapes = (
{
closed = 1;
nodes = (
(294,0,l),
(240,1074,l),
(114,1074,l),
(60,0,l)
);
},
{
closed = 1;
nodes = (
(282,1248,l),
(282,1470,l),
(72,1470,l),
(72,1248,l)
);
}
);
width = 354;
}
);
},
{
color = 2;
glyphname = question;
lastChange = "2022-06-13 15:24:57 +0000";
layers = (
{
layerId = "1AB499B8-18A8-432D-A211-B6882CCB886D";
shapes = (
{
closed = 1;
nodes = (
(428,396,l),
(428,646,ls),
(428,870,o),
(626,1007,o),
(626,1198,cs),
(626,1361,o),
(532,1478,o),
(361,1478,cs),
(229,1478,o),
(100,1368,o),
(60,1230,c),
(234,1148,l),
(256,1225,o),
(297,1290,o),
(362,1290,cs),
(405,1290,o),
(429,1254,o),
(429,1213,cs),
(429,1069,o),
(242,888,o),
(242,646,cs),
(242,396,l)
);
},
{
closed = 1;
nodes = (
(440,0,l),
(440,222,l),
(230,222,l),
(230,0,l)
);
}
);
width = 686;
}
);
unicode = 63;
},
{
color = 2;
glyphname = questiondown;
lastChange = "2022-06-13 15:24:57 +0000";
layers = (
{
layerId = "1AB499B8-18A8-432D-A211-B6882CCB886D";
shapes = (
{
closed = 1;
nodes = (
(258,698,l),
(258,448,ls),
(258,224,o),
(60,87,o),
(60,-104,cs),
(60,-267,o),
(154,-384,o),
(325,-384,cs),
(457,-384,o),
(586,-274,o),
(626,-136,c),
(452,-54,l),
(430,-131,o),
(389,-196,o),
(324,-196,cs),
(281,-196,o),
(257,-160,o),
(257,-119,cs),
(257,25,o),
(444,206,o),
(444,448,cs),
(444,698,l)
);
},
{
closed = 1;
nodes = (
(246,1094,l),
(246,872,l),
(456,872,l),
(456,1094,l)
);
}
);
width = 686;
}
);
unicode = 191;
},
{
color = 2;
glyphname = questiondown.case;
lastChange = "2022-06-13 15:24:57 +0000";
layers = (
{
layerId = "1AB499B8-18A8-432D-A211-B6882CCB886D";
shapes = (
{
closed = 1;
nodes = (
(258,1074,l),
(258,824,ls),
(258,600,o),
(60,463,o),
(60,272,cs),
(60,109,o),
(154,-8,o),
(325,-8,cs),
(457,-8,o),
(586,102,o),
(626,240,c),
(452,322,l),
(430,245,o),
(389,180,o),
(324,180,cs),
(281,180,o),
(257,216,o),
(257,257,cs),
(257,401,o),
(444,582,o),
(444,824,cs),
(444,1074,l)
);
},
{
closed = 1;
nodes = (
(246,1470,l),
(246,1248,l),
(456,1248,l),
(456,1470,l)
);
}
);
width = 686;
}
);
},
{
color = 2;
glyphname = periodcentered;
lastChange = "2022-06-13 15:24:57 +0000";
layers = (
{
layerId = "1AB499B8-18A8-432D-A211-B6882CCB886D";
shapes = (
{
closed = 1;
nodes = (
(210,634,l),
(210,856,l),
(0,856,l),
(0,634,l)
);
}
);
width = 210;
}
);
unicode = 183;
},
{
color = 2;
glyphname = bullet;
lastChange = "2022-06-13 15:24:57 +0000";
layers = (
{
layerId = "1AB499B8-18A8-432D-A211-B6882CCB886D";
shapes = (
{
closed = 1;
nodes = (
(457,552,o),
(568,658,o),
(568,798,cs),
(568,934,o),
(462,1040,o),
(326,1040,cs),
(188,1040,o),
(80,932,o),
(80,798,cs),
(80,662,o),
(190,552,o),
(326,552,cs)
);
}
);
width = 648;
}
);
unicode = 8226;
},
{
color = 2;
glyphname = asterisk;
lastChange = "2022-06-13 15:24:57 +0000";
layers = (
{
layerId = "1AB499B8-18A8-432D-A211-B6882CCB886D";
shapes = (
{
closed = 1;
nodes = (
(330,1124,l),
(406,976,l),
(534,1054,l),
(422,1188,l),
(590,1222,l),
(548,1366,l),
(388,1298,l),
(406,1470,l),
(256,1470,l),
(274,1298,l),
(114,1366,l),
(72,1222,l),
(240,1188,l),
(128,1054,l),
(256,976,l)
);
}
);
width = 662;
}
);
unicode = 42;
},
{
color = 2;
glyphname = numbersign;
lastChange = "2022-06-13 15:24:57 +0000";
layers = (
{
layerId = "1AB499B8-18A8-432D-A211-B6882CCB886D";
shapes = (
{
closed = 1;
nodes = (
(388,0,l),
(446,428,l),
(700,428,l),
(642,0,l),
(834,0,l),
(892,428,l),
(1078,428,l),
(1104,618,l),
(918,618,l),
(954,870,l),
(1142,870,l),
(1168,1060,l),
(980,1060,l),
(1036,1470,l),
(844,1470,l),
(788,1060,l),
(534,1060,l),
(590,1470,l),
(398,1470,l),
(342,1060,l),
(150,1060,l),
(124,870,l),
(316,870,l),
(280,618,l),
(86,618,l),
(60,428,l),
(254,428,l),
(196,0,l)
);
},
{
closed = 1;
nodes = (
(508,870,l),
(762,870,l),
(726,618,l),
(472,618,l)
);
}
);
width = 1228;
}
);
unicode = 35;
},
{
color = 2;
glyphname = slash;
kernLeft = slash;
kernRight = slash;
lastChange = "2022-09-15 18:54:42 +0000";
layers = (
{
layerId = "1AB499B8-18A8-432D-A211-B6882CCB886D";
shapes = (
{
closed = 1;
nodes = (
(172,-144,l),
(696,1470,l),
(538,1470,l),
(8,-144,l)
);
}
);
width = 704;
}
);
unicode = 47;
},
{
color = 2;
glyphname = backslash;
lastChange = "2022-06-13 15:24:57 +0000";
layers = (
{
layerId = "1AB499B8-18A8-432D-A211-B6882CCB886D";
shapes = (
{
closed = 1;
nodes = (
(766,-176,l),
(166,1652,l),
(8,1652,l),
(602,-176,l)
);
}
);
width = 774;
}
);
unicode = 92;
},
{
color = 2;
glyphname = hyphen;
lastChange = "2022-06-13 15:24:57 +0000";
layers = (
{
layerId = "1AB499B8-18A8-432D-A211-B6882CCB886D";
shapes = (
{
closed = 1;
nodes = (
(362,444,l),
(362,634,l),
(72,634,l),
(72,444,l)
);
}
);
width = 434;
}
);
unicode = 45;
},
{
color = 2;
glyphname = endash;
lastChange = "2022-06-13 15:24:57 +0000";
layers = (
{
layerId = "1AB499B8-18A8-432D-A211-B6882CCB886D";
shapes = (
{
closed = 1;
nodes = (
(716,634,l),
(716,824,l),
(72,824,l),
(72,634,l)
);
}
);
width = 788;
}
);
unicode = 8211;
},
{
color = 2;
glyphname = emdash;
lastChange = "2022-06-13 15:24:57 +0000";
layers = (
{
layerId = "1AB499B8-18A8-432D-A211-B6882CCB886D";
shapes = (
{
closed = 1;
nodes = (
(878,634,l),
(878,824,l),
(72,824,l),
(72,634,l)
);
}
);
width = 950;
}
);
unicode = 8212;
},
{
color = 2;
glyphname = underscore;
lastChange = "2022-06-13 15:24:57 +0000";
layers = (
{
layerId = "1AB499B8-18A8-432D-A211-B6882CCB886D";
shapes = (
{
closed = 1;
nodes = (
(1110,-318,l),
(1110,-150,l),
(72,-150,l),
(72,-318,l)
);
}
);
width = 1182;
}
);
unicode = 95;
},
{
color = 2;
glyphname = parenleft;
lastChange = "2022-06-13 15:24:57 +0000";
layers = (
{
layerId = "1AB499B8-18A8-432D-A211-B6882CCB886D";
shapes = (
{
closed = 1;
nodes = (
(508,-208,l),
(460,-140,o),
(418,-62,o),
(382,24,cs),
(318,174,o),
(256,380,o),
(256,630,cs),
(256,756,o),
(270,870,o),
(296,972,cs),
(348,1176,o),
(412,1332,o),
(508,1470,c),
(350,1552,l),
(296,1468,o),
(248,1376,o),
(206,1278,cs),
(134,1110,o),
(64,880,o),
(64,630,cs),
(64,504,o),
(78,386,o),
(108,276,cs),
(166,52,o),
(244,-124,o),
(350,-290,c)
);
}
);
width = 548;
}
);
unicode = 40;
},
{
color = 2;
glyphname = parenright;
lastChange = "2022-06-13 15:24:57 +0000";
layers = (
{
layerId = "1AB499B8-18A8-432D-A211-B6882CCB886D";
shapes = (
{
closed = 1;
nodes = (
(250,-208,o),
(298,-116,o),
(340,-18,cs),
(412,150,o),
(484,380,o),
(484,630,cs),
(484,756,o),
(470,874,o),
(440,986,cs),
(380,1208,o),
(302,1384,o),
(198,1552,c),
(40,1470,l),
(86,1400,o),
(128,1322,o),
(166,1236,cs),
(228,1086,o),
(292,880,o),
(292,630,cs),
(292,504,o),
(278,392,o),
(252,290,cs),
(198,86,o),
(134,-72,o),
(40,-208,c),
(198,-290,l)
);
}
);
width = 548;
}
);
unicode = 41;
},
{
color = 2;
glyphname = braceleft;
lastChange = "2022-06-13 15:24:57 +0000";
layers = (
{
layerId = "1AB499B8-18A8-432D-A211-B6882CCB886D";
shapes = (
{
closed = 1;
nodes = (
(616,-274,l),
(450,-274,o),
(380,-246,o),
(380,-82,cs),
(380,306,ls),
(380,410,o),
(334,472,o),
(256,522,c),
(334,570,o),
(380,632,o),
(380,738,cs),
(380,1126,ls),
(380,1288,o),
(447,1318,o),
(616,1318,c),
(616,1486,l),
(305,1486,o),
(188,1429,o),
(188,1126,cs),
(188,738,ls),
(188,669,o),
(137,602,o),
(60,602,c),
(60,442,l),
(134,442,o),
(188,398,o),
(188,306,cs),
(188,-82,ls),
(188,-381,o),
(306,-442,o),
(616,-442,c)
);
}
);
width = 672;
}
);
unicode = 123;
},
{
color = 2;
glyphname = braceright;
lastChange = "2022-06-13 15:24:57 +0000";
layers = (
{
layerId = "1AB499B8-18A8-432D-A211-B6882CCB886D";
shapes = (
{
closed = 1;
nodes = (
(370,-442,o),
(488,-381,o),
(488,-82,cs),
(488,306,ls),
(488,398,o),
(542,442,o),
(616,442,c),
(616,602,l),
(539,602,o),
(488,669,o),
(488,738,cs),
(488,1126,ls),
(488,1429,o),
(371,1486,o),
(60,1486,c),
(60,1318,l),
(229,1318,o),
(296,1288,o),
(296,1126,cs),
(296,738,ls),
(296,632,o),
(342,570,o),
(420,522,c),
(342,472,o),
(296,410,o),
(296,306,cs),
(296,-82,ls),
(296,-246,o),
(226,-274,o),
(60,-274,c),
(60,-442,l)
);
}
);
width = 672;
}
);
unicode = 125;
},
{
color = 2;
glyphname = bracketleft;
lastChange = "2022-06-13 15:24:57 +0000";
layers = (
{
layerId = "1AB499B8-18A8-432D-A211-B6882CCB886D";
shapes = (
{
closed = 1;
nodes = (
(470,-376,l),
(470,-184,l),
(272,-184,l),
(272,1278,l),
(470,1278,l),
(470,1470,l),
(80,1470,l),
(80,-376,l)
);
}
);
width = 526;
}
);
unicode = 91;
},
{
color = 2;
glyphname = bracketright;
lastChange = "2022-06-13 15:24:57 +0000";
layers = (
{
layerId = "1AB499B8-18A8-432D-A211-B6882CCB886D";
shapes = (
{
closed = 1;
nodes = (
(446,-376,l),
(446,1470,l),
(56,1470,l),
(56,1278,l),
(254,1278,l),
(254,-184,l),
(56,-184,l),
(56,-376,l)
);
}
);
width = 526;
}
);
unicode = 93;
},
{
color = 2;
glyphname = quotesinglbase;
lastChange = "2022-06-13 15:24:57 +0000";
layers = (
{
layerId = "1AB499B8-18A8-432D-A211-B6882CCB886D";
shapes = (
{
closed = 1;
nodes = (
(144,-260,l),
(254,0,l),
(254,222,l),
(44,222,l),
(44,0,l),
(114,0,l),
(44,-260,l)
);
}
);
width = 302;
}
);
unicode = 8218;
},
{
color = 2;
glyphname = quotedblbase;
lastChange = "2022-06-13 15:24:57 +0000";
layers = (
{
layerId = "1AB499B8-18A8-432D-A211-B6882CCB886D";
shapes = (
{
closed = 1;
nodes = (
(448,-260,l),
(558,0,l),
(558,222,l),
(348,222,l),
(348,0,l),
(418,0,l),
(348,-260,l)
);
},
{
closed = 1;
nodes = (
(152,-260,l),
(262,0,l),
(262,222,l),
(52,222,l),
(52,0,l),
(122,0,l),
(52,-260,l)
);
}
);
width = 610;
}
);
unicode = 8222;
},
{
color = 2;
glyphname = quotedblleft;
kernLeft = quotesingle;
lastChange = "2022-06-13 15:24:57 +0000";
layers = (
{
layerId = "1AB499B8-18A8-432D-A211-B6882CCB886D";
shapes = (
{
closed = 1;
nodes = (
(558,988,l),
(558,1210,l),
(488,1210,l),
(558,1470,l),
(458,1470,l),
(348,1210,l),
(348,988,l)
);
},
{
closed = 1;
nodes = (
(262,988,l),
(262,1210,l),
(192,1210,l),
(262,1470,l),
(162,1470,l),
(52,1210,l),
(52,988,l)
);
}
);
width = 610;
}
);
unicode = 8220;
},
{
color = 2;
glyphname = quotedblright;
kernLeft = quotesingle;
lastChange = "2022-06-13 15:24:57 +0000";
layers = (
{
layerId = "1AB499B8-18A8-432D-A211-B6882CCB886D";
shapes = (
{
closed = 1;
nodes = (
(448,988,l),
(558,1248,l),
(558,1470,l),
(348,1470,l),
(348,1248,l),
(418,1248,l),
(348,988,l)
);
},
{
closed = 1;
nodes = (
(152,988,l),
(262,1248,l),
(262,1470,l),
(52,1470,l),
(52,1248,l),
(122,1248,l),
(52,988,l)
);
}
);
width = 610;
}
);
unicode = 8221;
},
{
color = 2;
glyphname = quoteleft;
kernLeft = quotesingle;
lastChange = "2022-06-13 15:24:57 +0000";
layers = (
{
layerId = "1AB499B8-18A8-432D-A211-B6882CCB886D";
shapes = (
{
closed = 1;
nodes = (
(258,988,l),
(258,1210,l),
(188,1210,l),
(258,1470,l),
(158,1470,l),
(48,1210,l),
(48,988,l)
);
}
);
width = 302;
}
);
unicode = 8216;
},
{
color = 2;
glyphname = quoteright;
kernLeft = quotesingle;
lastChange = "2022-06-13 15:24:57 +0000";
layers = (
{
layerId = "1AB499B8-18A8-432D-A211-B6882CCB886D";
shapes = (
{
closed = 1;
nodes = (
(144,988,l),
(254,1248,l),
(254,1470,l),
(44,1470,l),
(44,1248,l),
(114,1248,l),
(44,988,l)
);
}
);
width = 302;
}
);
unicode = 8217;
},
{
color = 2;
glyphname = uni201F;
kernLeft = quotesingle;
lastChange = "2022-06-13 15:24:57 +0000";
layers = (
{
layerId = "1AB499B8-18A8-432D-A211-B6882CCB886D";
shapes = (
{
closed = 1;
nodes = (
(558,988,l),
(488,1248,l),
(558,1248,l),
(558,1470,l),
(348,1470,l),
(348,1248,l),
(458,988,l)
);
},
{
closed = 1;
nodes = (
(262,988,l),
(192,1248,l),
(262,1248,l),
(262,1470,l),
(52,1470,l),
(52,1248,l),
(162,988,l)
);
}
);
width = 610;
}
);
unicode = 8223;
},
{
color = 2;
glyphname = guillemetleft;
lastChange = "2022-06-13 15:24:57 +0000";
layers = (
{
layerId = "1AB499B8-18A8-432D-A211-B6882CCB886D";
shapes = (
{
closed = 1;
nodes = (
(716,394,l),
(478,570,l),
(478,520,l),
(716,696,l),
(716,886,l),
(390,621,l),
(390,469,l),
(716,204,l)
);
},
{
closed = 1;
nodes = (
(386,394,l),
(148,570,l),
(148,520,l),
(386,696,l),
(386,886,l),
(60,621,l),
(60,469,l),
(386,204,l)
);
}
);
width = 776;
}
);
unicode = 171;
},
{
color = 2;
glyphname = guillemetright;
lastChange = "2022-06-13 15:24:57 +0000";
layers = (
{
layerId = "1AB499B8-18A8-432D-A211-B6882CCB886D";
shapes = (
{
closed = 1;
nodes = (
(386,469,l),
(386,621,l),
(60,886,l),
(60,696,l),
(298,520,l),
(298,570,l),
(60,394,l),
(60,204,l)
);
},
{
closed = 1;
nodes = (
(716,469,l),
(716,621,l),
(390,886,l),
(390,696,l),
(628,520,l),
(628,570,l),
(390,394,l),
(390,204,l)
);
}
);
width = 776;
}
);
unicode = 187;
},
{
color = 2;
glyphname = guilsinglleft;
lastChange = "2022-06-13 15:24:57 +0000";
layers = (
{
layerId = "1AB499B8-18A8-432D-A211-B6882CCB886D";
shapes = (
{
closed = 1;
nodes = (
(386,394,l),
(148,570,l),
(148,520,l),
(386,696,l),
(386,886,l),
(60,621,l),
(60,469,l),
(386,204,l)
);
}
);
width = 446;
}
);
unicode = 8249;
},
{
color = 2;
glyphname = guilsinglright;
lastChange = "2022-06-13 15:24:57 +0000";
layers = (
{
layerId = "1AB499B8-18A8-432D-A211-B6882CCB886D";
shapes = (
{
closed = 1;
nodes = (
(386,469,l),
(386,621,l),
(60,886,l),
(60,696,l),
(298,520,l),
(298,570,l),
(60,394,l),
(60,204,l)
);
}
);
width = 446;
}
);
unicode = 8250;
},
{
color = 2;
glyphname = quotedbl;
lastChange = "2022-06-13 15:24:57 +0000";
layers = (
{
layerId = "1AB499B8-18A8-432D-A211-B6882CCB886D";
shapes = (
{
closed = 1;
nodes = (
(504,932,l),
(534,1470,l),
(324,1470,l),
(354,932,l)
);
},
{
closed = 1;
nodes = (
(256,932,l),
(286,1470,l),
(76,1470,l),
(106,932,l)
);
}
);
width = 520;
}
);
unicode = 34;
},
{
color = 2;
glyphname = quotesingle;
kernLeft = quotesingle;
lastChange = "2022-06-13 15:24:57 +0000";
layers = (
{
layerId = "1AB499B8-18A8-432D-A211-B6882CCB886D";
shapes = (
{
closed = 1;
nodes = (
(236,932,l),
(266,1470,l),
(56,1470,l),
(86,932,l)
);
}
);
width = 302;
}
);
unicode = 39;
},
{
color = 4;
glyphname = "percent-ar";
lastChange = "2022-06-22 15:36:56 +0000";
layers = (
{
guides = (
{
angle = 90;
pos = (650,1470);
},
{
angle = 90;
pos = (60,0);
}
);
layerId = "1AB499B8-18A8-432D-A211-B6882CCB886D";
shapes = (
{
closed = 1;
nodes = (
(194,0,l),
(650,1470,l),
(522,1470,l),
(60,0,l)
);
},
{
pos = (8,1248);
ref = period;
},
{
pos = (388,0);
ref = period;
}
);
width = 710;
}
);
unicode = 1642;
},
{
color = 2;
glyphname = at;
lastChange = "2022-06-13 15:24:57 +0000";
layers = (
{
layerId = "1AB499B8-18A8-432D-A211-B6882CCB886D";
shapes = (
{
closed = 1;
nodes = (
(594,-16,o),
(684,52,o),
(738,124,c),
(590,208,l),
(558,168,o),
(512,146,o),
(426,146,cs),
(327,146,o),
(240,206,o),
(240,296,cs),
(240,1164,ls),
(240,1252,o),
(325,1318,o),
(426,1318,cs),
(528,1318,o),
(612,1257,o),
(612,1164,cs),
(612,1120,l),
(595,1153,o),
(559,1186,o),
(502,1186,cs),
(396,1186,o),
(360,1110,o),
(360,1020,cs),
(360,546,ls),
(360,452,o),
(396,378,o),
(502,378,cs),
(549,378,o),
(590,403,o),
(612,444,c),
(632,390,l),
(792,390,l),
(792,1164,ls),
(792,1354,o),
(632,1486,o),
(426,1486,cs),
(224,1486,o),
(60,1355,o),
(60,1164,cs),
(60,296,ls),
(60,114,o),
(226,-16,o),
(426,-16,cs)
);
},
{
closed = 1;
nodes = (
(534,508,o),
(518,526,o),
(518,560,cs),
(518,1004,ls),
(518,1038,o),
(534,1056,o),
(564,1056,cs),
(594,1056,o),
(612,1036,o),
(612,1004,cs),
(612,560,ls),
(612,522,o),
(594,508,o),
(564,508,cs)
);
}
);
width = 852;
}
);
unicode = 64;
},
{
color = 2;
glyphname = ampersand;
lastChange = "2022-06-13 15:24:57 +0000";
layers = (
{
layerId = "1AB499B8-18A8-432D-A211-B6882CCB886D";
shapes = (
{
closed = 1;
nodes = (
(466,-16,o),
(530,38,o),
(592,120,c),
(629,71,o),
(739,-16,o),
(796,-16,c),
(796,214,l),
(766,226,o),
(723,258,o),
(696,288,c),
(745,385,o),
(787,525,o),
(796,638,c),
(624,670,l),
(620,636,o),
(604,538,o),
(578,464,c),
(540,520,o),
(498,596,o),
(434,742,c),
(544,887,o),
(633,1029,o),
(633,1175,cs),
(633,1350,o),
(545,1486,o),
(376,1486,cs),
(202,1486,o),
(112,1348,o),
(112,1166,cs),
(112,1012,o),
(146,878,o),
(216,734,c),
(143,635,o),
(50,504,o),
(50,308,cs),
(50,98,o),
(174,-16,o),
(346,-16,cs)
);
},
{
closed = 1;
nodes = (
(289,172,o),
(258,255,o),
(258,341,cs),
(258,404,o),
(279,494,o),
(308,544,c),
(370,430,o),
(424,342,o),
(478,256,c),
(445,208,o),
(410,172,o),
(356,172,cs)
);
},
{
closed = 1;
nodes = (
(322,1004,o),
(299,1086,o),
(299,1169,cs),
(299,1247,o),
(318,1314,o),
(376,1314,cs),
(435,1314,o),
(452,1251,o),
(452,1172,cs),
(452,1094,o),
(402,1000,o),
(354,926,c)
);
}
);
width = 846;
}
);
unicode = 38;
},
{
color = 2;
glyphname = paragraph;
lastChange = "2022-06-13 15:24:57 +0000";
layers = (
{
layerId = "1AB499B8-18A8-432D-A211-B6882CCB886D";
shapes = (
{
closed = 1;
nodes = (
(662,-300,l),
(662,1470,l),
(446,1470,ls),
(204,1470,o),
(66,1310,o),
(66,1030,cs),
(66,750,o),
(205,588,o),
(446,588,c),
(446,-300,l)
);
},
{
closed = 1;
nodes = (
(984,-300,l),
(984,1470,l),
(768,1470,l),
(768,-300,l)
);
}
);
width = 1064;
}
);
unicode = 182;
},
{
color = 2;
glyphname = section;
lastChange = "2022-06-13 15:24:57 +0000";
layers = (
{
layerId = "1AB499B8-18A8-432D-A211-B6882CCB886D";
shapes = (
{
closed = 1;
nodes = (
(624,769,o),
(582,844,o),
(438,988,cs),
(325,1101,o),
(306,1131,o),
(306,1195,cs),
(306,1270,o),
(328,1312,o),
(368,1312,cs),
(411,1312,o),
(434,1267,o),
(434,1184,c),
(622,1184,l),
(622,1381,o),
(533,1483,o),
(364,1480,cs),
(205,1477,o),
(118,1373,o),
(118,1184,cs),
(118,1094,o),
(137,1043,o),
(199,966,c),
(133,917,o),
(96,826,o),
(96,714,cs),
(96,600,o),
(144,516,o),
(288,378,cs),
(390,279,o),
(414,240,o),
(414,170,cs),
(414,91,o),
(391,52,o),
(344,52,cs),
(285,52,o),
(250,114,o),
(250,218,c),
(62,218,l),
(62,12,o),
(170,-116,o),
(344,-116,cs),
(501,-116,o),
(602,1,o),
(602,184,cs),
(602,268,o),
(581,323,o),
(519,403,c),
(586,454,o),
(624,545,o),
(624,654,cs)
);
},
{
closed = 1;
nodes = (
(284,776,o),
(300,822,o),
(323,836,c),
(414,746,o),
(436,708,o),
(436,640,cs),
(436,590,o),
(423,549,o),
(401,533,c),
(303,633,o),
(284,664,o),
(284,725,cs)
);
}
);
width = 700;
}
);
unicode = 167;
},
{
color = 2;
glyphname = copyright;
lastChange = "2022-06-13 15:24:57 +0000";
layers = (
{
layerId = "1AB499B8-18A8-432D-A211-B6882CCB886D";
shapes = (
{
closed = 1;
nodes = (
(1218,-16,o),
(1554,321,o),
(1554,734,cs),
(1554,1150,o),
(1218,1486,o),
(802,1486,cs),
(391,1486,o),
(52,1152,o),
(52,734,cs),
(52,321,o),
(389,-16,o),
(802,-16,cs)
);
},
{
closed = 1;
nodes = (
(912,284,o),
(984,366,o),
(984,476,cs),
(984,598,l),
(850,598,l),
(850,476,ls),
(850,443,o),
(838,414,o),
(802,414,cs),
(773,414,o),
(754,438,o),
(754,476,cs),
(754,994,ls),
(754,1022,o),
(769,1056,o),
(802,1056,cs),
(837,1056,o),
(850,1029,o),
(850,994,cs),
(850,872,l),
(984,872,l),
(984,994,ls),
(984,1100,o),
(912,1186,o),
(800,1186,cs),
(684,1186,o),
(612,1107,o),
(612,994,cs),
(612,476,ls),
(612,366,o),
(682,284,o),
(800,284,cs)
);
},
{
closed = 1;
nodes = (
(457,100,o),
(168,389,o),
(168,734,cs),
(168,1079,o),
(451,1370,o),
(802,1370,cs),
(1154,1370,o),
(1438,1086,o),
(1438,734,cs),
(1438,385,o),
(1149,100,o),
(802,100,cs)
);
}
);
width = 1606;
}
);
unicode = 169;
},
{
color = 2;
glyphname = registered;
lastChange = "2022-06-13 15:24:57 +0000";
layers = (
{
layerId = "1AB499B8-18A8-432D-A211-B6882CCB886D";
shapes = (
{
closed = 1;
nodes = (
(1218,-16,o),
(1554,321,o),
(1554,734,cs),
(1554,1150,o),
(1218,1486,o),
(802,1486,cs),
(391,1486,o),
(52,1152,o),
(52,734,cs),
(52,321,o),
(389,-16,o),
(802,-16,cs)
);
},
{
closed = 1;
nodes = (
(457,100,o),
(168,389,o),
(168,734,cs),
(168,1079,o),
(451,1370,o),
(802,1370,cs),
(1154,1370,o),
(1438,1086,o),
(1438,734,cs),
(1438,385,o),
(1149,100,o),
(802,100,cs)
);
},
{
closed = 1;
nodes = (
(752,306,l),
(752,662,l),
(806,662,l),
(898,306,l),
(1046,306,l),
(942,696,l),
(1022,762,o),
(1028,826,o),
(1028,912,cs),
(1028,1070,o),
(962,1164,o),
(802,1164,cs),
(610,1164,l),
(610,306,l)
);
},
{
closed = 1;
nodes = (
(752,1038,l),
(796,1038,ls),
(838,1038,o),
(866,1020,o),
(878,996,cs),
(890,972,o),
(892,940,o),
(892,910,cs),
(892,880,o),
(890,850,o),
(878,826,cs),
(866,802,o),
(838,786,o),
(796,786,cs),
(752,786,l)
);
}
);
width = 1606;
}
);
unicode = 174;
},
{
color = 2;
glyphname = trademark;
lastChange = "2022-06-13 15:24:57 +0000";
layers = (
{
layerId = "1AB499B8-18A8-432D-A211-B6882CCB886D";
shapes = (
{
closed = 1;
nodes = (
(528,802,l),
(528,1240,l),
(606,802,l),
(656,802,l),
(732,1240,l),
(732,802,l),
(834,802,l),
(834,1470,l),
(700,1470,l),
(634,1158,l),
(628,1158,l),
(562,1470,l),
(428,1470,l),
(428,802,l)
);
},
{
closed = 1;
nodes = (
(282,802,l),
(282,1368,l),
(384,1368,l),
(384,1470,l),
(70,1470,l),
(70,1368,l),
(172,1368,l),
(172,802,l)
);
}
);
width = 904;
}
);
unicode = 8482;
},
{
color = 2;
glyphname = degree;
lastChange = "2022-06-13 15:24:57 +0000";
layers = (
{
layerId = "1AB499B8-18A8-432D-A211-B6882CCB886D";
shapes = (
{
closed = 1;
nodes = (
(312,1168,o),
(378,1226,o),
(378,1308,cs),
(378,1390,o),
(312,1448,o),
(230,1448,cs),
(148,1448,o),
(80,1390,o),
(80,1308,cs),
(80,1226,o),
(148,1168,o),
(230,1168,cs)
);
},
{
closed = 1;
nodes = (
(192,1238,o),
(156,1270,o),
(156,1308,cs),
(156,1346,o),
(192,1378,o),
(230,1378,cs),
(268,1378,o),
(304,1346,o),
(304,1308,cs),
(304,1270,o),
(268,1238,o),
(230,1238,cs)
);
}
);
width = 458;
}
);
unicode = 176;
},
{
color = 2;
glyphname = bar;
kernLeft = l;
kernRight = l;
lastChange = "2022-06-13 15:24:57 +0000";
layers = (
{
layerId = "1AB499B8-18A8-432D-A211-B6882CCB886D";
shapes = (
{
closed = 1;
nodes = (
(268,-500,l),
(268,1652,l),
(80,1652,l),
(80,-500,l)
);
}
);
width = 348;
}
);
unicode = 124;
},
{
color = 2;
glyphname = brokenbar;
lastChange = "2022-06-13 15:24:57 +0000";
layers = (
{
layerId = "1AB499B8-18A8-432D-A211-B6882CCB886D";
shapes = (
{
closed = 1;
nodes = (
(268,-500,l),
(268,393,l),
(80,393,l),
(80,-500,l)
);
},
{
closed = 1;
nodes = (
(268,759,l),
(268,1652,l),
(80,1652,l),
(80,759,l)
);
}
);
width = 348;
}
);
unicode = 166;
},
{
color = 2;
glyphname = cent;
lastChange = "2022-06-13 15:24:57 +0000";
layers = (
{
layerId = "1AB499B8-18A8-432D-A211-B6882CCB886D";
shapes = (
{
closed = 1;
nodes = (
(394,-120,l),
(394,176,l),
(516,194,o),
(580,278,o),
(580,486,cs),
(580,592,l),
(396,592,l),
(396,440,ls),
(396,374,o),
(370,352,o),
(324,352,cs),
(270,352,o),
(254,400,o),
(254,440,cs),
(254,1030,ls),
(254,1070,o),
(270,1118,o),
(324,1118,cs),
(370,1118,o),
(396,1096,o),
(396,1030,cs),
(396,898,l),
(580,898,l),
(580,984,ls),
(580,1155,o),
(542,1268,o),
(394,1292,c),
(394,1530,l),
(274,1530,l),
(274,1294,l),
(154,1276,o),
(70,1188,o),
(70,974,cs),
(70,496,ls),
(70,280,o),
(154,192,o),
(274,174,c),
(274,-120,l)
);
}
);
width = 650;
}
);
metricLeft = O;
metricRight = O;
unicode = 162;
},
{
color = 2;
glyphname = currency;
lastChange = "2022-06-13 15:24:57 +0000";
layers = (
{
layerId = "1AB499B8-18A8-432D-A211-B6882CCB886D";
shapes = (
{
closed = 1;
nodes = (
(234,415,l),
(284,379,o),
(345,358,o),
(412,358,cs),
(478,358,o),
(539,379,o),
(589,415,c),
(681,323,l),
(748,392,l),
(657,483,l),
(693,533,o),
(714,595,o),
(714,661,cs),
(714,727,o),
(693,788,o),
(657,838,c),
(748,929,l),
(680,998,l),
(588,906,l),
(538,942,o),
(477,963,o),
(412,963,cs),
(345,963,o),
(284,942,o),
(234,906,c),
(143,997,l),
(76,928,l),
(166,838,l),
(130,788,o),
(109,727,o),
(109,661,cs),
(109,595,o),
(130,533,o),
(166,484,c),
(75,392,l),
(142,323,l)
);
},
{
closed = 1;
nodes = (
(326,507,o),
(258,575,o),
(258,661,cs),
(258,746,o),
(326,814,o),
(412,814,cs),
(496,814,o),
(565,746,o),
(565,661,cs),
(565,575,o),
(497,507,o),
(412,507,cs)
);
}
);
width = 823;
}
);
unicode = 164;
},
{
color = 3;
glyphname = dollar;
lastChange = "2022-06-13 15:24:57 +0000";
layers = (
{
layerId = "1AB499B8-18A8-432D-A211-B6882CCB886D";
shapes = (
{
closed = 1;
nodes = (
(247,1218,l),
(367,1218,l),
(367,1525,l),
(247,1525,l)
);
},
{
closed = 1;
nodes = (
(247,-120,l),
(367,-120,l),
(367,281,l),
(247,281,l)
);
},
{
alignment = -1;
pos = (6,184);
ref = s;
}
);
width = 612;
}
);
metricLeft = S;
metricRight = S;
unicode = 36;
},
{
color = 2;
glyphname = euro;
lastChange = "2022-06-13 15:24:57 +0000";
layers = (
{
layerId = "1AB499B8-18A8-432D-A211-B6882CCB886D";
shapes = (
{
closed = 1;
nodes = (
(622,-16,o),
(732,123,o),
(732,302,cs),
(732,384,l),
(530,384,l),
(530,302,ls),
(530,240,o),
(508,194,o),
(448,194,cs),
(398,194,o),
(372,249,o),
(372,302,cs),
(372,534,l),
(600,534,l),
(600,668,l),
(372,668,l),
(372,802,l),
(600,802,l),
(600,936,l),
(372,936,l),
(372,1168,ls),
(372,1226,o),
(395,1276,o),
(448,1276,cs),
(507,1276,o),
(530,1229,o),
(530,1168,cs),
(530,1086,l),
(732,1086,l),
(732,1168,ls),
(732,1348,o),
(626,1486,o),
(444,1486,cs),
(267,1486,o),
(156,1346,o),
(156,1168,cs),
(156,936,l),
(52,936,l),
(52,802,l),
(156,802,l),
(156,668,l),
(52,668,l),
(52,534,l),
(156,534,l),
(156,302,ls),
(156,124,o),
(261,-16,o),
(444,-16,cs)
);
}
);
width = 794;
}
);
unicode = 8364;
},
{
color = 2;
glyphname = sterling;
lastChange = "2022-06-13 15:24:57 +0000";
layers = (
{
layerId = "1AB499B8-18A8-432D-A211-B6882CCB886D";
shapes = (
{
closed = 1;
nodes = (
(198,31,o),
(244,84,o),
(294,84,cs),
(367,84,o),
(471,-16,o),
(560,-16,cs),
(688,-16,o),
(790,110,o),
(806,356,c),
(622,378,l),
(618,294,o),
(599,192,o),
(542,192,cs),
(496,192,o),
(456,250,o),
(412,250,c),
(448,298,o),
(476,409,o),
(476,473,cs),
(476,529,o),
(470,568,o),
(454,634,c),
(614,634,l),
(614,768,l),
(418,768,l),
(382,858,o),
(334,986,o),
(334,1122,cs),
(334,1222,o),
(370,1286,o),
(432,1286,cs),
(498,1286,o),
(534,1205,o),
(534,1094,c),
(742,1094,l),
(742,1338,o),
(656,1486,o),
(428,1486,cs),
(233,1486,o),
(130,1327,o),
(130,1122,cs),
(130,988,o),
(174,865,o),
(212,768,c),
(68,768,l),
(68,634,l),
(252,634,l),
(270,572,o),
(282,514,o),
(282,464,cs),
(282,408,o),
(268,332,o),
(246,270,c),
(155,254,o),
(84,159,o),
(40,62,c),
(182,-16,l)
);
}
);
width = 846;
}
);
unicode = 163;
},
{
color = 3;
glyphname = yen;
lastChange = "2022-06-13 15:24:57 +0000";
layers = (
{
layerId = "1AB499B8-18A8-432D-A211-B6882CCB886D";
shapes = (
{
closed = 1;
nodes = (
(76,332,l),
(632,332,l),
(632,465,l),
(76,465,l)
);
},
{
closed = 1;
nodes = (
(76,598,l),
(632,598,l),
(632,731,l),
(76,731,l)
);
},
{
ref = Y;
}
);
width = 716;
}
);
unicode = 165;
},
{
color = 2;
glyphname = plus;
lastChange = "2022-06-13 15:24:57 +0000";
layers = (
{
layerId = "1AB499B8-18A8-432D-A211-B6882CCB886D";
shapes = (
{
closed = 1;
nodes = (
(602,296,l),
(602,634,l),
(964,634,l),
(964,802,l),
(602,802,l),
(602,1140,l),
(434,1140,l),
(434,802,l),
(72,802,l),
(72,634,l),
(434,634,l),
(434,296,l)
);
}
);
width = 1036;
}
);
unicode = 43;
},
{
color = 2;
glyphname = minus;
lastChange = "2022-06-13 15:24:57 +0000";
layers = (
{
layerId = "1AB499B8-18A8-432D-A211-B6882CCB886D";
shapes = (
{
closed = 1;
nodes = (
(686,634,l),
(686,802,l),
(72,802,l),
(72,634,l)
);
}
);
width = 758;
}
);
unicode = 8722;
},
{
color = 2;
glyphname = multiply;
lastChange = "2022-06-13 15:24:57 +0000";
layers = (
{
layerId = "1AB499B8-18A8-432D-A211-B6882CCB886D";
shapes = (
{
closed = 1;
nodes = (
(430,599,l),
(669,360,l),
(788,479,l),
(549,718,l),
(788,957,l),
(669,1076,l),
(430,837,l),
(191,1076,l),
(72,957,l),
(311,718,l),
(72,479,l),
(191,360,l)
);
}
);
width = 860;
}
);
unicode = 215;
},
{
color = 2;
glyphname = divide;
lastChange = "2022-06-13 15:24:57 +0000";
layers = (
{
layerId = "1AB499B8-18A8-432D-A211-B6882CCB886D";
shapes = (
{
closed = 1;
nodes = (
(686,634,l),
(686,802,l),
(72,802,l),
(72,634,l)
);
},
{
closed = 1;
nodes = (
(437,882,o),
(484,929,o),
(484,988,cs),
(484,1045,o),
(437,1092,o),
(380,1092,cs),
(321,1092,o),
(274,1045,o),
(274,988,cs),
(274,929,o),
(321,882,o),
(380,882,cs)
);
},
{
closed = 1;
nodes = (
(437,344,o),
(484,391,o),
(484,450,cs),
(484,507,o),
(437,554,o),
(380,554,cs),
(321,554,o),
(274,507,o),
(274,450,cs),
(274,391,o),
(321,344,o),
(380,344,cs)
);
}
);
width = 758;
}
);
unicode = 247;
},
{
color = 2;
glyphname = equal;
lastChange = "2022-06-13 15:24:57 +0000";
layers = (
{
layerId = "1AB499B8-18A8-432D-A211-B6882CCB886D";
shapes = (
{
closed = 1;
nodes = (
(962,844,l),
(962,1012,l),
(72,1012,l),
(72,844,l)
);
},
{
closed = 1;
nodes = (
(962,466,l),
(962,634,l),
(72,634,l),
(72,466,l)
);
}
);
width = 1034;
}
);
unicode = 61;
},
{
color = 2;
glyphname = greater;
lastChange = "2022-06-13 15:24:57 +0000";
layers = (
{
layerId = "1AB499B8-18A8-432D-A211-B6882CCB886D";
shapes = (
{
closed = 1;
nodes = (
(962,634,l),
(962,790,l),
(72,1254,l),
(72,1060,l),
(754,712,l),
(72,364,l),
(72,170,l)
);
}
);
width = 1034;
}
);
unicode = 62;
},
{
color = 2;
glyphname = less;
lastChange = "2022-06-13 15:24:57 +0000";
layers = (
{
layerId = "1AB499B8-18A8-432D-A211-B6882CCB886D";
shapes = (
{
closed = 1;
nodes = (
(962,364,l),
(280,712,l),
(962,1060,l),
(962,1254,l),
(72,790,l),
(72,634,l),
(962,170,l)
);
}
);
width = 1034;
}
);
unicode = 60;
},
{
color = 2;
glyphname = plusminus;
lastChange = "2022-06-13 15:24:57 +0000";
layers = (
{
layerId = "1AB499B8-18A8-432D-A211-B6882CCB886D";
shapes = (
{
closed = 1;
nodes = (
(602,296,l),
(602,634,l),
(964,634,l),
(964,802,l),
(602,802,l),
(602,1140,l),
(434,1140,l),
(434,802,l),
(72,802,l),
(72,634,l),
(434,634,l),
(434,296,l)
);
},
{
closed = 1;
nodes = (
(963,0,l),
(963,168,l),
(73,168,l),
(73,0,l)
);
}
);
width = 1036;
}
);
unicode = 177;
},
{
color = 2;
glyphname = asciitilde;
lastChange = "2022-06-13 15:24:57 +0000";
layers = (
{
layerId = "1AB499B8-18A8-432D-A211-B6882CCB886D";
shapes = (
{
closed = 1;
nodes = (
(225,1358,o),
(295,1440,o),
(388,1440,cs),
(450,1440,o),
(506,1407,o),
(562,1368,cs),
(638,1315,o),
(716,1270,o),
(828,1270,cs),
(979,1270,o),
(1087,1411,o),
(1146,1572,c),
(1014,1628,l),
(972,1526,o),
(916,1450,o),
(828,1450,cs),
(766,1450,o),
(713,1483,o),
(658,1520,cs),
(580,1572,o),
(508,1620,o),
(388,1620,cs),
(232,1620,o),
(115,1482,o),
(60,1320,c),
(192,1264,l)
);
}
);
width = 1206;
}
);
unicode = 126;
},
{
color = 2;
glyphname = logicalnot;
lastChange = "2022-06-13 15:24:57 +0000";
layers = (
{
layerId = "1AB499B8-18A8-432D-A211-B6882CCB886D";
shapes = (
{
closed = 1;
nodes = (
(964,296,l),
(964,802,l),
(72,802,l),
(72,634,l),
(796,634,l),
(796,296,l)
);
}
);
width = 1036;
}
);
unicode = 172;
},
{
color = 2;
glyphname = asciicircum;
lastChange = "2022-06-13 15:24:57 +0000";
layers = (
{
layerId = "1AB499B8-18A8-432D-A211-B6882CCB886D";
shapes = (
{
closed = 1;
nodes = (
(246,790,l),
(538,1320,l),
(830,790,l),
(1024,790,l),
(652,1470,l),
(424,1470,l),
(52,790,l)
);
}
);
width = 1076;
}
);
unicode = 94;
},
{
color = 2;
glyphname = micro;
lastChange = "2022-06-13 15:24:57 +0000";
layers = (
{
layerId = "1AB499B8-18A8-432D-A211-B6882CCB886D";
shapes = (
{
closed = 1;
nodes = (
(278,-376,l),
(278,-2,l),
(311,15,o),
(349,46,o),
(392,92,c),
(392,0,l),
(594,0,l),
(594,1094,l),
(392,1094,l),
(392,252,ls),
(392,215,o),
(360,180,o),
(326,180,cs),
(293,180,o),
(278,195,o),
(278,228,cs),
(278,1094,l),
(76,1094,l),
(76,-376,l)
);
}
);
width = 674;
}
);
unicode = 181;
},
{
color = 2;
glyphname = percent;
lastChange = "2022-06-13 15:24:57 +0000";
layers = (
{
layerId = "1AB499B8-18A8-432D-A211-B6882CCB886D";
shapes = (
{
closed = 1;
nodes = (
(297,0,l),
(831,1470,l),
(703,1470,l),
(163,0,l)
);
},
{
closed = 1;
nodes = (
(316,708,o),
(378,781,o),
(378,884,cs),
(378,1309,ls),
(378,1412,o),
(316,1486,o),
(219,1486,cs),
(120,1486,o),
(60,1412,o),
(60,1309,cs),
(60,884,ls),
(60,781,o),
(120,708,o),
(219,708,cs)
);
},
{
closed = 1;
nodes = (
(187,815,o),
(176,843,o),
(176,884,cs),
(176,1309,ls),
(176,1351,o),
(187,1378,o),
(219,1378,cs),
(250,1378,o),
(260,1350,o),
(260,1309,cs),
(260,884,ls),
(260,844,o),
(250,815,o),
(219,815,cs)
);
},
{
closed = 1;
nodes = (
(878,-16,o),
(940,57,o),
(940,160,cs),
(940,585,ls),
(940,688,o),
(878,762,o),
(781,762,cs),
(682,762,o),
(622,688,o),
(622,585,cs),
(622,160,ls),
(622,57,o),
(682,-16,o),
(781,-16,cs)
);
},
{
closed = 1;
nodes = (
(749,91,o),
(738,119,o),
(738,160,cs),
(738,585,ls),
(738,627,o),
(749,654,o),
(781,654,cs),
(812,654,o),
(822,626,o),
(822,585,cs),
(822,160,ls),
(822,120,o),
(812,91,o),
(781,91,cs)
);
}
);
width = 1000;
}
);
unicode = 37;
},
{
color = 4;
glyphname = "tahabove-ar";
lastChange = "2022-09-15 20:34:25 +0000";
layers = (
{
anchors = (
{
name = _top;
pos = (226,315);
},
{
name = top;
pos = (226,1010);
}
);
layerId = "1AB499B8-18A8-432D-A211-B6882CCB886D";
shapes = (
{
closed = 1;
nodes = (
(121,423,o),
(166,414,o),
(240,415,cs),
(335,414,o),
(409,469,o),
(409,562,cs),
(409,676,o),
(357,758,o),
(282,758,cs),
(270,758,o),
(259,756,o),
(248,752,c),
(248,770,ls),
(248,846,o),
(248,928,o),
(233,1008,c),
(135,984,l),
(148,914,o),
(148,846,o),
(148,770,cs),
(148,642,l),
(135,615,o),
(124,588,o),
(113,561,c),
(100,565,o),
(86,571,o),
(70,577,c),
(40,457,l)
);
},
{
closed = 1;
nodes = (
(222,595,o),
(245,628,o),
(282,628,cs),
(322,628,o),
(329,617,o),
(329,562,cs),
(329,557,o),
(300,544,o),
(240,545,cs),
(226,545,o),
(213,545,o),
(201,546,c)
);
}
);
width = 449;
}
);
unicode = 1557;
},
{
color = 4;
glyphname = "dotabove-ar";
lastChange = "2022-06-13 17:13:55 +0000";
layers = (
{
anchors = (
{
name = _top;
pos = (175,-32);
},
{
name = top;
pos = (175,338);
}
);
layerId = "1AB499B8-18A8-432D-A211-B6882CCB886D";
shapes = (
{
closed = 1;
nodes = (
(40,203,l,{
"Letterink-NibData" = {
AngleInDegrees = "360";
};
}),
(175,68,l,{
"Letterink-NibData" = {
AngleInDegrees = "0";
};
}),
(310,203,l,{
"Letterink-NibData" = {
AngleInDegrees = "360";
};
}),
(175,338,l,{
"Letterink-NibData" = {
AngleInDegrees = "0";
};
})
);
}
);
width = 350;
}
);
},
{
color = 4;
glyphname = "dotbelow-ar";
lastChange = "2022-09-07 18:47:09 +0000";
layers = (
{
anchors = (
{
name = _bottom;
pos = (175,432);
},
{
name = bottom;
pos = (175,68);
}
);
layerId = "1AB499B8-18A8-432D-A211-B6882CCB886D";
shapes = (
{
closed = 1;
nodes = (
(40,203,l,{
"Letterink-NibData" = {
AngleInDegrees = 360;
};
}),
(175,68,l,{
"Letterink-NibData" = {
AngleInDegrees = 0;
};
}),
(310,203,l,{
"Letterink-NibData" = {
AngleInDegrees = 360;
};
}),
(175,338,l,{
"Letterink-NibData" = {
AngleInDegrees = 0;
};
})
);
}
);
width = 350;
}
);
metricLeft = "dotabove-ar";
metricRight = "dotabove-ar";
},
{
color = 4;
glyphname = "dotcenter-ar";
lastChange = "2022-06-13 17:14:08 +0000";
layers = (
{
anchors = (
{
name = _center;
pos = (175,203);
}
);
layerId = "1AB499B8-18A8-432D-A211-B6882CCB886D";
shapes = (
{
closed = 1;
nodes = (
(40,203,l,{
"Letterink-NibData" = {
AngleInDegrees = "360";
};
}),
(175,68,l,{
"Letterink-NibData" = {
AngleInDegrees = "0";
};
}),
(310,203,l,{
"Letterink-NibData" = {
AngleInDegrees = "360";
};
}),
(175,338,l,{
"Letterink-NibData" = {
AngleInDegrees = "0";
};
})
);
}
);
width = 350;
}
);
metricLeft = "dotabove-ar";
metricRight = "dotabove-ar";
},
{
color = 4;
glyphname = "twodotsverticalabove-ar";
lastChange = "2022-06-13 15:24:57 +0000";
layers = (
{
anchors = (
{
name = _top;
pos = (169,-6);
},
{
name = top;
pos = (169,574);
}
);
layerId = "1AB499B8-18A8-432D-A211-B6882CCB886D";
shapes = (
{
closed = 1;
nodes = (
(169,574,l,{
"Letterink-NibData" = {
AngleInDegrees = "360";
};
}),
(40,445,l,{
"Letterink-NibData" = {
AngleInDegrees = "0";
};
}),
(169,316,l,{
"Letterink-NibData" = {
AngleInDegrees = "360";
};
}),
(298,445,l,{
"Letterink-NibData" = {
AngleInDegrees = "0";
};
})
);
},
{
closed = 1;
nodes = (
(169,352,l,{
"Letterink-NibData" = {
AngleInDegrees = "360";
};
}),
(40,223,l,{
"Letterink-NibData" = {
AngleInDegrees = "0";
};
}),
(169,94,l,{
"Letterink-NibData" = {
AngleInDegrees = "360";
};
}),
(298,223,l,{
"Letterink-NibData" = {
AngleInDegrees = "0";
};
})
);
}
);
width = 338;
}
);
metricLeft = "dotabove-ar";
metricRight = "dotabove-ar";
},
{
color = 4;
glyphname = "twodotsverticalbelow-ar";
lastChange = "2022-06-13 15:24:57 +0000";
layers = (
{
anchors = (
{
name = _bottom;
pos = (169,674);
},
{
name = bottom;
pos = (169,94);
}
);
layerId = "1AB499B8-18A8-432D-A211-B6882CCB886D";
shapes = (
{
closed = 1;
nodes = (
(169,574,l,{
"Letterink-NibData" = {
AngleInDegrees = "360";
};
}),
(40,445,l,{
"Letterink-NibData" = {
AngleInDegrees = "0";
};
}),
(169,316,l,{
"Letterink-NibData" = {
AngleInDegrees = "360";
};
}),
(298,445,l,{
"Letterink-NibData" = {
AngleInDegrees = "0";
};
})
);
},
{
closed = 1;
nodes = (
(169,352,l,{
"Letterink-NibData" = {
AngleInDegrees = "360";
};
}),
(40,223,l,{
"Letterink-NibData" = {
AngleInDegrees = "0";
};
}),
(169,94,l,{
"Letterink-NibData" = {
AngleInDegrees = "360";
};
}),
(298,223,l,{
"Letterink-NibData" = {
AngleInDegrees = "0";
};
})
);
}
);
width = 338;
}
);
metricLeft = "dotabove-ar";
metricRight = "dotabove-ar";
},
{
color = 4;
glyphname = "twodotshorizontalabove-ar";
lastChange = "2022-06-13 17:13:32 +0000";
layers = (
{
anchors = (
{
name = _top;
pos = (260,-39);
},
{
name = top;
pos = (260,319);
}
);
layerId = "1AB499B8-18A8-432D-A211-B6882CCB886D";
shapes = (
{
closed = 1;
nodes = (
(40,190,l,{
"Letterink-NibData" = {
AngleInDegrees = "360";
};
}),
(169,61,l,{
"Letterink-NibData" = {
AngleInDegrees = "0";
};
}),
(298,190,l,{
"Letterink-NibData" = {
AngleInDegrees = "360";
};
}),
(169,319,l,{
"Letterink-NibData" = {
AngleInDegrees = "0";
};
})
);
},
{
closed = 1;
nodes = (
(222,190,l,{
"Letterink-NibData" = {
AngleInDegrees = "360";
};
}),
(351,61,l,{
"Letterink-NibData" = {
AngleInDegrees = "0";
};
}),
(480,190,l,{
"Letterink-NibData" = {
AngleInDegrees = "360";
};
}),
(351,319,l,{
"Letterink-NibData" = {
AngleInDegrees = "0";
};
})
);
}
);
width = 520;
}
);
metricLeft = "dotabove-ar";
metricRight = "dotabove-ar";
},
{
color = 4;
glyphname = "twodotshorizontalbelow-ar";
lastChange = "2022-06-13 17:13:46 +0000";
layers = (
{
anchors = (
{
name = _bottom;
pos = (260,419);
},
{
name = bottom;
pos = (260,61);
}
);
layerId = "1AB499B8-18A8-432D-A211-B6882CCB886D";
shapes = (
{
closed = 1;
nodes = (
(40,190,l,{
"Letterink-NibData" = {
AngleInDegrees = "360";
};
}),
(169,61,l,{
"Letterink-NibData" = {
AngleInDegrees = "0";
};
}),
(298,190,l,{
"Letterink-NibData" = {
AngleInDegrees = "360";
};
}),
(169,319,l,{
"Letterink-NibData" = {
AngleInDegrees = "0";
};
})
);
},
{
closed = 1;
nodes = (
(222,190,l,{
"Letterink-NibData" = {
AngleInDegrees = "360";
};
}),
(351,61,l,{
"Letterink-NibData" = {
AngleInDegrees = "0";
};
}),
(480,190,l,{
"Letterink-NibData" = {
AngleInDegrees = "360";
};
}),
(351,319,l,{
"Letterink-NibData" = {
AngleInDegrees = "0";
};
})
);
}
);
width = 520;
}
);
metricLeft = "dotabove-ar";
metricRight = "dotabove-ar";
},
{
color = 4;
glyphname = "threedotsdownabove-ar";
lastChange = "2022-06-13 17:14:45 +0000";
layers = (
{
anchors = (
{
name = _top;
pos = (260,-38);
},
{
name = top;
pos = (260,534);
}
);
layerId = "1AB499B8-18A8-432D-A211-B6882CCB886D";
shapes = (
{
closed = 1;
nodes = (
(298,405,l,{
"Letterink-NibData" = {
AngleInDegrees = "360";
};
}),
(169,534,l,{
"Letterink-NibData" = {
AngleInDegrees = "0";
};
}),
(40,405,l,{
"Letterink-NibData" = {
AngleInDegrees = "360";
};
}),
(169,276,l,{
"Letterink-NibData" = {
AngleInDegrees = "0";
};
})
);
},
{
closed = 1;
nodes = (
(480,405,l,{
"Letterink-NibData" = {
AngleInDegrees = "360";
};
}),
(351,534,l,{
"Letterink-NibData" = {
AngleInDegrees = "0";
};
}),
(222,405,l,{
"Letterink-NibData" = {
AngleInDegrees = "360";
};
}),
(351,276,l,{
"Letterink-NibData" = {
AngleInDegrees = "0";
};
})
);
},
{
closed = 1;
nodes = (
(383,185,l,{
"Letterink-NibData" = {
AngleInDegrees = "360";
};
}),
(260,308,l,{
"Letterink-NibData" = {
AngleInDegrees = "0";
};
}),
(137,185,l,{
"Letterink-NibData" = {
AngleInDegrees = "360";
};
}),
(260,62,l,{
"Letterink-NibData" = {
AngleInDegrees = "0";
};
})
);
}
);
width = 520;
}
);
metricLeft = "dotabove-ar";
metricRight = "dotabove-ar";
},
